<?xml version="1.0" encoding="UTF-8"?>
<svg xmlns="http://www.w3.org/2000/svg" xmlns:xlink="http://www.w3.org/1999/xlink" width="504pt" height="216pt" viewBox="0 0 504 216" version="1.1">
<g id="surface430">
<path style=" stroke:none;fill-rule:nonzero;fill:rgb(3.529412%,3.529412%,3.529412%);fill-opacity:1;" d="M 256.980469 25.160156 L 256.980469 27.03125 L 258 27.03125 L 258 28.527344 L 256.980469 28.527344 L 256.980469 32.304688 L 256.984375 32.390625 L 256.988281 32.472656 L 256.992188 32.550781 L 257 32.621094 L 257.011719 32.683594 L 257.023438 32.742188 L 257.039062 32.796875 L 257.058594 32.84375 L 257.078125 32.886719 L 257.101562 32.921875 L 257.128906 32.957031 L 257.160156 32.984375 L 257.238281 33.03125 L 257.285156 33.050781 L 257.335938 33.066406 L 257.386719 33.078125 L 257.449219 33.085938 L 257.511719 33.089844 L 257.578125 33.09375 L 257.636719 33.089844 L 257.691406 33.089844 L 257.742188 33.085938 L 257.792969 33.085938 L 257.839844 33.078125 L 257.886719 33.074219 L 257.972656 33.058594 L 258.050781 33.042969 L 258.035156 34.589844 L 257.933594 34.625 L 257.832031 34.65625 L 257.726562 34.6875 L 257.617188 34.710938 L 257.398438 34.75 L 257.171875 34.773438 L 257.058594 34.777344 L 256.9375 34.78125 L 256.574219 34.757812 L 256.246094 34.691406 L 255.953125 34.582031 L 255.703125 34.425781 L 255.488281 34.226562 L 255.3125 33.984375 L 255.175781 33.699219 L 255.078125 33.367188 L 255.015625 32.992188 L 254.992188 32.570312 L 254.992188 28.527344 L 254.113281 28.527344 L 254.113281 27.03125 L 254.992188 27.03125 L 254.992188 25.160156 Z M 256.980469 25.160156 "/>
<path style=" stroke:none;fill-rule:nonzero;fill:rgb(3.529412%,3.529412%,3.529412%);fill-opacity:1;" d="M 262.703125 34.640625 L 262.6875 34.601562 L 262.671875 34.558594 L 262.65625 34.511719 L 262.636719 34.460938 L 262.621094 34.402344 L 262.605469 34.339844 L 262.585938 34.277344 L 262.554688 34.128906 L 262.535156 34.046875 L 262.425781 34.1875 L 262.308594 34.3125 L 262.179688 34.421875 L 262.046875 34.515625 L 261.90625 34.597656 L 261.757812 34.664062 L 261.601562 34.714844 L 261.4375 34.75 L 261.265625 34.773438 L 261.085938 34.78125 L 260.898438 34.773438 L 260.71875 34.753906 L 260.542969 34.722656 L 260.375 34.679688 L 260.210938 34.621094 L 260.058594 34.550781 L 259.90625 34.46875 L 259.765625 34.375 L 259.628906 34.265625 L 259.5 34.148438 L 259.378906 34.015625 L 259.273438 33.878906 L 259.179688 33.734375 L 259.097656 33.582031 L 259.03125 33.421875 L 258.972656 33.253906 L 258.929688 33.078125 L 258.898438 32.894531 L 258.878906 32.707031 L 258.875 32.507812 L 258.878906 32.273438 L 258.902344 32.050781 L 258.941406 31.839844 L 258.996094 31.636719 L 259.0625 31.449219 L 259.144531 31.269531 L 259.246094 31.101562 L 259.359375 30.941406 L 259.488281 30.796875 L 259.632812 30.660156 L 259.792969 30.535156 L 259.964844 30.421875 L 260.152344 30.324219 L 260.351562 30.238281 L 260.566406 30.164062 L 260.792969 30.105469 L 261.03125 30.058594 L 261.285156 30.023438 L 261.554688 30 L 261.832031 29.992188 L 262.4375 29.992188 L 262.4375 29.28125 L 262.429688 29.1875 L 262.421875 29.097656 L 262.410156 29.015625 L 262.394531 28.941406 L 262.375 28.871094 L 262.351562 28.808594 L 262.324219 28.75 L 262.296875 28.699219 L 262.226562 28.613281 L 262.183594 28.578125 L 262.140625 28.546875 L 262.09375 28.519531 L 262.046875 28.496094 L 261.992188 28.476562 L 261.9375 28.464844 L 261.878906 28.453125 L 261.816406 28.445312 L 261.75 28.445312 L 261.605469 28.453125 L 261.480469 28.480469 L 261.367188 28.523438 L 261.273438 28.582031 L 261.191406 28.664062 L 261.121094 28.757812 L 261.070312 28.871094 L 261.035156 29.003906 L 261.011719 29.152344 L 261.003906 29.316406 L 259.015625 29.316406 L 259.023438 29.109375 L 259.046875 28.910156 L 259.085938 28.71875 L 259.140625 28.53125 L 259.210938 28.355469 L 259.296875 28.183594 L 259.398438 28.023438 L 259.519531 27.867188 L 259.652344 27.71875 L 259.800781 27.578125 L 259.964844 27.449219 L 260.136719 27.332031 L 260.316406 27.226562 L 260.503906 27.136719 L 260.699219 27.0625 L 260.902344 27 L 261.117188 26.953125 L 261.339844 26.917969 L 261.566406 26.898438 L 261.804688 26.890625 L 262.050781 26.898438 L 262.28125 26.917969 L 262.503906 26.949219 L 262.714844 26.996094 L 262.914062 27.054688 L 263.101562 27.125 L 263.277344 27.210938 L 263.441406 27.308594 L 263.597656 27.421875 L 263.738281 27.542969 L 263.871094 27.679688 L 263.988281 27.824219 L 264.089844 27.984375 L 264.179688 28.152344 L 264.253906 28.332031 L 264.316406 28.523438 L 264.367188 28.726562 L 264.398438 28.9375 L 264.421875 29.164062 L 264.429688 29.402344 L 264.429688 32.980469 L 264.433594 33.171875 L 264.445312 33.355469 L 264.457031 33.53125 L 264.480469 33.699219 L 264.503906 33.855469 L 264.535156 34.007812 L 264.570312 34.148438 L 264.613281 34.28125 L 264.65625 34.402344 L 264.710938 34.519531 L 264.710938 34.640625 Z M 261.53125 33.21875 L 261.597656 33.21875 L 261.660156 33.214844 L 261.71875 33.207031 L 261.78125 33.195312 L 261.890625 33.171875 L 261.945312 33.152344 L 261.996094 33.132812 L 262.046875 33.109375 L 262.09375 33.085938 L 262.179688 33.03125 L 262.222656 33 L 262.261719 32.96875 L 262.296875 32.9375 L 262.359375 32.875 L 262.414062 32.804688 L 262.4375 32.769531 L 262.4375 31.1875 L 261.960938 31.1875 L 261.859375 31.191406 L 261.765625 31.199219 L 261.675781 31.214844 L 261.589844 31.238281 L 261.507812 31.265625 L 261.429688 31.304688 L 261.355469 31.34375 L 261.285156 31.394531 L 261.21875 31.449219 L 261.15625 31.511719 L 261.101562 31.578125 L 261.054688 31.648438 L 261.011719 31.722656 L 260.972656 31.804688 L 260.941406 31.886719 L 260.917969 31.976562 L 260.894531 32.070312 L 260.882812 32.167969 L 260.871094 32.269531 L 260.871094 32.375 L 260.875 32.535156 L 260.894531 32.679688 L 260.929688 32.804688 L 260.976562 32.914062 L 261.035156 33.007812 L 261.109375 33.082031 L 261.195312 33.140625 L 261.292969 33.183594 L 261.40625 33.210938 Z M 261.53125 33.21875 "/>
<path style=" stroke:none;fill-rule:nonzero;fill:rgb(3.529412%,3.529412%,3.529412%);fill-opacity:1;" d="M 268.367188 31.828125 L 269.328125 27.03125 L 271.402344 27.03125 L 269.3125 34.640625 L 267.414062 34.640625 L 265.320312 27.03125 L 267.402344 27.03125 Z M 268.367188 31.828125 "/>
<path style=" stroke:none;fill-rule:nonzero;fill:rgb(3.529412%,3.529412%,3.529412%);fill-opacity:1;" d="M 272.097656 30.601562 L 272.105469 30.238281 L 272.125 29.894531 L 272.160156 29.566406 L 272.207031 29.257812 L 272.269531 28.96875 L 272.34375 28.699219 L 272.429688 28.449219 L 272.53125 28.21875 L 272.644531 28.003906 L 272.773438 27.8125 L 272.914062 27.636719 L 273.066406 27.480469 L 273.226562 27.339844 L 273.402344 27.222656 L 273.585938 27.121094 L 273.777344 27.039062 L 273.984375 26.972656 L 274.199219 26.925781 L 274.425781 26.898438 L 274.664062 26.890625 L 274.867188 26.898438 L 275.058594 26.921875 L 275.242188 26.964844 L 275.417969 27.019531 L 275.582031 27.09375 L 275.734375 27.183594 L 275.882812 27.289062 L 276.015625 27.414062 L 276.144531 27.550781 L 276.261719 27.707031 L 276.339844 27.03125 L 278.132812 27.03125 L 278.132812 34.640625 L 278.125 34.921875 L 278.097656 35.195312 L 278.058594 35.449219 L 278 35.691406 L 277.929688 35.921875 L 277.839844 36.136719 L 277.730469 36.339844 L 277.609375 36.527344 L 277.472656 36.699219 L 277.316406 36.859375 L 277.144531 37.007812 L 276.960938 37.140625 L 276.761719 37.253906 L 276.550781 37.355469 L 276.324219 37.441406 L 276.082031 37.511719 L 275.824219 37.566406 L 275.554688 37.601562 L 275.273438 37.625 L 274.976562 37.632812 L 274.847656 37.632812 L 274.722656 37.625 L 274.464844 37.59375 L 274.332031 37.570312 L 274.199219 37.542969 L 274.066406 37.511719 L 273.933594 37.472656 L 273.796875 37.429688 L 273.660156 37.382812 L 273.527344 37.332031 L 273.398438 37.277344 L 273.277344 37.21875 L 273.164062 37.160156 L 273.058594 37.101562 L 272.960938 37.035156 L 272.867188 36.96875 L 272.78125 36.898438 L 272.703125 36.824219 L 272.632812 36.75 L 273.300781 35.371094 L 273.359375 35.429688 L 273.421875 35.484375 L 273.484375 35.535156 L 273.554688 35.589844 L 273.625 35.636719 L 273.699219 35.683594 L 273.777344 35.726562 L 273.859375 35.769531 L 274.03125 35.847656 L 274.210938 35.917969 L 274.296875 35.945312 L 274.46875 35.992188 L 274.554688 36.007812 L 274.636719 36.019531 L 274.722656 36.03125 L 274.800781 36.035156 L 274.882812 36.039062 L 275.011719 36.035156 L 275.136719 36.023438 L 275.25 36.007812 L 275.355469 35.984375 L 275.457031 35.957031 L 275.546875 35.921875 L 275.632812 35.878906 L 275.707031 35.832031 L 275.777344 35.777344 L 275.839844 35.714844 L 275.894531 35.648438 L 275.945312 35.570312 L 275.992188 35.488281 L 276.03125 35.398438 L 276.0625 35.300781 L 276.089844 35.191406 L 276.113281 35.078125 L 276.128906 34.957031 L 276.136719 34.824219 L 276.140625 34.6875 L 276.140625 34.035156 L 276.023438 34.175781 L 275.898438 34.300781 L 275.769531 34.414062 L 275.632812 34.511719 L 275.484375 34.59375 L 275.335938 34.660156 L 275.175781 34.710938 L 275.011719 34.75 L 274.835938 34.773438 L 274.65625 34.78125 L 274.421875 34.769531 L 274.195312 34.742188 L 273.976562 34.695312 L 273.773438 34.628906 L 273.578125 34.542969 L 273.394531 34.441406 L 273.222656 34.316406 L 273.0625 34.175781 L 272.914062 34.015625 L 272.773438 33.835938 L 272.648438 33.640625 L 272.535156 33.425781 L 272.433594 33.199219 L 272.347656 32.953125 L 272.273438 32.695312 L 272.214844 32.417969 L 272.164062 32.128906 L 272.128906 31.824219 L 272.109375 31.503906 L 272.097656 31.164062 Z M 274.089844 31.101562 L 274.089844 31.308594 L 274.101562 31.5 L 274.113281 31.683594 L 274.132812 31.855469 L 274.15625 32.015625 L 274.1875 32.164062 L 274.222656 32.300781 L 274.265625 32.425781 L 274.3125 32.539062 L 274.363281 32.640625 L 274.421875 32.734375 L 274.484375 32.8125 L 274.554688 32.886719 L 274.632812 32.949219 L 274.71875 33 L 274.808594 33.042969 L 274.90625 33.078125 L 275.007812 33.101562 L 275.117188 33.113281 L 275.234375 33.121094 L 275.355469 33.117188 L 275.46875 33.101562 L 275.574219 33.082031 L 275.671875 33.050781 L 275.765625 33.007812 L 275.855469 32.960938 L 275.9375 32.902344 L 276.011719 32.835938 L 276.078125 32.761719 L 276.140625 32.675781 L 276.140625 29.042969 L 276.078125 28.949219 L 276.007812 28.867188 L 275.929688 28.792969 L 275.851562 28.730469 L 275.765625 28.679688 L 275.671875 28.632812 L 275.574219 28.601562 L 275.472656 28.574219 L 275.363281 28.5625 L 275.25 28.558594 L 275.132812 28.5625 L 275.023438 28.574219 L 274.921875 28.601562 L 274.824219 28.632812 L 274.734375 28.679688 L 274.648438 28.730469 L 274.570312 28.792969 L 274.496094 28.867188 L 274.429688 28.949219 L 274.371094 29.042969 L 274.316406 29.144531 L 274.269531 29.257812 L 274.226562 29.386719 L 274.191406 29.523438 L 274.160156 29.675781 L 274.132812 29.835938 L 274.113281 30.011719 L 274.101562 30.195312 L 274.089844 30.394531 Z M 274.089844 31.101562 "/>
<path style=" stroke:none;fill-rule:nonzero;fill:rgb(3.529412%,3.529412%,3.529412%);fill-opacity:1;" d="M 9.191406 120.328125 L 9.191406 123.210938 L 12.960938 123.210938 L 12.960938 124.285156 L 4.429688 124.285156 L 4.429688 119.84375 L 5.355469 119.84375 L 5.355469 123.210938 L 8.273438 123.210938 L 8.273438 120.328125 Z M 9.191406 120.328125 "/>
<path style=" stroke:none;fill-rule:nonzero;fill:rgb(3.529412%,3.529412%,3.529412%);fill-opacity:1;" d="M 7.59375 116.046875 L 7.578125 116.132812 L 7.570312 116.179688 L 7.554688 116.367188 L 7.554688 116.414062 L 7.550781 116.464844 L 7.550781 116.515625 L 7.558594 116.667969 L 7.585938 116.8125 L 7.628906 116.949219 L 7.691406 117.074219 L 7.769531 117.191406 L 7.867188 117.296875 L 7.980469 117.394531 L 8.109375 117.480469 L 8.257812 117.558594 L 8.425781 117.628906 L 12.960938 117.628906 L 12.960938 118.664062 L 6.621094 118.664062 L 6.621094 117.65625 L 7.265625 117.640625 L 7.121094 117.554688 L 6.992188 117.460938 L 6.875 117.359375 L 6.777344 117.25 L 6.695312 117.136719 L 6.625 117.015625 L 6.570312 116.886719 L 6.535156 116.753906 L 6.511719 116.609375 L 6.503906 116.460938 L 6.503906 116.414062 L 6.511719 116.320312 L 6.515625 116.277344 L 6.523438 116.238281 L 6.53125 116.195312 L 6.542969 116.15625 L 6.554688 116.121094 L 6.585938 116.050781 Z M 7.59375 116.046875 "/>
<path style=" stroke:none;fill-rule:nonzero;fill:rgb(3.529412%,3.529412%,3.529412%);fill-opacity:1;" d="M 13.078125 112.746094 L 13.070312 112.976562 L 13.050781 113.199219 L 13.015625 113.40625 L 12.964844 113.605469 L 12.902344 113.792969 L 12.824219 113.96875 L 12.734375 114.132812 L 12.628906 114.289062 L 12.507812 114.429688 L 12.375 114.5625 L 12.226562 114.683594 L 12.0625 114.792969 L 11.890625 114.886719 L 11.703125 114.96875 L 11.5 115.042969 L 11.285156 115.097656 L 11.058594 115.144531 L 10.820312 115.179688 L 10.566406 115.199219 L 10.300781 115.207031 L 9.53125 115.207031 L 9.253906 115.203125 L 8.988281 115.183594 L 8.738281 115.152344 L 8.496094 115.109375 L 8.269531 115.054688 L 8.050781 114.988281 L 7.847656 114.90625 L 7.65625 114.816406 L 7.476562 114.710938 L 7.3125 114.59375 L 7.15625 114.464844 L 7.019531 114.324219 L 6.898438 114.175781 L 6.792969 114.019531 L 6.707031 113.851562 L 6.632812 113.671875 L 6.574219 113.484375 L 6.535156 113.289062 L 6.511719 113.082031 L 6.503906 112.863281 L 6.511719 112.648438 L 6.53125 112.441406 L 6.566406 112.246094 L 6.617188 112.0625 L 6.679688 111.890625 L 6.757812 111.730469 L 6.851562 111.582031 L 6.957031 111.441406 L 7.078125 111.316406 L 7.210938 111.199219 L 7.363281 111.09375 L 7.527344 111 L 7.707031 110.917969 L 7.90625 110.847656 L 8.117188 110.785156 L 8.347656 110.734375 L 8.59375 110.695312 L 8.851562 110.664062 L 9.128906 110.644531 L 9.421875 110.636719 L 10.101562 110.636719 L 10.101562 114.175781 L 10.246094 114.175781 L 10.445312 114.171875 L 10.632812 114.160156 L 10.808594 114.144531 L 10.972656 114.117188 L 11.128906 114.082031 L 11.269531 114.039062 L 11.402344 113.992188 L 11.523438 113.933594 L 11.632812 113.867188 L 11.730469 113.796875 L 11.816406 113.714844 L 11.894531 113.628906 L 11.964844 113.535156 L 12.027344 113.433594 L 12.078125 113.324219 L 12.117188 113.210938 L 12.152344 113.089844 L 12.175781 112.964844 L 12.1875 112.828125 L 12.191406 112.6875 L 12.191406 112.597656 L 12.1875 112.511719 L 12.164062 112.339844 L 12.148438 112.257812 L 12.132812 112.179688 L 12.109375 112.101562 L 12.082031 112.027344 L 12.054688 111.957031 L 12.023438 111.886719 L 11.945312 111.746094 L 11.851562 111.613281 L 11.796875 111.546875 L 11.738281 111.480469 L 11.679688 111.417969 L 11.613281 111.351562 L 11.542969 111.292969 L 11.472656 111.230469 L 12.128906 110.691406 L 12.308594 110.832031 L 12.46875 110.988281 L 12.613281 111.160156 L 12.734375 111.34375 L 12.839844 111.542969 L 12.925781 111.753906 L 12.992188 111.980469 L 13.039062 112.222656 L 13.066406 112.476562 Z M 7.394531 112.863281 L 7.398438 112.988281 L 7.410156 113.109375 L 7.433594 113.222656 L 7.464844 113.328125 L 7.503906 113.425781 L 7.554688 113.519531 L 7.613281 113.601562 L 7.679688 113.683594 L 7.753906 113.753906 L 7.839844 113.820312 L 7.933594 113.878906 L 8.035156 113.933594 L 8.148438 113.980469 L 8.269531 114.023438 L 8.402344 114.0625 L 8.542969 114.09375 L 8.695312 114.121094 L 8.855469 114.144531 L 9.027344 114.160156 L 9.210938 114.171875 L 9.210938 111.675781 L 9.070312 111.675781 L 8.894531 111.6875 L 8.730469 111.703125 L 8.574219 111.722656 L 8.429688 111.746094 L 8.296875 111.777344 L 8.171875 111.8125 L 8.058594 111.851562 L 7.957031 111.898438 L 7.863281 111.949219 L 7.78125 112.003906 L 7.707031 112.0625 L 7.640625 112.128906 L 7.582031 112.199219 L 7.53125 112.277344 L 7.492188 112.359375 L 7.457031 112.449219 L 7.429688 112.542969 L 7.410156 112.644531 L 7.398438 112.75 Z M 7.394531 112.863281 "/>
<path style=" stroke:none;fill-rule:nonzero;fill:rgb(3.529412%,3.529412%,3.529412%);fill-opacity:1;" d="M 9.503906 109.613281 L 9.214844 109.605469 L 8.9375 109.589844 L 8.679688 109.5625 L 8.433594 109.527344 L 8.203125 109.476562 L 7.984375 109.417969 L 7.785156 109.347656 L 7.597656 109.265625 L 7.421875 109.175781 L 7.265625 109.074219 L 7.121094 108.960938 L 6.992188 108.835938 L 6.875 108.703125 L 6.777344 108.558594 L 6.695312 108.402344 L 6.625 108.238281 L 6.570312 108.058594 L 6.535156 107.875 L 6.511719 107.675781 L 6.503906 107.46875 L 6.511719 107.289062 L 6.53125 107.117188 L 6.570312 106.953125 L 6.621094 106.796875 L 6.6875 106.652344 L 6.769531 106.511719 L 6.863281 106.382812 L 6.976562 106.257812 L 7.101562 106.144531 L 7.242188 106.039062 L 6.621094 105.992188 L 6.621094 105.042969 L 15.398438 105.042969 L 15.398438 106.078125 L 12.402344 106.078125 L 12.53125 106.183594 L 12.644531 106.296875 L 12.746094 106.417969 L 12.835938 106.542969 L 12.910156 106.679688 L 12.96875 106.824219 L 13.015625 106.972656 L 13.050781 107.132812 L 13.070312 107.300781 L 13.078125 107.472656 L 13.070312 107.675781 L 13.046875 107.863281 L 13.011719 108.046875 L 12.957031 108.21875 L 12.890625 108.378906 L 12.808594 108.535156 L 12.710938 108.675781 L 12.601562 108.8125 L 12.472656 108.933594 L 12.332031 109.050781 L 12.175781 109.15625 L 12.003906 109.25 L 11.820312 109.332031 L 11.625 109.40625 L 11.414062 109.464844 L 11.1875 109.515625 L 10.949219 109.558594 L 10.699219 109.585938 L 10.433594 109.605469 L 10.152344 109.613281 Z M 10.09375 108.574219 L 10.300781 108.570312 L 10.5 108.5625 L 10.683594 108.546875 L 10.859375 108.523438 L 11.023438 108.492188 L 11.175781 108.457031 L 11.316406 108.414062 L 11.449219 108.367188 L 11.566406 108.308594 L 11.675781 108.246094 L 11.773438 108.179688 L 11.863281 108.101562 L 11.941406 108.015625 L 12.007812 107.921875 L 12.0625 107.824219 L 12.109375 107.714844 L 12.144531 107.597656 L 12.171875 107.476562 L 12.1875 107.34375 L 12.191406 107.203125 L 12.183594 107.0625 L 12.164062 106.925781 L 12.128906 106.796875 L 12.082031 106.675781 L 12.019531 106.558594 L 11.941406 106.449219 L 11.851562 106.347656 L 11.746094 106.25 L 11.628906 106.164062 L 11.496094 106.078125 L 8.097656 106.078125 L 7.964844 106.167969 L 7.84375 106.257812 L 7.738281 106.355469 L 7.648438 106.460938 L 7.570312 106.570312 L 7.507812 106.683594 L 7.457031 106.804688 L 7.421875 106.929688 L 7.402344 107.0625 L 7.394531 107.199219 L 7.398438 107.335938 L 7.414062 107.46875 L 7.441406 107.59375 L 7.476562 107.707031 L 7.523438 107.816406 L 7.578125 107.917969 L 7.644531 108.007812 L 7.722656 108.09375 L 7.8125 108.171875 L 7.910156 108.242188 L 8.015625 108.304688 L 8.136719 108.359375 L 8.265625 108.410156 L 8.40625 108.453125 L 8.554688 108.488281 L 8.714844 108.519531 L 8.886719 108.542969 L 9.066406 108.558594 L 9.257812 108.570312 L 9.460938 108.574219 Z M 10.09375 108.574219 "/>
<path style=" stroke:none;fill-rule:nonzero;fill:rgb(3.529412%,3.529412%,3.529412%);fill-opacity:1;" d="M 12.402344 100.15625 L 12.53125 100.261719 L 12.644531 100.378906 L 12.746094 100.507812 L 12.835938 100.644531 L 12.910156 100.789062 L 12.96875 100.945312 L 13.015625 101.109375 L 13.050781 101.285156 L 13.070312 101.46875 L 13.078125 101.660156 L 13.070312 101.828125 L 13.054688 101.988281 L 13.023438 102.140625 L 12.984375 102.28125 L 12.929688 102.417969 L 12.863281 102.542969 L 12.789062 102.660156 L 12.699219 102.769531 L 12.597656 102.871094 L 12.484375 102.960938 L 12.359375 103.046875 L 12.226562 103.121094 L 12.078125 103.1875 L 11.921875 103.246094 L 11.753906 103.292969 L 11.574219 103.332031 L 11.382812 103.363281 L 11.183594 103.386719 L 10.972656 103.402344 L 10.75 103.40625 L 6.621094 103.40625 L 6.621094 102.375 L 10.675781 102.375 L 10.957031 102.367188 L 11.207031 102.339844 L 11.429688 102.296875 L 11.625 102.234375 L 11.785156 102.152344 L 11.921875 102.054688 L 12.023438 101.941406 L 12.097656 101.804688 L 12.140625 101.65625 L 12.15625 101.484375 L 12.148438 101.304688 L 12.125 101.132812 L 12.082031 100.972656 L 12.023438 100.824219 L 11.945312 100.6875 L 11.851562 100.566406 L 11.742188 100.453125 L 11.617188 100.351562 L 11.472656 100.261719 L 11.3125 100.183594 L 6.621094 100.183594 L 6.621094 99.148438 L 12.960938 99.148438 L 12.960938 100.132812 Z M 12.402344 100.15625 "/>
<path style=" stroke:none;fill-rule:nonzero;fill:rgb(3.529412%,3.529412%,3.529412%);fill-opacity:1;" d="M 13.078125 95.320312 L 13.070312 95.550781 L 13.050781 95.773438 L 13.015625 95.980469 L 12.964844 96.179688 L 12.902344 96.367188 L 12.824219 96.542969 L 12.734375 96.707031 L 12.628906 96.863281 L 12.507812 97.003906 L 12.375 97.136719 L 12.226562 97.257812 L 12.0625 97.367188 L 11.890625 97.460938 L 11.703125 97.542969 L 11.5 97.617188 L 11.285156 97.671875 L 11.058594 97.71875 L 10.820312 97.753906 L 10.566406 97.773438 L 10.300781 97.78125 L 9.53125 97.78125 L 9.253906 97.777344 L 8.988281 97.757812 L 8.738281 97.726562 L 8.496094 97.683594 L 8.269531 97.628906 L 8.050781 97.5625 L 7.847656 97.480469 L 7.65625 97.390625 L 7.476562 97.285156 L 7.3125 97.167969 L 7.15625 97.039062 L 7.019531 96.898438 L 6.898438 96.75 L 6.792969 96.59375 L 6.707031 96.425781 L 6.632812 96.246094 L 6.574219 96.058594 L 6.535156 95.863281 L 6.511719 95.65625 L 6.503906 95.4375 L 6.511719 95.222656 L 6.53125 95.015625 L 6.566406 94.820312 L 6.617188 94.636719 L 6.679688 94.464844 L 6.757812 94.304688 L 6.851562 94.15625 L 6.957031 94.015625 L 7.078125 93.890625 L 7.210938 93.773438 L 7.363281 93.667969 L 7.527344 93.574219 L 7.707031 93.492188 L 7.90625 93.421875 L 8.117188 93.359375 L 8.347656 93.308594 L 8.59375 93.269531 L 8.851562 93.238281 L 9.128906 93.21875 L 9.421875 93.210938 L 10.101562 93.210938 L 10.101562 96.75 L 10.246094 96.75 L 10.445312 96.746094 L 10.632812 96.734375 L 10.808594 96.71875 L 10.972656 96.691406 L 11.128906 96.65625 L 11.269531 96.613281 L 11.402344 96.566406 L 11.523438 96.507812 L 11.632812 96.441406 L 11.730469 96.371094 L 11.816406 96.289062 L 11.894531 96.203125 L 11.964844 96.109375 L 12.027344 96.007812 L 12.078125 95.898438 L 12.117188 95.785156 L 12.152344 95.664062 L 12.175781 95.539062 L 12.1875 95.402344 L 12.191406 95.261719 L 12.191406 95.171875 L 12.1875 95.085938 L 12.164062 94.914062 L 12.148438 94.832031 L 12.132812 94.753906 L 12.109375 94.675781 L 12.082031 94.601562 L 12.054688 94.53125 L 12.023438 94.460938 L 11.945312 94.320312 L 11.851562 94.1875 L 11.796875 94.121094 L 11.738281 94.054688 L 11.679688 93.992188 L 11.613281 93.925781 L 11.542969 93.867188 L 11.472656 93.804688 L 12.128906 93.265625 L 12.308594 93.40625 L 12.46875 93.5625 L 12.613281 93.734375 L 12.734375 93.917969 L 12.839844 94.117188 L 12.925781 94.328125 L 12.992188 94.554688 L 13.039062 94.796875 L 13.066406 95.050781 Z M 7.394531 95.4375 L 7.398438 95.5625 L 7.410156 95.683594 L 7.433594 95.796875 L 7.464844 95.902344 L 7.503906 96 L 7.554688 96.09375 L 7.613281 96.175781 L 7.679688 96.257812 L 7.753906 96.328125 L 7.839844 96.394531 L 7.933594 96.453125 L 8.035156 96.507812 L 8.148438 96.554688 L 8.269531 96.597656 L 8.402344 96.636719 L 8.542969 96.667969 L 8.695312 96.695312 L 8.855469 96.71875 L 9.027344 96.734375 L 9.210938 96.746094 L 9.210938 94.25 L 9.070312 94.25 L 8.894531 94.261719 L 8.730469 94.277344 L 8.574219 94.296875 L 8.429688 94.320312 L 8.296875 94.351562 L 8.171875 94.386719 L 8.058594 94.425781 L 7.957031 94.472656 L 7.863281 94.523438 L 7.78125 94.578125 L 7.707031 94.636719 L 7.640625 94.703125 L 7.582031 94.773438 L 7.53125 94.851562 L 7.492188 94.933594 L 7.457031 95.023438 L 7.429688 95.117188 L 7.410156 95.21875 L 7.398438 95.324219 Z M 7.394531 95.4375 "/>
<path style=" stroke:none;fill-rule:nonzero;fill:rgb(3.529412%,3.529412%,3.529412%);fill-opacity:1;" d="M 6.621094 90.992188 L 7.304688 90.960938 L 7.152344 90.839844 L 7.015625 90.707031 L 6.894531 90.570312 L 6.792969 90.425781 L 6.703125 90.273438 L 6.632812 90.117188 L 6.574219 89.953125 L 6.535156 89.78125 L 6.511719 89.605469 L 6.503906 89.421875 L 6.527344 89.101562 L 6.59375 88.816406 L 6.703125 88.5625 L 6.863281 88.339844 L 7.0625 88.152344 L 7.3125 88 L 7.601562 87.878906 L 7.9375 87.792969 L 8.320312 87.738281 L 8.746094 87.714844 L 12.960938 87.714844 L 12.960938 88.746094 L 8.792969 88.746094 L 8.648438 88.75 L 8.511719 88.757812 L 8.386719 88.769531 L 8.269531 88.789062 L 8.160156 88.808594 L 8.058594 88.839844 L 7.964844 88.871094 L 7.878906 88.910156 L 7.804688 88.953125 L 7.738281 89 L 7.679688 89.050781 L 7.625 89.109375 L 7.578125 89.167969 L 7.535156 89.238281 L 7.503906 89.308594 L 7.472656 89.386719 L 7.453125 89.46875 L 7.433594 89.554688 L 7.425781 89.644531 L 7.421875 89.742188 L 7.425781 89.820312 L 7.433594 89.894531 L 7.445312 89.96875 L 7.464844 90.039062 L 7.488281 90.109375 L 7.515625 90.179688 L 7.585938 90.3125 L 7.632812 90.378906 L 7.679688 90.441406 L 7.789062 90.558594 L 7.851562 90.613281 L 7.976562 90.714844 L 8.046875 90.765625 L 8.195312 90.851562 L 8.273438 90.894531 L 8.355469 90.933594 L 12.960938 90.933594 L 12.960938 91.96875 L 6.621094 91.96875 Z M 6.621094 90.992188 "/>
<path style=" stroke:none;fill-rule:nonzero;fill:rgb(3.529412%,3.529412%,3.529412%);fill-opacity:1;" d="M 12.191406 83.960938 L 12.1875 83.859375 L 12.179688 83.761719 L 12.164062 83.667969 L 12.140625 83.582031 L 12.113281 83.496094 L 12.078125 83.414062 L 12.039062 83.339844 L 11.988281 83.265625 L 11.9375 83.199219 L 11.875 83.132812 L 11.808594 83.074219 L 11.734375 83.019531 L 11.660156 82.972656 L 11.574219 82.929688 L 11.488281 82.894531 L 11.390625 82.863281 L 11.292969 82.835938 L 11.1875 82.816406 L 11.078125 82.804688 L 10.960938 82.792969 L 10.960938 81.816406 L 11.140625 81.828125 L 11.316406 81.851562 L 11.484375 81.890625 L 11.644531 81.9375 L 11.796875 81.996094 L 11.945312 82.066406 L 12.089844 82.148438 L 12.226562 82.242188 L 12.355469 82.347656 L 12.480469 82.464844 L 12.59375 82.589844 L 12.695312 82.722656 L 12.785156 82.855469 L 12.863281 82.996094 L 12.929688 83.144531 L 12.980469 83.296875 L 13.023438 83.453125 L 13.054688 83.617188 L 13.070312 83.785156 L 13.078125 83.960938 L 13.070312 84.191406 L 13.046875 84.410156 L 13.011719 84.617188 L 12.960938 84.8125 L 12.894531 85 L 12.8125 85.171875 L 12.714844 85.335938 L 12.605469 85.488281 L 12.480469 85.628906 L 12.339844 85.757812 L 12.183594 85.875 L 12.011719 85.980469 L 11.828125 86.074219 L 11.628906 86.152344 L 11.414062 86.21875 L 11.1875 86.277344 L 10.945312 86.320312 L 10.6875 86.351562 L 10.414062 86.367188 L 10.128906 86.375 L 9.433594 86.375 L 9.152344 86.367188 L 8.886719 86.351562 L 8.632812 86.320312 L 8.394531 86.277344 L 8.171875 86.21875 L 7.957031 86.152344 L 7.761719 86.074219 L 7.578125 85.980469 L 7.410156 85.875 L 7.253906 85.757812 L 7.109375 85.628906 L 6.984375 85.492188 L 6.871094 85.339844 L 6.773438 85.175781 L 6.691406 85.003906 L 6.621094 84.816406 L 6.570312 84.621094 L 6.53125 84.414062 L 6.511719 84.195312 L 6.503906 83.964844 L 6.507812 83.777344 L 6.527344 83.59375 L 6.558594 83.417969 L 6.601562 83.253906 L 6.65625 83.09375 L 6.722656 82.945312 L 6.804688 82.800781 L 6.898438 82.667969 L 7 82.542969 L 7.117188 82.425781 L 7.246094 82.316406 L 7.382812 82.21875 L 7.527344 82.128906 L 7.683594 82.050781 L 7.847656 81.984375 L 8.019531 81.929688 L 8.199219 81.886719 L 8.390625 81.851562 L 8.589844 81.828125 L 8.800781 81.816406 L 8.800781 82.792969 L 8.664062 82.804688 L 8.53125 82.820312 L 8.410156 82.839844 L 8.292969 82.867188 L 8.183594 82.898438 L 8.082031 82.933594 L 7.988281 82.976562 L 7.898438 83.023438 L 7.820312 83.074219 L 7.746094 83.132812 L 7.679688 83.195312 L 7.617188 83.261719 L 7.566406 83.335938 L 7.519531 83.410156 L 7.480469 83.492188 L 7.449219 83.578125 L 7.425781 83.667969 L 7.40625 83.761719 L 7.398438 83.863281 L 7.394531 83.964844 L 7.398438 84.101562 L 7.410156 84.226562 L 7.433594 84.347656 L 7.464844 84.460938 L 7.507812 84.566406 L 7.558594 84.667969 L 7.617188 84.757812 L 7.6875 84.84375 L 7.765625 84.921875 L 7.851562 84.992188 L 7.945312 85.054688 L 8.054688 85.113281 L 8.175781 85.164062 L 8.304688 85.207031 L 8.449219 85.246094 L 8.601562 85.277344 L 8.769531 85.300781 L 8.949219 85.320312 L 9.136719 85.332031 L 9.339844 85.335938 L 10.148438 85.335938 L 10.363281 85.332031 L 10.570312 85.324219 L 10.761719 85.308594 L 10.9375 85.285156 L 11.101562 85.253906 L 11.253906 85.21875 L 11.394531 85.175781 L 11.519531 85.128906 L 11.628906 85.070312 L 11.730469 85.007812 L 11.816406 84.9375 L 11.894531 84.859375 L 11.964844 84.773438 L 12.027344 84.679688 L 12.078125 84.578125 L 12.117188 84.472656 L 12.152344 84.355469 L 12.175781 84.230469 L 12.1875 84.097656 Z M 12.191406 83.960938 "/>
<path style=" stroke:none;fill-rule:nonzero;fill:rgb(3.529412%,3.529412%,3.529412%);fill-opacity:1;" d="M 11.238281 78.886719 L 6.621094 77.730469 L 6.621094 76.628906 L 13.855469 78.703125 L 14.015625 78.753906 L 14.167969 78.804688 L 14.308594 78.863281 L 14.445312 78.921875 L 14.574219 78.988281 L 14.691406 79.054688 L 14.804688 79.128906 L 14.910156 79.203125 L 15.003906 79.28125 L 15.09375 79.367188 L 15.175781 79.453125 L 15.246094 79.542969 L 15.3125 79.632812 L 15.367188 79.726562 L 15.414062 79.824219 L 15.453125 79.921875 L 15.480469 80.023438 L 15.503906 80.125 L 15.515625 80.230469 L 15.519531 80.339844 L 15.519531 80.382812 L 15.511719 80.476562 L 15.496094 80.578125 L 15.488281 80.632812 L 15.472656 80.691406 L 15.460938 80.75 L 15.445312 80.8125 L 15.425781 80.878906 L 14.546875 80.878906 L 14.570312 80.648438 L 14.570312 80.5625 L 14.5625 80.476562 L 14.550781 80.398438 L 14.535156 80.320312 L 14.515625 80.25 L 14.492188 80.179688 L 14.464844 80.117188 L 14.433594 80.054688 L 14.355469 79.945312 L 14.308594 79.894531 L 14.257812 79.847656 L 14.199219 79.800781 L 14.136719 79.757812 L 14.066406 79.714844 L 13.988281 79.671875 L 13.902344 79.632812 L 13.816406 79.597656 L 13.71875 79.5625 L 13.617188 79.53125 L 12.90625 79.324219 L 6.621094 81.1875 L 6.621094 80.058594 Z M 11.238281 78.886719 "/>
<path style="fill:none;stroke-width:0.75;stroke-linecap:round;stroke-linejoin:round;stroke:rgb(3.529412%,3.529412%,3.529412%);stroke-opacity:1;stroke-miterlimit:10;" d="M 126.761719 142.558594 L 388.582031 142.558594 "/>
<path style="fill:none;stroke-width:0.75;stroke-linecap:round;stroke-linejoin:round;stroke:rgb(3.529412%,3.529412%,3.529412%);stroke-opacity:1;stroke-miterlimit:10;" d="M 126.761719 142.558594 L 126.761719 149.761719 "/>
<path style="fill:none;stroke-width:0.75;stroke-linecap:round;stroke-linejoin:round;stroke:rgb(3.529412%,3.529412%,3.529412%);stroke-opacity:1;stroke-miterlimit:10;" d="M 214.035156 142.558594 L 214.035156 149.761719 "/>
<path style="fill:none;stroke-width:0.75;stroke-linecap:round;stroke-linejoin:round;stroke:rgb(3.529412%,3.529412%,3.529412%);stroke-opacity:1;stroke-miterlimit:10;" d="M 301.308594 142.558594 L 301.308594 149.761719 "/>
<path style="fill:none;stroke-width:0.75;stroke-linecap:round;stroke-linejoin:round;stroke:rgb(3.529412%,3.529412%,3.529412%);stroke-opacity:1;stroke-miterlimit:10;" d="M 388.582031 142.558594 L 388.582031 149.761719 "/>
<path style=" stroke:none;fill-rule:nonzero;fill:rgb(3.529412%,3.529412%,3.529412%);fill-opacity:1;" d="M 129.046875 164.839844 L 129.039062 165.210938 L 129.023438 165.558594 L 128.996094 165.886719 L 128.957031 166.199219 L 128.90625 166.492188 L 128.847656 166.765625 L 128.777344 167.019531 L 128.695312 167.253906 L 128.601562 167.46875 L 128.496094 167.664062 L 128.378906 167.84375 L 128.25 168 L 128.109375 168.140625 L 127.953125 168.261719 L 127.789062 168.363281 L 127.609375 168.449219 L 127.417969 168.511719 L 127.210938 168.558594 L 126.996094 168.585938 L 126.765625 168.597656 L 126.542969 168.589844 L 126.332031 168.5625 L 126.132812 168.515625 L 125.945312 168.453125 L 125.769531 168.375 L 125.605469 168.273438 L 125.453125 168.15625 L 125.308594 168.023438 L 125.179688 167.871094 L 125.0625 167.699219 L 124.953125 167.511719 L 124.859375 167.304688 L 124.773438 167.082031 L 124.699219 166.839844 L 124.632812 166.578125 L 124.582031 166.300781 L 124.539062 166.003906 L 124.507812 165.6875 L 124.484375 165.355469 L 124.476562 165.003906 L 124.476562 163.539062 L 124.480469 163.175781 L 124.496094 162.832031 L 124.523438 162.503906 L 124.5625 162.195312 L 124.613281 161.910156 L 124.675781 161.640625 L 124.746094 161.390625 L 124.828125 161.15625 L 124.921875 160.945312 L 125.027344 160.75 L 125.144531 160.578125 L 125.273438 160.421875 L 125.414062 160.28125 L 125.570312 160.164062 L 125.738281 160.0625 L 125.914062 159.980469 L 126.105469 159.914062 L 126.3125 159.867188 L 126.527344 159.839844 L 126.753906 159.832031 L 126.980469 159.839844 L 127.191406 159.867188 L 127.394531 159.910156 L 127.582031 159.972656 L 127.757812 160.050781 L 127.921875 160.144531 L 128.074219 160.257812 L 128.214844 160.390625 L 128.34375 160.539062 L 128.460938 160.703125 L 128.566406 160.886719 L 128.660156 161.089844 L 128.746094 161.308594 L 128.820312 161.546875 L 128.882812 161.800781 L 128.9375 162.074219 L 128.980469 162.367188 L 129.011719 162.675781 L 129.035156 163.003906 L 129.046875 163.347656 Z M 128.007812 163.359375 L 128.003906 163.09375 L 127.996094 162.847656 L 127.980469 162.609375 L 127.960938 162.390625 L 127.933594 162.183594 L 127.902344 161.992188 L 127.863281 161.8125 L 127.816406 161.652344 L 127.765625 161.5 L 127.710938 161.367188 L 127.648438 161.246094 L 127.574219 161.132812 L 127.5 161.039062 L 127.414062 160.953125 L 127.320312 160.882812 L 127.222656 160.824219 L 127.117188 160.78125 L 127.003906 160.746094 L 126.882812 160.730469 L 126.753906 160.722656 L 126.628906 160.730469 L 126.511719 160.746094 L 126.402344 160.777344 L 126.296875 160.824219 L 126.199219 160.878906 L 126.109375 160.949219 L 126.027344 161.03125 L 125.949219 161.128906 L 125.878906 161.234375 L 125.816406 161.355469 L 125.761719 161.488281 L 125.710938 161.632812 L 125.664062 161.789062 L 125.625 161.960938 L 125.589844 162.144531 L 125.5625 162.339844 L 125.539062 162.546875 L 125.523438 162.769531 L 125.511719 163.003906 L 125.507812 163.253906 L 125.507812 165.011719 L 125.511719 165.273438 L 125.519531 165.523438 L 125.535156 165.757812 L 125.554688 165.984375 L 125.585938 166.191406 L 125.617188 166.386719 L 125.660156 166.570312 L 125.707031 166.738281 L 125.757812 166.894531 L 125.816406 167.039062 L 125.882812 167.167969 L 125.953125 167.28125 L 126.035156 167.382812 L 126.117188 167.46875 L 126.210938 167.542969 L 126.308594 167.605469 L 126.414062 167.652344 L 126.523438 167.683594 L 126.640625 167.707031 L 126.765625 167.710938 L 126.890625 167.707031 L 127.007812 167.6875 L 127.117188 167.65625 L 127.21875 167.609375 L 127.316406 167.554688 L 127.40625 167.484375 L 127.488281 167.398438 L 127.566406 167.304688 L 127.636719 167.195312 L 127.699219 167.074219 L 127.753906 166.9375 L 127.804688 166.792969 L 127.851562 166.628906 L 127.890625 166.453125 L 127.925781 166.265625 L 127.953125 166.066406 L 127.976562 165.847656 L 127.992188 165.621094 L 128.003906 165.378906 L 128.007812 165.121094 Z M 128.007812 163.359375 "/>
<path style=" stroke:none;fill-rule:nonzero;fill:rgb(3.529412%,3.529412%,3.529412%);fill-opacity:1;" d="M 211.886719 168.480469 L 210.84375 168.480469 L 210.84375 161.253906 L 209.050781 162.058594 L 209.050781 161.074219 L 211.722656 159.90625 L 211.886719 159.90625 Z M 211.886719 168.480469 "/>
<path style=" stroke:none;fill-rule:nonzero;fill:rgb(3.529412%,3.529412%,3.529412%);fill-opacity:1;" d="M 219.28125 164.839844 L 219.273438 165.210938 L 219.257812 165.558594 L 219.230469 165.886719 L 219.191406 166.199219 L 219.144531 166.492188 L 219.082031 166.765625 L 219.011719 167.019531 L 218.929688 167.253906 L 218.835938 167.46875 L 218.730469 167.664062 L 218.613281 167.84375 L 218.484375 168 L 218.34375 168.140625 L 218.1875 168.261719 L 218.023438 168.363281 L 217.84375 168.449219 L 217.652344 168.511719 L 217.445312 168.558594 L 217.230469 168.585938 L 217 168.597656 L 216.777344 168.589844 L 216.566406 168.5625 L 216.367188 168.515625 L 216.179688 168.453125 L 216.003906 168.375 L 215.839844 168.273438 L 215.6875 168.15625 L 215.542969 168.023438 L 215.414062 167.871094 L 215.296875 167.699219 L 215.1875 167.511719 L 215.09375 167.304688 L 215.007812 167.082031 L 214.933594 166.839844 L 214.867188 166.578125 L 214.816406 166.300781 L 214.773438 166.003906 L 214.742188 165.6875 L 214.71875 165.355469 L 214.710938 165.003906 L 214.710938 163.539062 L 214.714844 163.175781 L 214.730469 162.832031 L 214.757812 162.503906 L 214.796875 162.195312 L 214.847656 161.910156 L 214.910156 161.640625 L 214.980469 161.390625 L 215.0625 161.15625 L 215.15625 160.945312 L 215.261719 160.75 L 215.378906 160.578125 L 215.507812 160.421875 L 215.648438 160.28125 L 215.804688 160.164062 L 215.972656 160.0625 L 216.152344 159.980469 L 216.339844 159.914062 L 216.546875 159.867188 L 216.761719 159.839844 L 216.988281 159.832031 L 217.214844 159.839844 L 217.425781 159.867188 L 217.628906 159.910156 L 217.816406 159.972656 L 217.992188 160.050781 L 218.15625 160.144531 L 218.308594 160.257812 L 218.449219 160.390625 L 218.578125 160.539062 L 218.695312 160.703125 L 218.800781 160.886719 L 218.894531 161.089844 L 218.980469 161.308594 L 219.054688 161.546875 L 219.121094 161.800781 L 219.171875 162.074219 L 219.214844 162.367188 L 219.246094 162.675781 L 219.269531 163.003906 L 219.28125 163.347656 Z M 218.242188 163.359375 L 218.242188 163.09375 L 218.230469 162.847656 L 218.214844 162.609375 L 218.195312 162.390625 L 218.167969 162.183594 L 218.136719 161.992188 L 218.097656 161.8125 L 218.050781 161.652344 L 218 161.5 L 217.945312 161.367188 L 217.882812 161.246094 L 217.8125 161.132812 L 217.734375 161.039062 L 217.648438 160.953125 L 217.554688 160.882812 L 217.457031 160.824219 L 217.351562 160.78125 L 217.238281 160.746094 L 217.117188 160.730469 L 216.988281 160.722656 L 216.863281 160.730469 L 216.746094 160.746094 L 216.636719 160.777344 L 216.53125 160.824219 L 216.4375 160.878906 L 216.34375 160.949219 L 216.261719 161.03125 L 216.183594 161.128906 L 216.113281 161.234375 L 216.050781 161.355469 L 215.996094 161.488281 L 215.945312 161.632812 L 215.898438 161.789062 L 215.859375 161.960938 L 215.824219 162.144531 L 215.796875 162.339844 L 215.773438 162.546875 L 215.757812 162.769531 L 215.746094 163.003906 L 215.742188 163.253906 L 215.742188 165.011719 L 215.746094 165.273438 L 215.753906 165.523438 L 215.769531 165.757812 L 215.792969 165.984375 L 215.820312 166.191406 L 215.851562 166.386719 L 215.894531 166.570312 L 215.941406 166.738281 L 215.992188 166.894531 L 216.050781 167.039062 L 216.117188 167.167969 L 216.1875 167.28125 L 216.269531 167.382812 L 216.351562 167.46875 L 216.445312 167.542969 L 216.542969 167.605469 L 216.648438 167.652344 L 216.757812 167.683594 L 216.875 167.707031 L 217 167.710938 L 217.125 167.707031 L 217.242188 167.6875 L 217.351562 167.65625 L 217.453125 167.609375 L 217.550781 167.554688 L 217.640625 167.484375 L 217.722656 167.398438 L 217.800781 167.304688 L 217.871094 167.195312 L 217.933594 167.074219 L 217.988281 166.9375 L 218.039062 166.792969 L 218.085938 166.628906 L 218.125 166.453125 L 218.160156 166.265625 L 218.1875 166.066406 L 218.210938 165.847656 L 218.226562 165.621094 L 218.238281 165.378906 L 218.242188 165.121094 Z M 218.242188 163.359375 "/>
<path style=" stroke:none;fill-rule:nonzero;fill:rgb(3.529412%,3.529412%,3.529412%);fill-opacity:1;" d="M 300.839844 168.480469 L 296.070312 168.480469 L 296.070312 167.699219 L 298.503906 164.476562 L 298.609375 164.332031 L 298.710938 164.191406 L 298.800781 164.054688 L 298.890625 163.925781 L 298.96875 163.800781 L 299.042969 163.683594 L 299.105469 163.566406 L 299.167969 163.460938 L 299.21875 163.355469 L 299.265625 163.257812 L 299.304688 163.164062 L 299.34375 163.066406 L 299.375 162.964844 L 299.402344 162.867188 L 299.425781 162.765625 L 299.445312 162.664062 L 299.460938 162.5625 L 299.472656 162.457031 L 299.480469 162.351562 L 299.480469 162.246094 L 299.476562 162.113281 L 299.46875 161.984375 L 299.453125 161.859375 L 299.429688 161.742188 L 299.402344 161.628906 L 299.367188 161.523438 L 299.324219 161.421875 L 299.277344 161.324219 L 299.226562 161.230469 L 299.164062 161.144531 L 299.097656 161.0625 L 299.03125 160.992188 L 298.957031 160.929688 L 298.878906 160.875 L 298.796875 160.828125 L 298.714844 160.789062 L 298.625 160.761719 L 298.53125 160.738281 L 298.433594 160.726562 L 298.332031 160.722656 L 298.207031 160.726562 L 298.085938 160.742188 L 297.96875 160.761719 L 297.859375 160.792969 L 297.753906 160.835938 L 297.65625 160.882812 L 297.566406 160.941406 L 297.480469 161.011719 L 297.398438 161.085938 L 297.324219 161.171875 L 297.257812 161.265625 L 297.199219 161.367188 L 297.144531 161.476562 L 297.101562 161.59375 L 297.0625 161.71875 L 297.03125 161.851562 L 297.003906 161.992188 L 296.988281 162.140625 L 296.976562 162.296875 L 296.972656 162.460938 L 295.9375 162.460938 L 295.941406 162.230469 L 295.960938 162.007812 L 295.992188 161.796875 L 296.039062 161.59375 L 296.097656 161.398438 L 296.167969 161.210938 L 296.25 161.035156 L 296.347656 160.867188 L 296.457031 160.707031 L 296.582031 160.558594 L 296.714844 160.421875 L 296.855469 160.296875 L 297.007812 160.1875 L 297.171875 160.09375 L 297.339844 160.011719 L 297.519531 159.949219 L 297.710938 159.898438 L 297.90625 159.859375 L 298.117188 159.839844 L 298.332031 159.832031 L 298.53125 159.835938 L 298.722656 159.855469 L 298.90625 159.886719 L 299.078125 159.933594 L 299.242188 159.988281 L 299.398438 160.058594 L 299.546875 160.140625 L 299.6875 160.234375 L 299.816406 160.339844 L 299.9375 160.457031 L 300.050781 160.585938 L 300.148438 160.722656 L 300.238281 160.867188 L 300.3125 161.023438 L 300.378906 161.183594 L 300.429688 161.355469 L 300.472656 161.53125 L 300.5 161.71875 L 300.519531 161.914062 L 300.523438 162.117188 L 300.511719 162.375 L 300.472656 162.640625 L 300.40625 162.917969 L 300.3125 163.203125 L 300.195312 163.5 L 300.050781 163.800781 L 299.878906 164.117188 L 299.679688 164.4375 L 299.457031 164.769531 L 299.207031 165.109375 L 297.308594 167.59375 L 300.839844 167.59375 Z M 300.839844 168.480469 "/>
<path style=" stroke:none;fill-rule:nonzero;fill:rgb(3.529412%,3.529412%,3.529412%);fill-opacity:1;" d="M 306.554688 164.839844 L 306.546875 165.210938 L 306.53125 165.558594 L 306.503906 165.886719 L 306.464844 166.199219 L 306.414062 166.492188 L 306.355469 166.765625 L 306.285156 167.019531 L 306.199219 167.253906 L 306.105469 167.46875 L 306.003906 167.664062 L 305.886719 167.84375 L 305.757812 168 L 305.617188 168.140625 L 305.460938 168.261719 L 305.296875 168.363281 L 305.117188 168.449219 L 304.925781 168.511719 L 304.71875 168.558594 L 304.503906 168.585938 L 304.273438 168.597656 L 304.050781 168.589844 L 303.839844 168.5625 L 303.640625 168.515625 L 303.453125 168.453125 L 303.277344 168.375 L 303.113281 168.273438 L 302.957031 168.15625 L 302.816406 168.023438 L 302.6875 167.871094 L 302.570312 167.699219 L 302.460938 167.511719 L 302.367188 167.304688 L 302.28125 167.082031 L 302.207031 166.839844 L 302.140625 166.578125 L 302.089844 166.300781 L 302.046875 166.003906 L 302.015625 165.6875 L 301.992188 165.355469 L 301.984375 165.003906 L 301.984375 163.539062 L 301.988281 163.175781 L 302.003906 162.832031 L 302.03125 162.503906 L 302.070312 162.195312 L 302.121094 161.910156 L 302.179688 161.640625 L 302.253906 161.390625 L 302.335938 161.15625 L 302.429688 160.945312 L 302.535156 160.75 L 302.652344 160.578125 L 302.78125 160.421875 L 302.921875 160.28125 L 303.078125 160.164062 L 303.246094 160.0625 L 303.421875 159.980469 L 303.613281 159.914062 L 303.816406 159.867188 L 304.035156 159.839844 L 304.261719 159.832031 L 304.488281 159.839844 L 304.699219 159.867188 L 304.902344 159.910156 L 305.089844 159.972656 L 305.265625 160.050781 L 305.429688 160.144531 L 305.582031 160.257812 L 305.722656 160.390625 L 305.851562 160.539062 L 305.96875 160.703125 L 306.074219 160.886719 L 306.167969 161.089844 L 306.253906 161.308594 L 306.328125 161.546875 L 306.390625 161.800781 L 306.445312 162.074219 L 306.488281 162.367188 L 306.519531 162.675781 L 306.542969 163.003906 L 306.554688 163.347656 Z M 305.515625 163.359375 L 305.511719 163.09375 L 305.503906 162.847656 L 305.488281 162.609375 L 305.46875 162.390625 L 305.441406 162.183594 L 305.410156 161.992188 L 305.371094 161.8125 L 305.324219 161.652344 L 305.273438 161.5 L 305.21875 161.367188 L 305.152344 161.246094 L 305.082031 161.132812 L 305.003906 161.039062 L 304.921875 160.953125 L 304.828125 160.882812 L 304.730469 160.824219 L 304.625 160.78125 L 304.511719 160.746094 L 304.390625 160.730469 L 304.261719 160.722656 L 304.136719 160.730469 L 304.019531 160.746094 L 303.910156 160.777344 L 303.804688 160.824219 L 303.707031 160.878906 L 303.617188 160.949219 L 303.535156 161.03125 L 303.457031 161.128906 L 303.386719 161.234375 L 303.324219 161.355469 L 303.269531 161.488281 L 303.214844 161.632812 L 303.171875 161.789062 L 303.132812 161.960938 L 303.097656 162.144531 L 303.070312 162.339844 L 303.046875 162.546875 L 303.03125 162.769531 L 303.019531 163.003906 L 303.015625 163.253906 L 303.015625 165.273438 L 303.027344 165.523438 L 303.042969 165.757812 L 303.0625 165.984375 L 303.09375 166.191406 L 303.125 166.386719 L 303.167969 166.570312 L 303.214844 166.738281 L 303.265625 166.894531 L 303.324219 167.039062 L 303.390625 167.167969 L 303.460938 167.28125 L 303.539062 167.382812 L 303.625 167.46875 L 303.71875 167.542969 L 303.816406 167.605469 L 303.921875 167.652344 L 304.03125 167.683594 L 304.148438 167.707031 L 304.273438 167.710938 L 304.398438 167.707031 L 304.515625 167.6875 L 304.625 167.65625 L 304.726562 167.609375 L 304.824219 167.554688 L 304.914062 167.484375 L 304.996094 167.398438 L 305.074219 167.304688 L 305.140625 167.195312 L 305.207031 167.074219 L 305.261719 166.9375 L 305.3125 166.792969 L 305.359375 166.628906 L 305.398438 166.453125 L 305.433594 166.265625 L 305.460938 166.066406 L 305.484375 165.847656 L 305.5 165.621094 L 305.511719 165.378906 L 305.515625 165.121094 Z M 305.515625 163.359375 "/>
<path style=" stroke:none;fill-rule:nonzero;fill:rgb(3.529412%,3.529412%,3.529412%);fill-opacity:1;" d="M 384.667969 163.6875 L 385.328125 163.6875 L 385.453125 163.683594 L 385.574219 163.671875 L 385.6875 163.652344 L 385.792969 163.625 L 385.894531 163.589844 L 385.992188 163.546875 L 386.082031 163.496094 L 386.164062 163.4375 L 386.242188 163.367188 L 386.3125 163.292969 L 386.378906 163.214844 L 386.4375 163.125 L 386.492188 163.03125 L 386.535156 162.933594 L 386.574219 162.832031 L 386.605469 162.71875 L 386.628906 162.605469 L 386.644531 162.484375 L 386.65625 162.355469 L 386.660156 162.222656 L 386.648438 161.9375 L 386.613281 161.683594 L 386.554688 161.457031 L 386.472656 161.261719 L 386.371094 161.097656 L 386.242188 160.960938 L 386.089844 160.855469 L 385.917969 160.78125 L 385.71875 160.738281 L 385.5 160.722656 L 385.390625 160.726562 L 385.285156 160.738281 L 385.1875 160.757812 L 385.09375 160.785156 L 385.003906 160.824219 L 384.917969 160.867188 L 384.839844 160.921875 L 384.761719 160.980469 L 384.691406 161.050781 L 384.625 161.125 L 384.566406 161.210938 L 384.511719 161.296875 L 384.464844 161.390625 L 384.425781 161.492188 L 384.390625 161.59375 L 384.359375 161.703125 L 384.339844 161.816406 L 384.324219 161.933594 L 384.3125 162.058594 L 384.308594 162.1875 L 383.277344 162.1875 L 383.285156 161.984375 L 383.304688 161.792969 L 383.335938 161.605469 L 383.378906 161.425781 L 383.433594 161.253906 L 383.503906 161.085938 L 383.582031 160.929688 L 383.675781 160.777344 L 383.78125 160.636719 L 383.898438 160.5 L 384.027344 160.371094 L 384.164062 160.257812 L 384.308594 160.160156 L 384.457031 160.070312 L 384.613281 160 L 384.777344 159.9375 L 384.949219 159.890625 L 385.125 159.859375 L 385.308594 159.839844 L 385.5 159.832031 L 385.695312 159.839844 L 385.886719 159.855469 L 386.066406 159.886719 L 386.238281 159.933594 L 386.402344 159.988281 L 386.558594 160.058594 L 386.707031 160.140625 L 386.847656 160.238281 L 386.976562 160.34375 L 387.097656 160.464844 L 387.210938 160.59375 L 387.3125 160.734375 L 387.402344 160.886719 L 387.476562 161.050781 L 387.542969 161.222656 L 387.597656 161.40625 L 387.636719 161.601562 L 387.667969 161.804688 L 387.683594 162.019531 L 387.691406 162.246094 L 387.6875 162.363281 L 387.679688 162.480469 L 387.664062 162.59375 L 387.640625 162.707031 L 387.613281 162.820312 L 387.578125 162.929688 L 387.539062 163.035156 L 387.492188 163.144531 L 387.441406 163.25 L 387.316406 163.453125 L 387.25 163.546875 L 387.179688 163.632812 L 387.105469 163.71875 L 387.027344 163.796875 L 386.949219 163.867188 L 386.863281 163.933594 L 386.773438 163.996094 L 386.679688 164.050781 L 386.582031 164.101562 L 386.8125 164.203125 L 387.019531 164.324219 L 387.199219 164.46875 L 387.355469 164.636719 L 387.488281 164.824219 L 387.597656 165.035156 L 387.683594 165.269531 L 387.742188 165.523438 L 387.777344 165.800781 L 387.789062 166.101562 L 387.785156 166.324219 L 387.765625 166.539062 L 387.734375 166.746094 L 387.6875 166.941406 L 387.632812 167.128906 L 387.5625 167.304688 L 387.476562 167.472656 L 387.382812 167.632812 L 387.273438 167.78125 L 387.152344 167.921875 L 387.023438 168.050781 L 386.882812 168.164062 L 386.738281 168.265625 L 386.582031 168.355469 L 386.421875 168.429688 L 386.25 168.488281 L 386.074219 168.535156 L 385.886719 168.570312 L 385.695312 168.589844 L 385.492188 168.597656 L 385.296875 168.589844 L 385.105469 168.570312 L 384.921875 168.539062 L 384.746094 168.496094 L 384.578125 168.4375 L 384.417969 168.367188 L 384.265625 168.285156 L 384.121094 168.1875 L 383.984375 168.078125 L 383.851562 167.957031 L 383.734375 167.824219 L 383.628906 167.683594 L 383.535156 167.53125 L 383.457031 167.371094 L 383.386719 167.203125 L 383.332031 167.027344 L 383.289062 166.839844 L 383.257812 166.644531 L 383.238281 166.441406 L 383.230469 166.230469 L 384.269531 166.230469 L 384.273438 166.363281 L 384.28125 166.492188 L 384.300781 166.613281 L 384.320312 166.730469 L 384.351562 166.839844 L 384.386719 166.945312 L 384.429688 167.046875 L 384.480469 167.140625 L 384.535156 167.230469 L 384.597656 167.3125 L 384.664062 167.390625 L 384.738281 167.457031 L 384.816406 167.515625 L 384.898438 167.570312 L 384.984375 167.613281 L 385.078125 167.648438 L 385.175781 167.675781 L 385.277344 167.695312 L 385.382812 167.707031 L 385.492188 167.710938 L 385.609375 167.707031 L 385.714844 167.695312 L 385.820312 167.675781 L 385.917969 167.648438 L 386.015625 167.613281 L 386.105469 167.570312 L 386.1875 167.519531 L 386.269531 167.460938 L 386.34375 167.394531 L 386.414062 167.320312 L 386.480469 167.238281 L 386.539062 167.144531 L 386.589844 167.046875 L 386.636719 166.941406 L 386.671875 166.824219 L 386.703125 166.699219 L 386.726562 166.570312 L 386.746094 166.429688 L 386.757812 166.28125 L 386.757812 166.125 L 386.746094 165.828125 L 386.699219 165.566406 L 386.628906 165.332031 L 386.523438 165.128906 L 386.390625 164.960938 L 386.230469 164.820312 L 386.039062 164.710938 L 385.816406 164.632812 L 385.566406 164.585938 L 385.289062 164.570312 L 384.667969 164.570312 Z M 384.667969 163.6875 "/>
<path style=" stroke:none;fill-rule:nonzero;fill:rgb(3.529412%,3.529412%,3.529412%);fill-opacity:1;" d="M 393.824219 164.839844 L 393.820312 165.210938 L 393.804688 165.558594 L 393.777344 165.886719 L 393.738281 166.199219 L 393.6875 166.492188 L 393.628906 166.765625 L 393.554688 167.019531 L 393.472656 167.253906 L 393.378906 167.46875 L 393.273438 167.664062 L 393.160156 167.84375 L 393.03125 168 L 392.886719 168.140625 L 392.734375 168.261719 L 392.566406 168.363281 L 392.386719 168.449219 L 392.195312 168.511719 L 391.992188 168.558594 L 391.777344 168.585938 L 391.546875 168.597656 L 391.324219 168.589844 L 391.113281 168.5625 L 390.914062 168.515625 L 390.726562 168.453125 L 390.550781 168.375 L 390.382812 168.273438 L 390.230469 168.15625 L 390.089844 168.023438 L 389.960938 167.871094 L 389.839844 167.699219 L 389.734375 167.511719 L 389.636719 167.304688 L 389.550781 167.082031 L 389.476562 166.839844 L 389.414062 166.578125 L 389.359375 166.300781 L 389.316406 166.003906 L 389.285156 165.6875 L 389.265625 165.355469 L 389.253906 165.003906 L 389.253906 163.539062 L 389.261719 163.175781 L 389.277344 162.832031 L 389.304688 162.503906 L 389.34375 162.195312 L 389.394531 161.910156 L 389.453125 161.640625 L 389.527344 161.390625 L 389.609375 161.15625 L 389.703125 160.945312 L 389.804688 160.75 L 389.925781 160.578125 L 390.054688 160.421875 L 390.195312 160.28125 L 390.351562 160.164062 L 390.515625 160.0625 L 390.695312 159.980469 L 390.886719 159.914062 L 391.089844 159.867188 L 391.308594 159.839844 L 391.535156 159.832031 L 391.761719 159.839844 L 391.972656 159.867188 L 392.171875 159.910156 L 392.363281 159.972656 L 392.539062 160.050781 L 392.703125 160.144531 L 392.855469 160.257812 L 392.996094 160.390625 L 393.125 160.539062 L 393.238281 160.703125 L 393.347656 160.886719 L 393.441406 161.089844 L 393.527344 161.308594 L 393.601562 161.546875 L 393.664062 161.800781 L 393.71875 162.074219 L 393.761719 162.367188 L 393.792969 162.675781 L 393.816406 163.003906 L 393.824219 163.347656 Z M 392.789062 163.359375 L 392.785156 163.09375 L 392.777344 162.847656 L 392.761719 162.609375 L 392.742188 162.390625 L 392.714844 162.183594 L 392.679688 161.992188 L 392.640625 161.8125 L 392.597656 161.652344 L 392.546875 161.5 L 392.488281 161.367188 L 392.425781 161.246094 L 392.355469 161.132812 L 392.277344 161.039062 L 392.195312 160.953125 L 392.101562 160.882812 L 392.003906 160.824219 L 391.898438 160.78125 L 391.78125 160.746094 L 391.664062 160.730469 L 391.535156 160.722656 L 391.410156 160.730469 L 391.292969 160.746094 L 391.183594 160.777344 L 391.078125 160.824219 L 390.980469 160.878906 L 390.890625 160.949219 L 390.808594 161.03125 L 390.730469 161.128906 L 390.660156 161.234375 L 390.597656 161.355469 L 390.539062 161.488281 L 390.488281 161.632812 L 390.445312 161.789062 L 390.40625 161.960938 L 390.371094 162.144531 L 390.34375 162.339844 L 390.320312 162.546875 L 390.304688 162.769531 L 390.292969 163.003906 L 390.285156 163.253906 L 390.285156 165.011719 L 390.289062 165.273438 L 390.300781 165.523438 L 390.316406 165.757812 L 390.335938 165.984375 L 390.363281 166.191406 L 390.398438 166.386719 L 390.4375 166.570312 L 390.484375 166.738281 L 390.539062 166.894531 L 390.597656 167.039062 L 390.664062 167.167969 L 390.734375 167.28125 L 390.8125 167.382812 L 390.898438 167.46875 L 390.988281 167.542969 L 391.089844 167.605469 L 391.191406 167.652344 L 391.304688 167.683594 L 391.421875 167.707031 L 391.546875 167.710938 L 391.667969 167.707031 L 391.785156 167.6875 L 391.894531 167.65625 L 392 167.609375 L 392.097656 167.554688 L 392.1875 167.484375 L 392.269531 167.398438 L 392.34375 167.304688 L 392.414062 167.195312 L 392.476562 167.074219 L 392.535156 166.9375 L 392.585938 166.792969 L 392.632812 166.628906 L 392.671875 166.453125 L 392.707031 166.265625 L 392.734375 166.066406 L 392.757812 165.847656 L 392.773438 165.621094 L 392.785156 165.378906 L 392.789062 165.121094 Z M 392.789062 163.359375 "/>
<path style="fill:none;stroke-width:0.75;stroke-linecap:round;stroke-linejoin:round;stroke:rgb(3.529412%,3.529412%,3.529412%);stroke-opacity:1;stroke-miterlimit:10;" d="M 59.039062 139.464844 L 59.039062 66.371094 "/>
<path style="fill:none;stroke-width:0.75;stroke-linecap:round;stroke-linejoin:round;stroke:rgb(3.529412%,3.529412%,3.529412%);stroke-opacity:1;stroke-miterlimit:10;" d="M 59.039062 139.464844 L 51.839844 139.464844 "/>
<path style="fill:none;stroke-width:0.75;stroke-linecap:round;stroke-linejoin:round;stroke:rgb(3.529412%,3.529412%,3.529412%);stroke-opacity:1;stroke-miterlimit:10;" d="M 59.039062 124.847656 L 51.839844 124.847656 "/>
<path style="fill:none;stroke-width:0.75;stroke-linecap:round;stroke-linejoin:round;stroke:rgb(3.529412%,3.529412%,3.529412%);stroke-opacity:1;stroke-miterlimit:10;" d="M 59.039062 110.230469 L 51.839844 110.230469 "/>
<path style="fill:none;stroke-width:0.75;stroke-linecap:round;stroke-linejoin:round;stroke:rgb(3.529412%,3.529412%,3.529412%);stroke-opacity:1;stroke-miterlimit:10;" d="M 59.039062 95.609375 L 51.839844 95.609375 "/>
<path style="fill:none;stroke-width:0.75;stroke-linecap:round;stroke-linejoin:round;stroke:rgb(3.529412%,3.529412%,3.529412%);stroke-opacity:1;stroke-miterlimit:10;" d="M 59.039062 80.992188 L 51.839844 80.992188 "/>
<path style="fill:none;stroke-width:0.75;stroke-linecap:round;stroke-linejoin:round;stroke:rgb(3.529412%,3.529412%,3.529412%);stroke-opacity:1;stroke-miterlimit:10;" d="M 59.039062 66.371094 L 51.839844 66.371094 "/>
<path style=" stroke:none;fill-rule:nonzero;fill:rgb(3.529412%,3.529412%,3.529412%);fill-opacity:1;" d="M 38.121094 137.183594 L 38.488281 137.191406 L 38.839844 137.207031 L 39.167969 137.234375 L 39.480469 137.273438 L 39.769531 137.320312 L 40.042969 137.382812 L 40.296875 137.453125 L 40.53125 137.535156 L 40.75 137.628906 L 40.945312 137.734375 L 41.121094 137.851562 L 41.28125 137.980469 L 41.421875 138.121094 L 41.542969 138.277344 L 41.644531 138.441406 L 41.726562 138.621094 L 41.792969 138.8125 L 41.839844 139.019531 L 41.867188 139.234375 L 41.878906 139.464844 L 41.867188 139.6875 L 41.839844 139.898438 L 41.796875 140.097656 L 41.734375 140.285156 L 41.652344 140.460938 L 41.554688 140.625 L 41.4375 140.777344 L 41.304688 140.921875 L 41.152344 141.050781 L 40.980469 141.167969 L 40.792969 141.277344 L 40.585938 141.371094 L 40.363281 141.457031 L 40.117188 141.53125 L 39.859375 141.597656 L 39.578125 141.648438 L 39.285156 141.691406 L 38.96875 141.722656 L 38.636719 141.746094 L 38.285156 141.753906 L 36.820312 141.753906 L 36.457031 141.75 L 36.109375 141.734375 L 35.785156 141.707031 L 35.476562 141.667969 L 35.1875 141.617188 L 34.917969 141.554688 L 34.667969 141.484375 L 34.4375 141.402344 L 34.226562 141.308594 L 34.03125 141.203125 L 33.855469 141.085938 L 33.699219 140.957031 L 33.5625 140.816406 L 33.441406 140.660156 L 33.339844 140.492188 L 33.257812 140.316406 L 33.195312 140.125 L 33.148438 139.917969 L 33.121094 139.703125 L 33.113281 139.476562 L 33.121094 139.25 L 33.144531 139.039062 L 33.191406 138.835938 L 33.25 138.648438 L 33.328125 138.472656 L 33.425781 138.308594 L 33.539062 138.15625 L 33.671875 138.015625 L 33.820312 137.886719 L 33.984375 137.769531 L 34.167969 137.664062 L 34.371094 137.570312 L 34.589844 137.484375 L 34.828125 137.410156 L 35.082031 137.34375 L 35.355469 137.292969 L 35.644531 137.25 L 35.957031 137.21875 L 36.28125 137.195312 L 36.628906 137.183594 Z M 36.640625 138.222656 L 36.375 138.222656 L 36.125 138.234375 L 35.890625 138.25 L 35.671875 138.269531 L 35.464844 138.296875 L 35.273438 138.328125 L 35.09375 138.367188 L 34.929688 138.414062 L 34.78125 138.464844 L 34.648438 138.519531 L 34.523438 138.582031 L 34.414062 138.652344 L 34.316406 138.730469 L 34.234375 138.816406 L 34.164062 138.910156 L 34.105469 139.007812 L 34.058594 139.113281 L 34.027344 139.226562 L 34.007812 139.347656 L 34.003906 139.476562 L 34.007812 139.601562 L 34.027344 139.71875 L 34.058594 139.828125 L 34.101562 139.933594 L 34.160156 140.027344 L 34.230469 140.121094 L 34.3125 140.203125 L 34.40625 140.28125 L 34.515625 140.351562 L 34.636719 140.414062 L 34.765625 140.46875 L 34.910156 140.519531 L 35.070312 140.566406 L 35.238281 140.605469 L 35.421875 140.640625 L 35.621094 140.667969 L 35.828125 140.691406 L 36.050781 140.707031 L 36.285156 140.71875 L 36.535156 140.722656 L 38.292969 140.722656 L 38.554688 140.71875 L 38.804688 140.710938 L 39.039062 140.695312 L 39.261719 140.671875 L 39.472656 140.644531 L 39.667969 140.613281 L 39.851562 140.570312 L 40.019531 140.523438 L 40.175781 140.472656 L 40.320312 140.414062 L 40.445312 140.347656 L 40.5625 140.277344 L 40.664062 140.195312 L 40.75 140.113281 L 40.824219 140.019531 L 40.882812 139.921875 L 40.933594 139.816406 L 40.964844 139.707031 L 40.984375 139.589844 L 40.992188 139.464844 L 40.984375 139.339844 L 40.96875 139.222656 L 40.933594 139.113281 L 40.890625 139.011719 L 40.832031 138.914062 L 40.761719 138.824219 L 40.679688 138.742188 L 40.582031 138.664062 L 40.476562 138.59375 L 40.355469 138.53125 L 40.21875 138.476562 L 40.070312 138.425781 L 39.910156 138.378906 L 39.734375 138.339844 L 39.546875 138.304688 L 39.34375 138.277344 L 39.128906 138.253906 L 38.902344 138.238281 L 38.660156 138.226562 L 38.402344 138.222656 Z M 36.640625 138.222656 "/>
<path style=" stroke:none;fill-rule:nonzero;fill:rgb(3.529412%,3.529412%,3.529412%);fill-opacity:1;" d="M 38.894531 114.503906 L 38.894531 113.554688 L 39.78125 113.554688 L 39.78125 114.503906 L 41.761719 114.503906 L 41.761719 115.539062 L 39.78125 115.539062 L 39.78125 118.761719 L 39.140625 118.761719 L 33.230469 115.59375 L 33.230469 114.503906 Z M 38.894531 117.613281 L 38.894531 115.539062 L 34.839844 115.539062 Z M 38.894531 117.613281 "/>
<path style=" stroke:none;fill-rule:nonzero;fill:rgb(3.529412%,3.529412%,3.529412%);fill-opacity:1;" d="M 38.121094 107.945312 L 38.488281 107.953125 L 38.839844 107.96875 L 39.167969 107.996094 L 39.480469 108.035156 L 39.769531 108.085938 L 40.042969 108.144531 L 40.296875 108.214844 L 40.53125 108.300781 L 40.75 108.394531 L 40.945312 108.496094 L 41.121094 108.613281 L 41.28125 108.742188 L 41.421875 108.882812 L 41.542969 109.039062 L 41.644531 109.207031 L 41.726562 109.382812 L 41.792969 109.574219 L 41.839844 109.78125 L 41.867188 109.996094 L 41.878906 110.226562 L 41.867188 110.449219 L 41.839844 110.660156 L 41.796875 110.859375 L 41.734375 111.046875 L 41.652344 111.222656 L 41.554688 111.386719 L 41.4375 111.542969 L 41.304688 111.683594 L 41.152344 111.8125 L 40.980469 111.929688 L 40.792969 112.039062 L 40.585938 112.132812 L 40.363281 112.21875 L 40.117188 112.296875 L 39.859375 112.359375 L 39.578125 112.414062 L 39.285156 112.453125 L 38.96875 112.484375 L 38.636719 112.507812 L 38.285156 112.515625 L 36.820312 112.515625 L 36.457031 112.511719 L 36.109375 112.496094 L 35.785156 112.46875 L 35.476562 112.429688 L 35.1875 112.378906 L 34.917969 112.320312 L 34.667969 112.246094 L 34.4375 112.164062 L 34.226562 112.070312 L 34.03125 111.964844 L 33.855469 111.847656 L 33.699219 111.71875 L 33.5625 111.578125 L 33.441406 111.421875 L 33.339844 111.257812 L 33.257812 111.078125 L 33.195312 110.886719 L 33.148438 110.683594 L 33.121094 110.464844 L 33.113281 110.238281 L 33.121094 110.011719 L 33.144531 109.800781 L 33.191406 109.601562 L 33.25 109.410156 L 33.328125 109.234375 L 33.425781 109.070312 L 33.539062 108.917969 L 33.671875 108.777344 L 33.820312 108.648438 L 33.984375 108.53125 L 34.167969 108.425781 L 34.371094 108.332031 L 34.589844 108.246094 L 34.828125 108.171875 L 35.082031 108.109375 L 35.355469 108.054688 L 35.644531 108.011719 L 35.957031 107.980469 L 36.28125 107.957031 L 36.628906 107.945312 Z M 36.640625 108.984375 L 36.375 108.988281 L 36.125 108.996094 L 35.890625 109.011719 L 35.671875 109.03125 L 35.464844 109.058594 L 35.273438 109.089844 L 35.09375 109.128906 L 34.929688 109.175781 L 34.78125 109.226562 L 34.648438 109.28125 L 34.523438 109.347656 L 34.414062 109.417969 L 34.316406 109.496094 L 34.234375 109.578125 L 34.164062 109.671875 L 34.105469 109.769531 L 34.058594 109.875 L 34.027344 109.988281 L 34.007812 110.109375 L 34.003906 110.238281 L 34.007812 110.363281 L 34.027344 110.480469 L 34.058594 110.589844 L 34.101562 110.695312 L 34.160156 110.792969 L 34.230469 110.882812 L 34.3125 110.964844 L 34.40625 111.042969 L 34.515625 111.113281 L 34.636719 111.175781 L 34.765625 111.230469 L 34.910156 111.285156 L 35.070312 111.328125 L 35.238281 111.367188 L 35.421875 111.402344 L 35.621094 111.429688 L 35.828125 111.453125 L 36.050781 111.46875 L 36.285156 111.480469 L 36.535156 111.484375 L 38.554688 111.484375 L 38.804688 111.472656 L 39.039062 111.457031 L 39.261719 111.4375 L 39.472656 111.410156 L 39.667969 111.375 L 39.851562 111.332031 L 40.019531 111.289062 L 40.175781 111.234375 L 40.320312 111.175781 L 40.445312 111.109375 L 40.5625 111.039062 L 40.664062 110.960938 L 40.75 110.875 L 40.824219 110.78125 L 40.882812 110.683594 L 40.933594 110.578125 L 40.964844 110.46875 L 40.984375 110.351562 L 40.992188 110.226562 L 40.984375 110.101562 L 40.96875 109.988281 L 40.933594 109.875 L 40.890625 109.773438 L 40.832031 109.675781 L 40.761719 109.585938 L 40.679688 109.503906 L 40.582031 109.425781 L 40.476562 109.359375 L 40.355469 109.292969 L 40.21875 109.238281 L 40.070312 109.1875 L 39.910156 109.140625 L 39.734375 109.101562 L 39.546875 109.066406 L 39.34375 109.039062 L 39.128906 109.015625 L 38.902344 109 L 38.660156 108.988281 L 38.402344 108.984375 Z M 36.640625 108.984375 "/>
<path style=" stroke:none;fill-rule:nonzero;fill:rgb(3.529412%,3.529412%,3.529412%);fill-opacity:1;" d="M 38.121094 102.023438 L 38.488281 102.027344 L 38.839844 102.046875 L 39.167969 102.074219 L 39.480469 102.109375 L 39.769531 102.160156 L 40.042969 102.222656 L 40.296875 102.292969 L 40.53125 102.375 L 40.75 102.46875 L 40.945312 102.574219 L 41.121094 102.691406 L 41.28125 102.820312 L 41.421875 102.960938 L 41.542969 103.113281 L 41.644531 103.28125 L 41.726562 103.460938 L 41.792969 103.652344 L 41.839844 103.855469 L 41.867188 104.074219 L 41.878906 104.300781 L 41.867188 104.523438 L 41.839844 104.734375 L 41.796875 104.9375 L 41.734375 105.125 L 41.652344 105.300781 L 41.554688 105.464844 L 41.4375 105.617188 L 41.304688 105.757812 L 41.152344 105.890625 L 40.980469 106.007812 L 40.792969 106.113281 L 40.585938 106.210938 L 40.363281 106.296875 L 40.117188 106.371094 L 39.859375 106.433594 L 39.578125 106.488281 L 39.285156 106.53125 L 38.96875 106.5625 L 38.636719 106.582031 L 38.285156 106.59375 L 36.820312 106.59375 L 36.457031 106.585938 L 36.109375 106.570312 L 35.785156 106.542969 L 35.476562 106.503906 L 35.1875 106.457031 L 34.917969 106.394531 L 34.667969 106.324219 L 34.4375 106.242188 L 34.226562 106.148438 L 34.03125 106.042969 L 33.855469 105.925781 L 33.699219 105.796875 L 33.5625 105.652344 L 33.441406 105.5 L 33.339844 105.332031 L 33.257812 105.152344 L 33.195312 104.960938 L 33.148438 104.757812 L 33.121094 104.542969 L 33.113281 104.3125 L 33.121094 104.089844 L 33.144531 103.875 L 33.191406 103.675781 L 33.25 103.488281 L 33.328125 103.3125 L 33.425781 103.144531 L 33.539062 102.992188 L 33.671875 102.851562 L 33.820312 102.726562 L 33.984375 102.609375 L 34.167969 102.503906 L 34.371094 102.40625 L 34.589844 102.324219 L 34.828125 102.25 L 35.082031 102.183594 L 35.355469 102.132812 L 35.644531 102.089844 L 35.957031 102.054688 L 36.28125 102.035156 L 36.628906 102.023438 Z M 36.640625 103.058594 L 36.375 103.0625 L 36.125 103.070312 L 35.890625 103.085938 L 35.671875 103.109375 L 35.464844 103.136719 L 35.273438 103.167969 L 35.09375 103.207031 L 34.929688 103.25 L 34.78125 103.300781 L 34.648438 103.359375 L 34.523438 103.421875 L 34.414062 103.492188 L 34.316406 103.570312 L 34.234375 103.65625 L 34.164062 103.746094 L 34.105469 103.847656 L 34.058594 103.953125 L 34.027344 104.066406 L 34.007812 104.1875 L 34.003906 104.3125 L 34.007812 104.4375 L 34.027344 104.554688 L 34.058594 104.667969 L 34.101562 104.769531 L 34.160156 104.867188 L 34.230469 104.957031 L 34.3125 105.042969 L 34.40625 105.117188 L 34.515625 105.1875 L 34.636719 105.25 L 34.765625 105.308594 L 34.910156 105.359375 L 35.070312 105.40625 L 35.238281 105.445312 L 35.421875 105.480469 L 35.621094 105.507812 L 35.828125 105.527344 L 36.050781 105.546875 L 36.285156 105.558594 L 36.535156 105.5625 L 38.292969 105.5625 L 38.554688 105.558594 L 38.804688 105.550781 L 39.039062 105.535156 L 39.261719 105.511719 L 39.472656 105.484375 L 39.667969 105.449219 L 39.851562 105.410156 L 40.019531 105.363281 L 40.175781 105.3125 L 40.320312 105.25 L 40.445312 105.1875 L 40.5625 105.113281 L 40.664062 105.035156 L 40.75 104.949219 L 40.824219 104.859375 L 40.882812 104.761719 L 40.933594 104.65625 L 40.964844 104.542969 L 40.984375 104.425781 L 40.992188 104.300781 L 40.984375 104.179688 L 40.96875 104.0625 L 40.933594 103.953125 L 40.890625 103.847656 L 40.832031 103.753906 L 40.761719 103.664062 L 40.679688 103.578125 L 40.582031 103.503906 L 40.476562 103.433594 L 40.355469 103.371094 L 40.21875 103.3125 L 40.070312 103.261719 L 39.910156 103.21875 L 39.734375 103.175781 L 39.546875 103.144531 L 39.34375 103.117188 L 39.128906 103.09375 L 38.902344 103.078125 L 38.660156 103.066406 L 38.402344 103.058594 Z M 36.640625 103.058594 "/>
<path style=" stroke:none;fill-rule:nonzero;fill:rgb(3.529412%,3.529412%,3.529412%);fill-opacity:1;" d="M 35.457031 84.804688 L 35.582031 84.804688 L 35.707031 84.816406 L 35.824219 84.828125 L 35.945312 84.847656 L 36.058594 84.875 L 36.171875 84.90625 L 36.28125 84.945312 L 36.386719 84.988281 L 36.492188 85.035156 L 36.59375 85.089844 L 36.691406 85.148438 L 36.78125 85.210938 L 36.871094 85.277344 L 36.957031 85.347656 L 37.035156 85.421875 L 37.113281 85.5 L 37.183594 85.582031 L 37.25 85.667969 L 37.3125 85.757812 L 37.371094 85.851562 L 37.433594 85.742188 L 37.5 85.632812 L 37.570312 85.53125 L 37.648438 85.4375 L 37.730469 85.34375 L 37.816406 85.257812 L 37.90625 85.175781 L 38.003906 85.101562 L 38.109375 85.027344 L 38.214844 84.960938 L 38.324219 84.898438 L 38.4375 84.84375 L 38.554688 84.796875 L 38.675781 84.753906 L 38.796875 84.71875 L 38.921875 84.691406 L 39.050781 84.667969 L 39.183594 84.652344 L 39.320312 84.640625 L 39.457031 84.640625 L 39.671875 84.644531 L 39.878906 84.664062 L 40.078125 84.695312 L 40.269531 84.738281 L 40.449219 84.796875 L 40.621094 84.863281 L 40.785156 84.945312 L 40.9375 85.039062 L 41.085938 85.148438 L 41.222656 85.265625 L 41.34375 85.394531 L 41.457031 85.53125 L 41.554688 85.675781 L 41.640625 85.828125 L 41.714844 85.988281 L 41.773438 86.160156 L 41.816406 86.335938 L 41.851562 86.523438 L 41.871094 86.714844 L 41.878906 86.917969 L 41.871094 87.121094 L 41.851562 87.316406 L 41.816406 87.5 L 41.773438 87.679688 L 41.714844 87.847656 L 41.640625 88.011719 L 41.554688 88.164062 L 41.457031 88.308594 L 41.34375 88.445312 L 41.222656 88.578125 L 41.085938 88.695312 L 40.9375 88.800781 L 40.785156 88.894531 L 40.621094 88.972656 L 40.449219 89.042969 L 40.269531 89.097656 L 40.078125 89.140625 L 39.878906 89.171875 L 39.671875 89.191406 L 39.457031 89.199219 L 39.316406 89.195312 L 39.183594 89.183594 L 39.050781 89.167969 L 38.917969 89.148438 L 38.792969 89.117188 L 38.667969 89.082031 L 38.546875 89.042969 L 38.429688 88.996094 L 38.316406 88.941406 L 38.203125 88.882812 L 38.09375 88.816406 L 37.992188 88.742188 L 37.894531 88.667969 L 37.800781 88.585938 L 37.714844 88.5 L 37.632812 88.414062 L 37.558594 88.316406 L 37.488281 88.21875 L 37.425781 88.117188 L 37.367188 88.007812 L 37.308594 88.101562 L 37.246094 88.191406 L 37.179688 88.277344 L 37.105469 88.359375 L 37.03125 88.4375 L 36.953125 88.511719 L 36.867188 88.582031 L 36.78125 88.644531 L 36.6875 88.707031 L 36.59375 88.765625 L 36.492188 88.816406 L 36.386719 88.863281 L 36.28125 88.90625 L 36.171875 88.941406 L 35.945312 88.996094 L 35.824219 89.015625 L 35.707031 89.027344 L 35.582031 89.035156 L 35.457031 89.039062 L 35.242188 89.035156 L 35.042969 89.015625 L 34.847656 88.988281 L 34.664062 88.945312 L 34.488281 88.894531 L 34.320312 88.832031 L 34.164062 88.753906 L 34.015625 88.667969 L 33.875 88.570312 L 33.746094 88.460938 L 33.625 88.339844 L 33.515625 88.210938 L 33.421875 88.074219 L 33.339844 87.929688 L 33.269531 87.78125 L 33.210938 87.625 L 33.167969 87.457031 L 33.136719 87.285156 L 33.117188 87.105469 L 33.113281 86.917969 L 33.117188 86.730469 L 33.136719 86.554688 L 33.167969 86.382812 L 33.210938 86.21875 L 33.269531 86.0625 L 33.335938 85.914062 L 33.417969 85.769531 L 33.511719 85.636719 L 33.621094 85.507812 L 33.738281 85.390625 L 33.867188 85.277344 L 34.007812 85.179688 L 34.15625 85.089844 L 34.3125 85.015625 L 34.480469 84.949219 L 34.65625 84.898438 L 34.84375 84.855469 L 35.039062 84.828125 L 35.242188 84.808594 Z M 39.433594 85.675781 L 39.289062 85.679688 L 39.152344 85.691406 L 39.019531 85.707031 L 38.894531 85.730469 L 38.773438 85.761719 L 38.660156 85.800781 L 38.550781 85.84375 L 38.449219 85.898438 L 38.351562 85.957031 L 38.261719 86.023438 L 38.175781 86.09375 L 38.101562 86.167969 L 38.035156 86.25 L 37.976562 86.332031 L 37.929688 86.421875 L 37.886719 86.515625 L 37.855469 86.613281 L 37.835938 86.714844 L 37.820312 86.820312 L 37.816406 86.929688 L 37.820312 87.042969 L 37.835938 87.148438 L 37.855469 87.253906 L 37.886719 87.351562 L 37.929688 87.445312 L 37.976562 87.53125 L 38.035156 87.617188 L 38.101562 87.695312 L 38.175781 87.769531 L 38.261719 87.839844 L 38.355469 87.902344 L 38.453125 87.957031 L 38.554688 88.003906 L 38.664062 88.046875 L 38.777344 88.085938 L 38.898438 88.113281 L 39.023438 88.136719 L 39.15625 88.152344 L 39.292969 88.164062 L 39.433594 88.167969 L 39.578125 88.164062 L 39.714844 88.152344 L 39.847656 88.136719 L 39.972656 88.113281 L 40.089844 88.085938 L 40.203125 88.050781 L 40.304688 88.007812 L 40.40625 87.960938 L 40.496094 87.90625 L 40.582031 87.84375 L 40.660156 87.777344 L 40.730469 87.703125 L 40.792969 87.621094 L 40.84375 87.539062 L 40.890625 87.449219 L 40.925781 87.351562 L 40.957031 87.253906 L 40.976562 87.148438 L 40.988281 87.035156 L 40.992188 86.917969 L 40.988281 86.800781 L 40.976562 86.691406 L 40.957031 86.585938 L 40.925781 86.484375 L 40.890625 86.390625 L 40.84375 86.300781 L 40.792969 86.214844 L 40.730469 86.136719 L 40.660156 86.066406 L 40.582031 86 L 40.496094 85.9375 L 40.40625 85.882812 L 40.304688 85.835938 L 40.203125 85.792969 L 40.089844 85.757812 L 39.972656 85.726562 L 39.847656 85.707031 L 39.714844 85.6875 L 39.578125 85.679688 Z M 35.472656 85.835938 L 35.34375 85.835938 L 35.222656 85.847656 L 35.105469 85.863281 L 34.992188 85.882812 L 34.882812 85.910156 L 34.777344 85.945312 L 34.679688 85.984375 L 34.585938 86.03125 L 34.496094 86.082031 L 34.414062 86.140625 L 34.335938 86.203125 L 34.265625 86.269531 L 34.203125 86.335938 L 34.148438 86.410156 L 34.105469 86.484375 L 34.066406 86.566406 L 34.039062 86.648438 L 34.019531 86.734375 L 34.007812 86.824219 L 34.003906 86.917969 L 34.007812 87.015625 L 34.019531 87.109375 L 34.039062 87.199219 L 34.066406 87.285156 L 34.101562 87.363281 L 34.148438 87.441406 L 34.199219 87.515625 L 34.261719 87.582031 L 34.328125 87.648438 L 34.40625 87.710938 L 34.488281 87.765625 L 34.578125 87.816406 L 34.671875 87.859375 L 34.769531 87.898438 L 34.875 87.929688 L 34.984375 87.957031 L 35.097656 87.976562 L 35.21875 87.992188 L 35.34375 88 L 35.472656 88.003906 L 35.605469 88 L 35.730469 87.992188 L 35.847656 87.976562 L 35.964844 87.953125 L 36.070312 87.925781 L 36.175781 87.894531 L 36.273438 87.855469 L 36.367188 87.8125 L 36.453125 87.761719 L 36.535156 87.703125 L 36.609375 87.640625 L 36.675781 87.578125 L 36.734375 87.507812 L 36.785156 87.433594 L 36.828125 87.359375 L 36.863281 87.277344 L 36.890625 87.191406 L 36.910156 87.105469 L 36.921875 87.015625 L 36.925781 86.917969 L 36.921875 86.820312 L 36.910156 86.726562 L 36.890625 86.636719 L 36.863281 86.550781 L 36.828125 86.472656 L 36.78125 86.394531 L 36.730469 86.320312 L 36.671875 86.253906 L 36.601562 86.1875 L 36.527344 86.128906 L 36.445312 86.070312 L 36.359375 86.023438 L 36.265625 85.976562 L 36.167969 85.941406 L 36.066406 85.90625 L 35.957031 85.882812 L 35.84375 85.859375 L 35.726562 85.847656 L 35.601562 85.835938 Z M 35.472656 85.835938 "/>
<path style=" stroke:none;fill-rule:nonzero;fill:rgb(3.529412%,3.529412%,3.529412%);fill-opacity:1;" d="M 38.121094 78.710938 L 38.488281 78.714844 L 38.839844 78.730469 L 39.167969 78.757812 L 39.480469 78.796875 L 39.769531 78.847656 L 40.042969 78.90625 L 40.296875 78.980469 L 40.53125 79.0625 L 40.75 79.15625 L 40.945312 79.261719 L 41.121094 79.375 L 41.28125 79.503906 L 41.421875 79.648438 L 41.542969 79.800781 L 41.644531 79.96875 L 41.726562 80.148438 L 41.792969 80.339844 L 41.839844 80.542969 L 41.867188 80.757812 L 41.878906 80.988281 L 41.867188 81.210938 L 41.839844 81.421875 L 41.796875 81.621094 L 41.734375 81.808594 L 41.652344 81.984375 L 41.554688 82.152344 L 41.4375 82.304688 L 41.304688 82.445312 L 41.152344 82.574219 L 40.980469 82.695312 L 40.792969 82.800781 L 40.585938 82.898438 L 40.363281 82.984375 L 40.117188 83.058594 L 39.859375 83.121094 L 39.578125 83.175781 L 39.285156 83.21875 L 38.96875 83.25 L 38.636719 83.269531 L 38.285156 83.28125 L 36.820312 83.28125 L 36.457031 83.273438 L 36.109375 83.257812 L 35.785156 83.230469 L 35.476562 83.191406 L 35.1875 83.140625 L 34.917969 83.082031 L 34.667969 83.007812 L 34.4375 82.925781 L 34.226562 82.832031 L 34.03125 82.730469 L 33.855469 82.613281 L 33.699219 82.480469 L 33.5625 82.339844 L 33.441406 82.183594 L 33.339844 82.019531 L 33.257812 81.839844 L 33.195312 81.648438 L 33.148438 81.445312 L 33.121094 81.230469 L 33.113281 81 L 33.121094 80.777344 L 33.144531 80.5625 L 33.191406 80.363281 L 33.25 80.171875 L 33.328125 79.996094 L 33.425781 79.832031 L 33.539062 79.679688 L 33.671875 79.539062 L 33.820312 79.410156 L 33.984375 79.296875 L 34.167969 79.1875 L 34.371094 79.09375 L 34.589844 79.007812 L 34.828125 78.933594 L 35.082031 78.871094 L 35.355469 78.816406 L 35.644531 78.773438 L 35.957031 78.742188 L 36.28125 78.71875 L 36.628906 78.710938 Z M 36.640625 79.746094 L 36.375 79.75 L 36.125 79.757812 L 35.890625 79.773438 L 35.671875 79.792969 L 35.464844 79.820312 L 35.273438 79.855469 L 35.09375 79.894531 L 34.929688 79.9375 L 34.78125 79.988281 L 34.648438 80.046875 L 34.523438 80.109375 L 34.414062 80.179688 L 34.316406 80.257812 L 34.234375 80.339844 L 34.164062 80.433594 L 34.105469 80.53125 L 34.058594 80.640625 L 34.027344 80.753906 L 34.007812 80.871094 L 34.003906 81 L 34.007812 81.125 L 34.027344 81.242188 L 34.058594 81.351562 L 34.101562 81.457031 L 34.160156 81.554688 L 34.230469 81.644531 L 34.3125 81.726562 L 34.40625 81.804688 L 34.515625 81.875 L 34.636719 81.9375 L 34.765625 81.996094 L 34.910156 82.046875 L 35.070312 82.089844 L 35.238281 82.132812 L 35.421875 82.164062 L 35.621094 82.191406 L 35.828125 82.214844 L 36.050781 82.230469 L 36.285156 82.242188 L 36.535156 82.25 L 38.292969 82.25 L 38.554688 82.246094 L 38.804688 82.234375 L 39.039062 82.21875 L 39.261719 82.199219 L 39.472656 82.171875 L 39.667969 82.136719 L 39.851562 82.097656 L 40.019531 82.050781 L 40.175781 81.996094 L 40.320312 81.9375 L 40.445312 81.871094 L 40.5625 81.800781 L 40.664062 81.722656 L 40.75 81.636719 L 40.824219 81.546875 L 40.882812 81.445312 L 40.933594 81.34375 L 40.964844 81.230469 L 40.984375 81.113281 L 40.992188 80.988281 L 40.984375 80.867188 L 40.96875 80.75 L 40.933594 80.640625 L 40.890625 80.535156 L 40.832031 80.4375 L 40.761719 80.347656 L 40.679688 80.265625 L 40.582031 80.191406 L 40.476562 80.121094 L 40.355469 80.058594 L 40.21875 80 L 40.070312 79.949219 L 39.910156 79.902344 L 39.734375 79.863281 L 39.546875 79.828125 L 39.34375 79.800781 L 39.128906 79.78125 L 38.902344 79.761719 L 38.660156 79.75 L 38.402344 79.746094 Z M 36.640625 79.746094 "/>
<path style=" stroke:none;fill-rule:nonzero;fill:rgb(3.529412%,3.529412%,3.529412%);fill-opacity:1;" d="M 38.121094 72.785156 L 38.488281 72.789062 L 38.839844 72.808594 L 39.167969 72.835938 L 39.480469 72.875 L 39.769531 72.921875 L 40.042969 72.984375 L 40.296875 73.054688 L 40.53125 73.136719 L 40.75 73.230469 L 40.945312 73.335938 L 41.121094 73.453125 L 41.28125 73.582031 L 41.421875 73.722656 L 41.542969 73.878906 L 41.644531 74.042969 L 41.726562 74.222656 L 41.792969 74.414062 L 41.839844 74.617188 L 41.867188 74.835938 L 41.878906 75.066406 L 41.867188 75.289062 L 41.839844 75.5 L 41.796875 75.699219 L 41.734375 75.886719 L 41.652344 76.0625 L 41.554688 76.226562 L 41.4375 76.378906 L 41.304688 76.523438 L 41.152344 76.652344 L 40.980469 76.769531 L 40.792969 76.878906 L 40.585938 76.972656 L 40.363281 77.058594 L 40.117188 77.132812 L 39.859375 77.199219 L 39.578125 77.25 L 39.285156 77.292969 L 38.96875 77.324219 L 38.636719 77.347656 L 38.285156 77.355469 L 36.820312 77.355469 L 36.457031 77.351562 L 36.109375 77.332031 L 35.785156 77.304688 L 35.476562 77.269531 L 35.1875 77.21875 L 34.917969 77.15625 L 34.667969 77.085938 L 34.4375 77.003906 L 34.226562 76.910156 L 34.03125 76.804688 L 33.855469 76.6875 L 33.699219 76.558594 L 33.5625 76.414062 L 33.441406 76.261719 L 33.339844 76.09375 L 33.257812 75.914062 L 33.195312 75.722656 L 33.148438 75.519531 L 33.121094 75.304688 L 33.113281 75.078125 L 33.121094 74.851562 L 33.144531 74.640625 L 33.191406 74.4375 L 33.25 74.25 L 33.328125 74.074219 L 33.425781 73.910156 L 33.539062 73.757812 L 33.671875 73.617188 L 33.820312 73.488281 L 33.984375 73.371094 L 34.167969 73.265625 L 34.371094 73.167969 L 34.589844 73.085938 L 34.828125 73.011719 L 35.082031 72.945312 L 35.355469 72.894531 L 35.644531 72.851562 L 35.957031 72.816406 L 36.28125 72.796875 L 36.628906 72.785156 Z M 36.640625 73.824219 L 36.375 73.824219 L 36.125 73.835938 L 35.890625 73.847656 L 35.671875 73.871094 L 35.464844 73.898438 L 35.273438 73.929688 L 35.09375 73.96875 L 34.929688 74.015625 L 34.78125 74.066406 L 34.648438 74.121094 L 34.523438 74.183594 L 34.414062 74.253906 L 34.316406 74.332031 L 34.234375 74.417969 L 34.164062 74.507812 L 34.105469 74.609375 L 34.058594 74.714844 L 34.027344 74.828125 L 34.007812 74.949219 L 34.003906 75.078125 L 34.007812 75.199219 L 34.027344 75.320312 L 34.058594 75.429688 L 34.101562 75.53125 L 34.160156 75.628906 L 34.230469 75.71875 L 34.3125 75.804688 L 34.40625 75.882812 L 34.515625 75.949219 L 34.636719 76.015625 L 34.765625 76.070312 L 34.910156 76.121094 L 35.070312 76.167969 L 35.238281 76.207031 L 35.421875 76.242188 L 35.621094 76.269531 L 35.828125 76.292969 L 36.050781 76.308594 L 36.285156 76.320312 L 36.535156 76.324219 L 38.292969 76.324219 L 38.554688 76.320312 L 38.804688 76.3125 L 39.039062 76.296875 L 39.261719 76.273438 L 39.472656 76.246094 L 39.667969 76.210938 L 39.851562 76.171875 L 40.019531 76.125 L 40.175781 76.074219 L 40.320312 76.015625 L 40.445312 75.949219 L 40.5625 75.875 L 40.664062 75.796875 L 40.75 75.714844 L 40.824219 75.621094 L 40.882812 75.523438 L 40.933594 75.417969 L 40.964844 75.308594 L 40.984375 75.1875 L 40.992188 75.066406 L 40.984375 74.941406 L 40.96875 74.824219 L 40.933594 74.714844 L 40.890625 74.613281 L 40.832031 74.515625 L 40.761719 74.425781 L 40.679688 74.34375 L 40.582031 74.265625 L 40.476562 74.195312 L 40.355469 74.132812 L 40.21875 74.078125 L 40.070312 74.023438 L 39.910156 73.980469 L 39.734375 73.941406 L 39.546875 73.90625 L 39.34375 73.878906 L 39.128906 73.855469 L 38.902344 73.839844 L 38.660156 73.828125 L 38.402344 73.824219 Z M 36.640625 73.824219 "/>
<path style="fill-rule:nonzero;fill:rgb(59.607843%,47.45098%,43.529412%);fill-opacity:0.8;stroke-width:0.75;stroke-linecap:round;stroke-linejoin:round;stroke:rgb(97.647059%,97.647059%,97.647059%);stroke-opacity:1;stroke-miterlimit:10;" d="M 74.398438 139.464844 L 91.851562 139.464844 L 91.851562 139.390625 L 74.398438 139.390625 Z M 74.398438 139.464844 "/>
<path style="fill:none;stroke-width:0.75;stroke-linecap:round;stroke-linejoin:round;stroke:rgb(97.647059%,97.647059%,97.647059%);stroke-opacity:1;stroke-miterlimit:10;" d="M 91.855469 139.464844 L 109.308594 139.464844 Z M 91.855469 139.464844 "/>
<path style="fill:none;stroke-width:0.75;stroke-linecap:round;stroke-linejoin:round;stroke:rgb(97.647059%,97.647059%,97.647059%);stroke-opacity:1;stroke-miterlimit:10;" d="M 109.308594 139.464844 L 126.761719 139.464844 Z M 109.308594 139.464844 "/>
<path style="fill-rule:nonzero;fill:rgb(59.607843%,47.45098%,43.529412%);fill-opacity:0.8;stroke-width:0.75;stroke-linecap:round;stroke-linejoin:round;stroke:rgb(97.647059%,97.647059%,97.647059%);stroke-opacity:1;stroke-miterlimit:10;" d="M 126.761719 139.464844 L 144.214844 139.464844 L 144.214844 138.585938 L 126.761719 138.585938 Z M 126.761719 139.464844 "/>
<path style="fill-rule:nonzero;fill:rgb(59.607843%,47.45098%,43.529412%);fill-opacity:0.8;stroke-width:0.75;stroke-linecap:round;stroke-linejoin:round;stroke:rgb(97.647059%,97.647059%,97.647059%);stroke-opacity:1;stroke-miterlimit:10;" d="M 144.21875 139.464844 L 161.671875 139.464844 L 161.671875 132.960938 L 144.21875 132.960938 Z M 144.21875 139.464844 "/>
<path style="fill-rule:nonzero;fill:rgb(59.607843%,47.45098%,43.529412%);fill-opacity:0.8;stroke-width:0.75;stroke-linecap:round;stroke-linejoin:round;stroke:rgb(97.647059%,97.647059%,97.647059%);stroke-opacity:1;stroke-miterlimit:10;" d="M 161.671875 139.464844 L 179.125 139.464844 L 179.125 117.902344 L 161.671875 117.902344 Z M 161.671875 139.464844 "/>
<path style="fill-rule:nonzero;fill:rgb(59.607843%,47.45098%,43.529412%);fill-opacity:0.8;stroke-width:0.75;stroke-linecap:round;stroke-linejoin:round;stroke:rgb(97.647059%,97.647059%,97.647059%);stroke-opacity:1;stroke-miterlimit:10;" d="M 179.128906 139.464844 L 196.582031 139.464844 L 196.582031 94.949219 L 179.128906 94.949219 Z M 179.128906 139.464844 "/>
<path style="fill-rule:nonzero;fill:rgb(59.607843%,47.45098%,43.529412%);fill-opacity:0.8;stroke-width:0.75;stroke-linecap:round;stroke-linejoin:round;stroke:rgb(97.647059%,97.647059%,97.647059%);stroke-opacity:1;stroke-miterlimit:10;" d="M 196.582031 139.464844 L 214.035156 139.464844 L 214.035156 76.164062 L 196.582031 76.164062 Z M 196.582031 139.464844 "/>
<path style="fill-rule:nonzero;fill:rgb(59.607843%,47.45098%,43.529412%);fill-opacity:0.8;stroke-width:0.75;stroke-linecap:round;stroke-linejoin:round;stroke:rgb(97.647059%,97.647059%,97.647059%);stroke-opacity:1;stroke-miterlimit:10;" d="M 214.035156 139.464844 L 231.488281 139.464844 L 231.488281 62.132812 L 214.035156 62.132812 Z M 214.035156 139.464844 "/>
<path style="fill-rule:nonzero;fill:rgb(59.607843%,47.45098%,43.529412%);fill-opacity:0.8;stroke-width:0.75;stroke-linecap:round;stroke-linejoin:round;stroke:rgb(97.647059%,97.647059%,97.647059%);stroke-opacity:1;stroke-miterlimit:10;" d="M 231.492188 139.464844 L 248.945312 139.464844 L 248.945312 65.492188 L 231.492188 65.492188 Z M 231.492188 139.464844 "/>
<path style="fill-rule:nonzero;fill:rgb(59.607843%,47.45098%,43.529412%);fill-opacity:0.8;stroke-width:0.75;stroke-linecap:round;stroke-linejoin:round;stroke:rgb(97.647059%,97.647059%,97.647059%);stroke-opacity:1;stroke-miterlimit:10;" d="M 248.945312 139.464844 L 266.398438 139.464844 L 266.398438 74.921875 L 248.945312 74.921875 Z M 248.945312 139.464844 "/>
<path style="fill-rule:nonzero;fill:rgb(59.607843%,47.45098%,43.529412%);fill-opacity:0.8;stroke-width:0.75;stroke-linecap:round;stroke-linejoin:round;stroke:rgb(97.647059%,97.647059%,97.647059%);stroke-opacity:1;stroke-miterlimit:10;" d="M 266.398438 139.464844 L 283.851562 139.464844 L 283.851562 80.40625 L 266.398438 80.40625 Z M 266.398438 139.464844 "/>
<path style="fill-rule:nonzero;fill:rgb(59.607843%,47.45098%,43.529412%);fill-opacity:0.8;stroke-width:0.75;stroke-linecap:round;stroke-linejoin:round;stroke:rgb(97.647059%,97.647059%,97.647059%);stroke-opacity:1;stroke-miterlimit:10;" d="M 283.855469 139.464844 L 301.308594 139.464844 L 301.308594 82.597656 L 283.855469 82.597656 Z M 283.855469 139.464844 "/>
<path style="fill-rule:nonzero;fill:rgb(59.607843%,47.45098%,43.529412%);fill-opacity:0.8;stroke-width:0.75;stroke-linecap:round;stroke-linejoin:round;stroke:rgb(97.647059%,97.647059%,97.647059%);stroke-opacity:1;stroke-miterlimit:10;" d="M 301.308594 139.464844 L 318.761719 139.464844 L 318.761719 92.171875 L 301.308594 92.171875 Z M 301.308594 139.464844 "/>
<path style="fill-rule:nonzero;fill:rgb(59.607843%,47.45098%,43.529412%);fill-opacity:0.8;stroke-width:0.75;stroke-linecap:round;stroke-linejoin:round;stroke:rgb(97.647059%,97.647059%,97.647059%);stroke-opacity:1;stroke-miterlimit:10;" d="M 318.761719 139.464844 L 336.214844 139.464844 L 336.214844 93.195312 L 318.761719 93.195312 Z M 318.761719 139.464844 "/>
<path style="fill-rule:nonzero;fill:rgb(59.607843%,47.45098%,43.529412%);fill-opacity:0.8;stroke-width:0.75;stroke-linecap:round;stroke-linejoin:round;stroke:rgb(97.647059%,97.647059%,97.647059%);stroke-opacity:1;stroke-miterlimit:10;" d="M 336.21875 139.464844 L 353.671875 139.464844 L 353.671875 82.304688 L 336.21875 82.304688 Z M 336.21875 139.464844 "/>
<path style="fill-rule:nonzero;fill:rgb(59.607843%,47.45098%,43.529412%);fill-opacity:0.8;stroke-width:0.75;stroke-linecap:round;stroke-linejoin:round;stroke:rgb(97.647059%,97.647059%,97.647059%);stroke-opacity:1;stroke-miterlimit:10;" d="M 353.671875 139.464844 L 371.125 139.464844 L 371.125 77.40625 L 353.671875 77.40625 Z M 353.671875 139.464844 "/>
<path style="fill-rule:nonzero;fill:rgb(59.607843%,47.45098%,43.529412%);fill-opacity:0.8;stroke-width:0.75;stroke-linecap:round;stroke-linejoin:round;stroke:rgb(97.647059%,97.647059%,97.647059%);stroke-opacity:1;stroke-miterlimit:10;" d="M 371.128906 139.464844 L 388.582031 139.464844 L 388.582031 84.570312 L 371.128906 84.570312 Z M 371.128906 139.464844 "/>
<path style="fill-rule:nonzero;fill:rgb(59.607843%,47.45098%,43.529412%);fill-opacity:0.8;stroke-width:0.75;stroke-linecap:round;stroke-linejoin:round;stroke:rgb(97.647059%,97.647059%,97.647059%);stroke-opacity:1;stroke-miterlimit:10;" d="M 388.582031 139.464844 L 406.035156 139.464844 L 406.035156 104.597656 L 388.582031 104.597656 Z M 388.582031 139.464844 "/>
<path style="fill-rule:nonzero;fill:rgb(59.607843%,47.45098%,43.529412%);fill-opacity:0.8;stroke-width:0.75;stroke-linecap:round;stroke-linejoin:round;stroke:rgb(97.647059%,97.647059%,97.647059%);stroke-opacity:1;stroke-miterlimit:10;" d="M 406.035156 139.464844 L 423.488281 139.464844 L 423.488281 124.1875 L 406.035156 124.1875 Z M 406.035156 139.464844 "/>
<path style="fill-rule:nonzero;fill:rgb(59.607843%,47.45098%,43.529412%);fill-opacity:0.8;stroke-width:0.75;stroke-linecap:round;stroke-linejoin:round;stroke:rgb(97.647059%,97.647059%,97.647059%);stroke-opacity:1;stroke-miterlimit:10;" d="M 423.492188 139.464844 L 440.945312 139.464844 L 440.945312 137.199219 L 423.492188 137.199219 Z M 423.492188 139.464844 "/>
<path style="fill-rule:nonzero;fill:rgb(59.607843%,47.45098%,43.529412%);fill-opacity:0.8;stroke-width:0.75;stroke-linecap:round;stroke-linejoin:round;stroke:rgb(97.647059%,97.647059%,97.647059%);stroke-opacity:1;stroke-miterlimit:10;" d="M 440.945312 139.464844 L 458.398438 139.464844 L 458.398438 139.390625 L 440.945312 139.390625 Z M 440.945312 139.464844 "/>
</g>
</svg>
