<?xml version="1.0" encoding="UTF-8"?>
<svg xmlns="http://www.w3.org/2000/svg" xmlns:xlink="http://www.w3.org/1999/xlink" width="504pt" height="216pt" viewBox="0 0 504 216" version="1.1">
<g id="surface420">
<path style=" stroke:none;fill-rule:nonzero;fill:rgb(3.529412%,3.529412%,3.529412%);fill-opacity:1;" d="M 255.238281 25.160156 L 255.238281 27.03125 L 256.257812 27.03125 L 256.257812 28.527344 L 255.238281 28.527344 L 255.238281 32.390625 L 255.242188 32.472656 L 255.25 32.550781 L 255.257812 32.621094 L 255.269531 32.683594 L 255.28125 32.742188 L 255.296875 32.796875 L 255.3125 32.84375 L 255.335938 32.886719 L 255.355469 32.921875 L 255.386719 32.957031 L 255.417969 32.984375 L 255.453125 33.007812 L 255.496094 33.03125 L 255.539062 33.050781 L 255.589844 33.066406 L 255.644531 33.078125 L 255.703125 33.085938 L 255.765625 33.089844 L 255.835938 33.09375 L 255.890625 33.089844 L 255.945312 33.089844 L 256 33.085938 L 256.050781 33.085938 L 256.097656 33.078125 L 256.144531 33.074219 L 256.230469 33.058594 L 256.269531 33.050781 L 256.304688 33.042969 L 256.292969 34.589844 L 256.191406 34.625 L 255.980469 34.6875 L 255.875 34.710938 L 255.65625 34.75 L 255.429688 34.773438 L 255.195312 34.78125 L 254.828125 34.757812 L 254.5 34.691406 L 254.210938 34.582031 L 253.960938 34.425781 L 253.746094 34.226562 L 253.570312 33.984375 L 253.433594 33.699219 L 253.332031 33.367188 L 253.269531 32.992188 L 253.246094 32.570312 L 253.246094 28.527344 L 252.367188 28.527344 L 252.367188 27.03125 L 253.246094 27.03125 L 253.246094 25.160156 Z M 255.238281 25.160156 "/>
<path style=" stroke:none;fill-rule:nonzero;fill:rgb(3.529412%,3.529412%,3.529412%);fill-opacity:1;" d="M 259.21875 27.03125 L 259.273438 27.734375 L 259.410156 27.574219 L 259.558594 27.429688 L 259.714844 27.304688 L 259.875 27.195312 L 260.050781 27.101562 L 260.230469 27.023438 L 260.417969 26.964844 L 260.617188 26.925781 L 260.824219 26.898438 L 261.039062 26.890625 L 261.261719 26.902344 L 261.46875 26.929688 L 261.660156 26.984375 L 261.84375 27.054688 L 262.011719 27.148438 L 262.164062 27.261719 L 262.304688 27.394531 L 262.433594 27.546875 L 262.546875 27.722656 L 262.648438 27.917969 L 262.785156 27.722656 L 262.933594 27.546875 L 263.089844 27.394531 L 263.261719 27.261719 L 263.441406 27.148438 L 263.632812 27.054688 L 263.835938 26.984375 L 264.050781 26.929688 L 264.277344 26.902344 L 264.511719 26.890625 L 264.890625 26.917969 L 265.234375 27 L 265.535156 27.140625 L 265.796875 27.332031 L 266.023438 27.582031 L 266.207031 27.886719 L 266.351562 28.246094 L 266.460938 28.660156 L 266.527344 29.128906 L 266.558594 29.652344 L 266.558594 34.640625 L 264.570312 34.640625 L 264.570312 29.78125 L 264.566406 29.652344 L 264.5625 29.53125 L 264.550781 29.417969 L 264.539062 29.3125 L 264.523438 29.214844 L 264.503906 29.125 L 264.480469 29.039062 L 264.453125 28.964844 L 264.421875 28.898438 L 264.386719 28.839844 L 264.347656 28.785156 L 264.300781 28.738281 L 264.253906 28.695312 L 264.199219 28.65625 L 264.140625 28.628906 L 264.074219 28.601562 L 264.003906 28.582031 L 263.929688 28.566406 L 263.851562 28.558594 L 263.765625 28.558594 L 263.660156 28.5625 L 263.554688 28.585938 L 263.457031 28.617188 L 263.367188 28.664062 L 263.28125 28.726562 L 263.203125 28.800781 L 263.125 28.890625 L 263.058594 28.992188 L 262.996094 29.109375 L 262.9375 29.238281 L 262.953125 29.476562 L 262.953125 34.640625 L 260.960938 34.640625 L 260.960938 29.667969 L 260.953125 29.546875 L 260.945312 29.433594 L 260.933594 29.328125 L 260.917969 29.230469 L 260.898438 29.140625 L 260.875 29.058594 L 260.847656 28.980469 L 260.820312 28.914062 L 260.785156 28.851562 L 260.746094 28.796875 L 260.703125 28.746094 L 260.65625 28.703125 L 260.601562 28.664062 L 260.542969 28.628906 L 260.476562 28.605469 L 260.40625 28.582031 L 260.328125 28.570312 L 260.246094 28.558594 L 260.160156 28.558594 L 260.058594 28.5625 L 259.960938 28.578125 L 259.871094 28.605469 L 259.78125 28.644531 L 259.699219 28.695312 L 259.621094 28.757812 L 259.542969 28.828125 L 259.472656 28.914062 L 259.40625 29.007812 L 259.34375 29.113281 L 259.34375 34.640625 L 257.355469 34.640625 L 257.355469 27.03125 Z M 259.21875 27.03125 "/>
<path style=" stroke:none;fill-rule:nonzero;fill:rgb(3.529412%,3.529412%,3.529412%);fill-opacity:1;" d="M 271.640625 34.640625 L 271.625 34.601562 L 271.609375 34.558594 L 271.589844 34.511719 L 271.574219 34.460938 L 271.558594 34.402344 L 271.539062 34.339844 L 271.523438 34.277344 L 271.507812 34.203125 L 271.488281 34.128906 L 271.472656 34.046875 L 271.363281 34.1875 L 271.242188 34.3125 L 271.117188 34.421875 L 270.984375 34.515625 L 270.84375 34.597656 L 270.695312 34.664062 L 270.539062 34.714844 L 270.375 34.75 L 270.203125 34.773438 L 270.023438 34.78125 L 269.835938 34.773438 L 269.65625 34.753906 L 269.480469 34.722656 L 269.3125 34.679688 L 269.148438 34.621094 L 268.992188 34.550781 L 268.84375 34.46875 L 268.703125 34.375 L 268.566406 34.265625 L 268.4375 34.148438 L 268.316406 34.015625 L 268.210938 33.878906 L 268.117188 33.734375 L 268.035156 33.582031 L 267.964844 33.421875 L 267.910156 33.253906 L 267.867188 33.078125 L 267.835938 32.894531 L 267.816406 32.707031 L 267.808594 32.507812 L 267.816406 32.273438 L 267.839844 32.050781 L 267.878906 31.839844 L 267.929688 31.636719 L 268 31.449219 L 268.082031 31.269531 L 268.183594 31.101562 L 268.296875 30.941406 L 268.425781 30.796875 L 268.570312 30.660156 L 268.730469 30.535156 L 268.902344 30.421875 L 269.089844 30.324219 L 269.289062 30.238281 L 269.503906 30.164062 L 269.730469 30.105469 L 269.96875 30.058594 L 270.222656 30.023438 L 270.488281 30 L 270.769531 29.992188 L 271.375 29.992188 L 271.375 29.378906 L 271.371094 29.28125 L 271.367188 29.1875 L 271.359375 29.097656 L 271.347656 29.015625 L 271.332031 28.941406 L 271.3125 28.871094 L 271.289062 28.808594 L 271.261719 28.75 L 271.230469 28.699219 L 271.199219 28.65625 L 271.160156 28.613281 L 271.121094 28.578125 L 271.078125 28.546875 L 271.03125 28.519531 L 270.984375 28.496094 L 270.929688 28.476562 L 270.875 28.464844 L 270.8125 28.453125 L 270.75 28.445312 L 270.6875 28.445312 L 270.542969 28.453125 L 270.417969 28.480469 L 270.304688 28.523438 L 270.207031 28.582031 L 270.125 28.664062 L 270.058594 28.757812 L 270.007812 28.871094 L 269.96875 29.003906 L 269.949219 29.152344 L 269.941406 29.316406 L 267.949219 29.316406 L 267.957031 29.109375 L 267.980469 28.910156 L 268.019531 28.71875 L 268.078125 28.53125 L 268.148438 28.355469 L 268.234375 28.183594 L 268.335938 28.023438 L 268.453125 27.867188 L 268.589844 27.71875 L 268.738281 27.578125 L 268.902344 27.449219 L 269.074219 27.332031 L 269.25 27.226562 L 269.441406 27.136719 L 269.636719 27.0625 L 269.839844 27 L 270.054688 26.953125 L 270.273438 26.917969 L 270.503906 26.898438 L 270.742188 26.890625 L 270.988281 26.898438 L 271.21875 26.917969 L 271.441406 26.949219 L 271.652344 26.996094 L 271.851562 27.054688 L 272.039062 27.125 L 272.214844 27.210938 L 272.378906 27.308594 L 272.535156 27.421875 L 272.675781 27.542969 L 272.804688 27.679688 L 272.921875 27.824219 L 273.027344 27.984375 L 273.117188 28.152344 L 273.191406 28.332031 L 273.253906 28.523438 L 273.300781 28.726562 L 273.335938 28.9375 L 273.359375 29.164062 L 273.363281 29.402344 L 273.363281 32.980469 L 273.371094 33.171875 L 273.378906 33.355469 L 273.394531 33.53125 L 273.417969 33.699219 L 273.441406 33.855469 L 273.472656 34.007812 L 273.507812 34.148438 L 273.550781 34.28125 L 273.59375 34.402344 L 273.644531 34.519531 L 273.644531 34.640625 Z M 270.46875 33.21875 L 270.53125 33.21875 L 270.597656 33.214844 L 270.65625 33.207031 L 270.773438 33.183594 L 270.828125 33.171875 L 270.882812 33.152344 L 270.933594 33.132812 L 270.984375 33.109375 L 271.03125 33.085938 L 271.117188 33.03125 L 271.160156 33 L 271.265625 32.90625 L 271.296875 32.875 L 271.351562 32.804688 L 271.375 32.769531 L 271.375 31.1875 L 270.898438 31.1875 L 270.796875 31.191406 L 270.703125 31.199219 L 270.613281 31.214844 L 270.523438 31.238281 L 270.441406 31.265625 L 270.363281 31.304688 L 270.292969 31.34375 L 270.222656 31.394531 L 270.15625 31.449219 L 270.09375 31.511719 L 270.039062 31.578125 L 269.992188 31.648438 L 269.949219 31.722656 L 269.910156 31.804688 L 269.878906 31.886719 L 269.851562 31.976562 L 269.832031 32.070312 L 269.816406 32.167969 L 269.808594 32.269531 L 269.804688 32.375 L 269.8125 32.535156 L 269.832031 32.679688 L 269.867188 32.804688 L 269.914062 32.914062 L 269.972656 33.007812 L 270.042969 33.082031 L 270.128906 33.140625 L 270.230469 33.183594 L 270.34375 33.210938 Z M 270.46875 33.21875 "/>
<path style=" stroke:none;fill-rule:nonzero;fill:rgb(3.529412%,3.529412%,3.529412%);fill-opacity:1;" d="M 277.351562 29.289062 L 278.238281 27.03125 L 280.347656 27.03125 L 278.609375 30.75 L 280.410156 34.640625 L 278.292969 34.640625 L 277.359375 32.253906 L 276.429688 34.640625 L 274.304688 34.640625 L 276.105469 30.75 L 274.382812 27.03125 L 276.5 27.03125 Z M 277.351562 29.289062 "/>
<path style=" stroke:none;fill-rule:nonzero;fill:rgb(3.529412%,3.529412%,3.529412%);fill-opacity:1;" d="M 9.191406 120.328125 L 9.191406 123.210938 L 12.960938 123.210938 L 12.960938 124.285156 L 4.429688 124.285156 L 4.429688 119.84375 L 5.355469 119.84375 L 5.355469 123.210938 L 8.273438 123.210938 L 8.273438 120.328125 Z M 9.191406 120.328125 "/>
<path style=" stroke:none;fill-rule:nonzero;fill:rgb(3.529412%,3.529412%,3.529412%);fill-opacity:1;" d="M 7.59375 116.046875 L 7.578125 116.132812 L 7.570312 116.179688 L 7.554688 116.367188 L 7.554688 116.414062 L 7.550781 116.464844 L 7.550781 116.515625 L 7.558594 116.667969 L 7.585938 116.8125 L 7.628906 116.949219 L 7.691406 117.074219 L 7.769531 117.191406 L 7.867188 117.296875 L 7.980469 117.394531 L 8.109375 117.480469 L 8.257812 117.558594 L 8.425781 117.628906 L 12.960938 117.628906 L 12.960938 118.664062 L 6.621094 118.664062 L 6.621094 117.65625 L 7.265625 117.640625 L 7.121094 117.554688 L 6.992188 117.460938 L 6.875 117.359375 L 6.777344 117.25 L 6.695312 117.136719 L 6.625 117.015625 L 6.570312 116.886719 L 6.535156 116.753906 L 6.511719 116.609375 L 6.503906 116.460938 L 6.503906 116.414062 L 6.511719 116.320312 L 6.515625 116.277344 L 6.523438 116.238281 L 6.53125 116.195312 L 6.542969 116.15625 L 6.554688 116.121094 L 6.585938 116.050781 Z M 7.59375 116.046875 "/>
<path style=" stroke:none;fill-rule:nonzero;fill:rgb(3.529412%,3.529412%,3.529412%);fill-opacity:1;" d="M 13.078125 112.746094 L 13.070312 112.976562 L 13.050781 113.199219 L 13.015625 113.40625 L 12.964844 113.605469 L 12.902344 113.792969 L 12.824219 113.96875 L 12.734375 114.132812 L 12.628906 114.289062 L 12.507812 114.429688 L 12.375 114.5625 L 12.226562 114.683594 L 12.0625 114.792969 L 11.890625 114.886719 L 11.703125 114.96875 L 11.5 115.042969 L 11.285156 115.097656 L 11.058594 115.144531 L 10.820312 115.179688 L 10.566406 115.199219 L 10.300781 115.207031 L 9.53125 115.207031 L 9.253906 115.203125 L 8.988281 115.183594 L 8.738281 115.152344 L 8.496094 115.109375 L 8.269531 115.054688 L 8.050781 114.988281 L 7.847656 114.90625 L 7.65625 114.816406 L 7.476562 114.710938 L 7.3125 114.59375 L 7.15625 114.464844 L 7.019531 114.324219 L 6.898438 114.175781 L 6.792969 114.019531 L 6.707031 113.851562 L 6.632812 113.671875 L 6.574219 113.484375 L 6.535156 113.289062 L 6.511719 113.082031 L 6.503906 112.863281 L 6.511719 112.648438 L 6.53125 112.441406 L 6.566406 112.246094 L 6.617188 112.0625 L 6.679688 111.890625 L 6.757812 111.730469 L 6.851562 111.582031 L 6.957031 111.441406 L 7.078125 111.316406 L 7.210938 111.199219 L 7.363281 111.09375 L 7.527344 111 L 7.707031 110.917969 L 7.90625 110.847656 L 8.117188 110.785156 L 8.347656 110.734375 L 8.59375 110.695312 L 8.851562 110.664062 L 9.128906 110.644531 L 9.421875 110.636719 L 10.101562 110.636719 L 10.101562 114.175781 L 10.246094 114.175781 L 10.445312 114.171875 L 10.632812 114.160156 L 10.808594 114.144531 L 10.972656 114.117188 L 11.128906 114.082031 L 11.269531 114.039062 L 11.402344 113.992188 L 11.523438 113.933594 L 11.632812 113.867188 L 11.730469 113.796875 L 11.816406 113.714844 L 11.894531 113.628906 L 11.964844 113.535156 L 12.027344 113.433594 L 12.078125 113.324219 L 12.117188 113.210938 L 12.152344 113.089844 L 12.175781 112.964844 L 12.1875 112.828125 L 12.191406 112.6875 L 12.191406 112.597656 L 12.1875 112.511719 L 12.164062 112.339844 L 12.148438 112.257812 L 12.132812 112.179688 L 12.109375 112.101562 L 12.082031 112.027344 L 12.054688 111.957031 L 12.023438 111.886719 L 11.945312 111.746094 L 11.851562 111.613281 L 11.796875 111.546875 L 11.738281 111.480469 L 11.679688 111.417969 L 11.613281 111.351562 L 11.542969 111.292969 L 11.472656 111.230469 L 12.128906 110.691406 L 12.308594 110.832031 L 12.46875 110.988281 L 12.613281 111.160156 L 12.734375 111.34375 L 12.839844 111.542969 L 12.925781 111.753906 L 12.992188 111.980469 L 13.039062 112.222656 L 13.066406 112.476562 Z M 7.394531 112.863281 L 7.398438 112.988281 L 7.410156 113.109375 L 7.433594 113.222656 L 7.464844 113.328125 L 7.503906 113.425781 L 7.554688 113.519531 L 7.613281 113.601562 L 7.679688 113.683594 L 7.753906 113.753906 L 7.839844 113.820312 L 7.933594 113.878906 L 8.035156 113.933594 L 8.148438 113.980469 L 8.269531 114.023438 L 8.402344 114.0625 L 8.542969 114.09375 L 8.695312 114.121094 L 8.855469 114.144531 L 9.027344 114.160156 L 9.210938 114.171875 L 9.210938 111.675781 L 9.070312 111.675781 L 8.894531 111.6875 L 8.730469 111.703125 L 8.574219 111.722656 L 8.429688 111.746094 L 8.296875 111.777344 L 8.171875 111.8125 L 8.058594 111.851562 L 7.957031 111.898438 L 7.863281 111.949219 L 7.78125 112.003906 L 7.707031 112.0625 L 7.640625 112.128906 L 7.582031 112.199219 L 7.53125 112.277344 L 7.492188 112.359375 L 7.457031 112.449219 L 7.429688 112.542969 L 7.410156 112.644531 L 7.398438 112.75 Z M 7.394531 112.863281 "/>
<path style=" stroke:none;fill-rule:nonzero;fill:rgb(3.529412%,3.529412%,3.529412%);fill-opacity:1;" d="M 9.503906 109.613281 L 9.214844 109.605469 L 8.9375 109.589844 L 8.679688 109.5625 L 8.433594 109.527344 L 8.203125 109.476562 L 7.984375 109.417969 L 7.785156 109.347656 L 7.597656 109.265625 L 7.421875 109.175781 L 7.265625 109.074219 L 7.121094 108.960938 L 6.992188 108.835938 L 6.875 108.703125 L 6.777344 108.558594 L 6.695312 108.402344 L 6.625 108.238281 L 6.570312 108.058594 L 6.535156 107.875 L 6.511719 107.675781 L 6.503906 107.46875 L 6.511719 107.289062 L 6.53125 107.117188 L 6.570312 106.953125 L 6.621094 106.796875 L 6.6875 106.652344 L 6.769531 106.511719 L 6.863281 106.382812 L 6.976562 106.257812 L 7.101562 106.144531 L 7.242188 106.039062 L 6.621094 105.992188 L 6.621094 105.042969 L 15.398438 105.042969 L 15.398438 106.078125 L 12.402344 106.078125 L 12.53125 106.183594 L 12.644531 106.296875 L 12.746094 106.417969 L 12.835938 106.542969 L 12.910156 106.679688 L 12.96875 106.824219 L 13.015625 106.972656 L 13.050781 107.132812 L 13.070312 107.300781 L 13.078125 107.472656 L 13.070312 107.675781 L 13.046875 107.863281 L 13.011719 108.046875 L 12.957031 108.21875 L 12.890625 108.378906 L 12.808594 108.535156 L 12.710938 108.675781 L 12.601562 108.8125 L 12.472656 108.933594 L 12.332031 109.050781 L 12.175781 109.15625 L 12.003906 109.25 L 11.820312 109.332031 L 11.625 109.40625 L 11.414062 109.464844 L 11.1875 109.515625 L 10.949219 109.558594 L 10.699219 109.585938 L 10.433594 109.605469 L 10.152344 109.613281 Z M 10.09375 108.574219 L 10.300781 108.570312 L 10.5 108.5625 L 10.683594 108.546875 L 10.859375 108.523438 L 11.023438 108.492188 L 11.175781 108.457031 L 11.316406 108.414062 L 11.449219 108.367188 L 11.566406 108.308594 L 11.675781 108.246094 L 11.773438 108.179688 L 11.863281 108.101562 L 11.941406 108.015625 L 12.007812 107.921875 L 12.0625 107.824219 L 12.109375 107.714844 L 12.144531 107.597656 L 12.171875 107.476562 L 12.1875 107.34375 L 12.191406 107.203125 L 12.183594 107.0625 L 12.164062 106.925781 L 12.128906 106.796875 L 12.082031 106.675781 L 12.019531 106.558594 L 11.941406 106.449219 L 11.851562 106.347656 L 11.746094 106.25 L 11.628906 106.164062 L 11.496094 106.078125 L 8.097656 106.078125 L 7.964844 106.167969 L 7.84375 106.257812 L 7.738281 106.355469 L 7.648438 106.460938 L 7.570312 106.570312 L 7.507812 106.683594 L 7.457031 106.804688 L 7.421875 106.929688 L 7.402344 107.0625 L 7.394531 107.199219 L 7.398438 107.335938 L 7.414062 107.46875 L 7.441406 107.59375 L 7.476562 107.707031 L 7.523438 107.816406 L 7.578125 107.917969 L 7.644531 108.007812 L 7.722656 108.09375 L 7.8125 108.171875 L 7.910156 108.242188 L 8.015625 108.304688 L 8.136719 108.359375 L 8.265625 108.410156 L 8.40625 108.453125 L 8.554688 108.488281 L 8.714844 108.519531 L 8.886719 108.542969 L 9.066406 108.558594 L 9.257812 108.570312 L 9.460938 108.574219 Z M 10.09375 108.574219 "/>
<path style=" stroke:none;fill-rule:nonzero;fill:rgb(3.529412%,3.529412%,3.529412%);fill-opacity:1;" d="M 12.402344 100.15625 L 12.53125 100.261719 L 12.644531 100.378906 L 12.746094 100.507812 L 12.835938 100.644531 L 12.910156 100.789062 L 12.96875 100.945312 L 13.015625 101.109375 L 13.050781 101.285156 L 13.070312 101.46875 L 13.078125 101.660156 L 13.070312 101.828125 L 13.054688 101.988281 L 13.023438 102.140625 L 12.984375 102.28125 L 12.929688 102.417969 L 12.863281 102.542969 L 12.789062 102.660156 L 12.699219 102.769531 L 12.597656 102.871094 L 12.484375 102.960938 L 12.359375 103.046875 L 12.226562 103.121094 L 12.078125 103.1875 L 11.921875 103.246094 L 11.753906 103.292969 L 11.574219 103.332031 L 11.382812 103.363281 L 11.183594 103.386719 L 10.972656 103.402344 L 10.75 103.40625 L 6.621094 103.40625 L 6.621094 102.375 L 10.675781 102.375 L 10.957031 102.367188 L 11.207031 102.339844 L 11.429688 102.296875 L 11.625 102.234375 L 11.785156 102.152344 L 11.921875 102.054688 L 12.023438 101.941406 L 12.097656 101.804688 L 12.140625 101.65625 L 12.15625 101.484375 L 12.148438 101.304688 L 12.125 101.132812 L 12.082031 100.972656 L 12.023438 100.824219 L 11.945312 100.6875 L 11.851562 100.566406 L 11.742188 100.453125 L 11.617188 100.351562 L 11.472656 100.261719 L 11.3125 100.183594 L 6.621094 100.183594 L 6.621094 99.148438 L 12.960938 99.148438 L 12.960938 100.132812 Z M 12.402344 100.15625 "/>
<path style=" stroke:none;fill-rule:nonzero;fill:rgb(3.529412%,3.529412%,3.529412%);fill-opacity:1;" d="M 13.078125 95.320312 L 13.070312 95.550781 L 13.050781 95.773438 L 13.015625 95.980469 L 12.964844 96.179688 L 12.902344 96.367188 L 12.824219 96.542969 L 12.734375 96.707031 L 12.628906 96.863281 L 12.507812 97.003906 L 12.375 97.136719 L 12.226562 97.257812 L 12.0625 97.367188 L 11.890625 97.460938 L 11.703125 97.542969 L 11.5 97.617188 L 11.285156 97.671875 L 11.058594 97.71875 L 10.820312 97.753906 L 10.566406 97.773438 L 10.300781 97.78125 L 9.53125 97.78125 L 9.253906 97.777344 L 8.988281 97.757812 L 8.738281 97.726562 L 8.496094 97.683594 L 8.269531 97.628906 L 8.050781 97.5625 L 7.847656 97.480469 L 7.65625 97.390625 L 7.476562 97.285156 L 7.3125 97.167969 L 7.15625 97.039062 L 7.019531 96.898438 L 6.898438 96.75 L 6.792969 96.59375 L 6.707031 96.425781 L 6.632812 96.246094 L 6.574219 96.058594 L 6.535156 95.863281 L 6.511719 95.65625 L 6.503906 95.4375 L 6.511719 95.222656 L 6.53125 95.015625 L 6.566406 94.820312 L 6.617188 94.636719 L 6.679688 94.464844 L 6.757812 94.304688 L 6.851562 94.15625 L 6.957031 94.015625 L 7.078125 93.890625 L 7.210938 93.773438 L 7.363281 93.667969 L 7.527344 93.574219 L 7.707031 93.492188 L 7.90625 93.421875 L 8.117188 93.359375 L 8.347656 93.308594 L 8.59375 93.269531 L 8.851562 93.238281 L 9.128906 93.21875 L 9.421875 93.210938 L 10.101562 93.210938 L 10.101562 96.75 L 10.246094 96.75 L 10.445312 96.746094 L 10.632812 96.734375 L 10.808594 96.71875 L 10.972656 96.691406 L 11.128906 96.65625 L 11.269531 96.613281 L 11.402344 96.566406 L 11.523438 96.507812 L 11.632812 96.441406 L 11.730469 96.371094 L 11.816406 96.289062 L 11.894531 96.203125 L 11.964844 96.109375 L 12.027344 96.007812 L 12.078125 95.898438 L 12.117188 95.785156 L 12.152344 95.664062 L 12.175781 95.539062 L 12.1875 95.402344 L 12.191406 95.261719 L 12.191406 95.171875 L 12.1875 95.085938 L 12.164062 94.914062 L 12.148438 94.832031 L 12.132812 94.753906 L 12.109375 94.675781 L 12.082031 94.601562 L 12.054688 94.53125 L 12.023438 94.460938 L 11.945312 94.320312 L 11.851562 94.1875 L 11.796875 94.121094 L 11.738281 94.054688 L 11.679688 93.992188 L 11.613281 93.925781 L 11.542969 93.867188 L 11.472656 93.804688 L 12.128906 93.265625 L 12.308594 93.40625 L 12.46875 93.5625 L 12.613281 93.734375 L 12.734375 93.917969 L 12.839844 94.117188 L 12.925781 94.328125 L 12.992188 94.554688 L 13.039062 94.796875 L 13.066406 95.050781 Z M 7.394531 95.4375 L 7.398438 95.5625 L 7.410156 95.683594 L 7.433594 95.796875 L 7.464844 95.902344 L 7.503906 96 L 7.554688 96.09375 L 7.613281 96.175781 L 7.679688 96.257812 L 7.753906 96.328125 L 7.839844 96.394531 L 7.933594 96.453125 L 8.035156 96.507812 L 8.148438 96.554688 L 8.269531 96.597656 L 8.402344 96.636719 L 8.542969 96.667969 L 8.695312 96.695312 L 8.855469 96.71875 L 9.027344 96.734375 L 9.210938 96.746094 L 9.210938 94.25 L 9.070312 94.25 L 8.894531 94.261719 L 8.730469 94.277344 L 8.574219 94.296875 L 8.429688 94.320312 L 8.296875 94.351562 L 8.171875 94.386719 L 8.058594 94.425781 L 7.957031 94.472656 L 7.863281 94.523438 L 7.78125 94.578125 L 7.707031 94.636719 L 7.640625 94.703125 L 7.582031 94.773438 L 7.53125 94.851562 L 7.492188 94.933594 L 7.457031 95.023438 L 7.429688 95.117188 L 7.410156 95.21875 L 7.398438 95.324219 Z M 7.394531 95.4375 "/>
<path style=" stroke:none;fill-rule:nonzero;fill:rgb(3.529412%,3.529412%,3.529412%);fill-opacity:1;" d="M 6.621094 90.992188 L 7.304688 90.960938 L 7.152344 90.839844 L 7.015625 90.707031 L 6.894531 90.570312 L 6.792969 90.425781 L 6.703125 90.273438 L 6.632812 90.117188 L 6.574219 89.953125 L 6.535156 89.78125 L 6.511719 89.605469 L 6.503906 89.421875 L 6.527344 89.101562 L 6.59375 88.816406 L 6.703125 88.5625 L 6.863281 88.339844 L 7.0625 88.152344 L 7.3125 88 L 7.601562 87.878906 L 7.9375 87.792969 L 8.320312 87.738281 L 8.746094 87.714844 L 12.960938 87.714844 L 12.960938 88.746094 L 8.792969 88.746094 L 8.648438 88.75 L 8.511719 88.757812 L 8.386719 88.769531 L 8.269531 88.789062 L 8.160156 88.808594 L 8.058594 88.839844 L 7.964844 88.871094 L 7.878906 88.910156 L 7.804688 88.953125 L 7.738281 89 L 7.679688 89.050781 L 7.625 89.109375 L 7.578125 89.167969 L 7.535156 89.238281 L 7.503906 89.308594 L 7.472656 89.386719 L 7.453125 89.46875 L 7.433594 89.554688 L 7.425781 89.644531 L 7.421875 89.742188 L 7.425781 89.820312 L 7.433594 89.894531 L 7.445312 89.96875 L 7.464844 90.039062 L 7.488281 90.109375 L 7.515625 90.179688 L 7.585938 90.3125 L 7.632812 90.378906 L 7.679688 90.441406 L 7.789062 90.558594 L 7.851562 90.613281 L 7.976562 90.714844 L 8.046875 90.765625 L 8.195312 90.851562 L 8.273438 90.894531 L 8.355469 90.933594 L 12.960938 90.933594 L 12.960938 91.96875 L 6.621094 91.96875 Z M 6.621094 90.992188 "/>
<path style=" stroke:none;fill-rule:nonzero;fill:rgb(3.529412%,3.529412%,3.529412%);fill-opacity:1;" d="M 12.191406 83.960938 L 12.1875 83.859375 L 12.179688 83.761719 L 12.164062 83.667969 L 12.140625 83.582031 L 12.113281 83.496094 L 12.078125 83.414062 L 12.039062 83.339844 L 11.988281 83.265625 L 11.9375 83.199219 L 11.875 83.132812 L 11.808594 83.074219 L 11.734375 83.019531 L 11.660156 82.972656 L 11.574219 82.929688 L 11.488281 82.894531 L 11.390625 82.863281 L 11.292969 82.835938 L 11.1875 82.816406 L 11.078125 82.804688 L 10.960938 82.792969 L 10.960938 81.816406 L 11.140625 81.828125 L 11.316406 81.851562 L 11.484375 81.890625 L 11.644531 81.9375 L 11.796875 81.996094 L 11.945312 82.066406 L 12.089844 82.148438 L 12.226562 82.242188 L 12.355469 82.347656 L 12.480469 82.464844 L 12.59375 82.589844 L 12.695312 82.722656 L 12.785156 82.855469 L 12.863281 82.996094 L 12.929688 83.144531 L 12.980469 83.296875 L 13.023438 83.453125 L 13.054688 83.617188 L 13.070312 83.785156 L 13.078125 83.960938 L 13.070312 84.191406 L 13.046875 84.410156 L 13.011719 84.617188 L 12.960938 84.8125 L 12.894531 85 L 12.8125 85.171875 L 12.714844 85.335938 L 12.605469 85.488281 L 12.480469 85.628906 L 12.339844 85.757812 L 12.183594 85.875 L 12.011719 85.980469 L 11.828125 86.074219 L 11.628906 86.152344 L 11.414062 86.21875 L 11.1875 86.277344 L 10.945312 86.320312 L 10.6875 86.351562 L 10.414062 86.367188 L 10.128906 86.375 L 9.433594 86.375 L 9.152344 86.367188 L 8.886719 86.351562 L 8.632812 86.320312 L 8.394531 86.277344 L 8.171875 86.21875 L 7.957031 86.152344 L 7.761719 86.074219 L 7.578125 85.980469 L 7.410156 85.875 L 7.253906 85.757812 L 7.109375 85.628906 L 6.984375 85.492188 L 6.871094 85.339844 L 6.773438 85.175781 L 6.691406 85.003906 L 6.621094 84.816406 L 6.570312 84.621094 L 6.53125 84.414062 L 6.511719 84.195312 L 6.503906 83.964844 L 6.507812 83.777344 L 6.527344 83.59375 L 6.558594 83.417969 L 6.601562 83.253906 L 6.65625 83.09375 L 6.722656 82.945312 L 6.804688 82.800781 L 6.898438 82.667969 L 7 82.542969 L 7.117188 82.425781 L 7.246094 82.316406 L 7.382812 82.21875 L 7.527344 82.128906 L 7.683594 82.050781 L 7.847656 81.984375 L 8.019531 81.929688 L 8.199219 81.886719 L 8.390625 81.851562 L 8.589844 81.828125 L 8.800781 81.816406 L 8.800781 82.792969 L 8.664062 82.804688 L 8.53125 82.820312 L 8.410156 82.839844 L 8.292969 82.867188 L 8.183594 82.898438 L 8.082031 82.933594 L 7.988281 82.976562 L 7.898438 83.023438 L 7.820312 83.074219 L 7.746094 83.132812 L 7.679688 83.195312 L 7.617188 83.261719 L 7.566406 83.335938 L 7.519531 83.410156 L 7.480469 83.492188 L 7.449219 83.578125 L 7.425781 83.667969 L 7.40625 83.761719 L 7.398438 83.863281 L 7.394531 83.964844 L 7.398438 84.101562 L 7.410156 84.226562 L 7.433594 84.347656 L 7.464844 84.460938 L 7.507812 84.566406 L 7.558594 84.667969 L 7.617188 84.757812 L 7.6875 84.84375 L 7.765625 84.921875 L 7.851562 84.992188 L 7.945312 85.054688 L 8.054688 85.113281 L 8.175781 85.164062 L 8.304688 85.207031 L 8.449219 85.246094 L 8.601562 85.277344 L 8.769531 85.300781 L 8.949219 85.320312 L 9.136719 85.332031 L 9.339844 85.335938 L 10.148438 85.335938 L 10.363281 85.332031 L 10.570312 85.324219 L 10.761719 85.308594 L 10.9375 85.285156 L 11.101562 85.253906 L 11.253906 85.21875 L 11.394531 85.175781 L 11.519531 85.128906 L 11.628906 85.070312 L 11.730469 85.007812 L 11.816406 84.9375 L 11.894531 84.859375 L 11.964844 84.773438 L 12.027344 84.679688 L 12.078125 84.578125 L 12.117188 84.472656 L 12.152344 84.355469 L 12.175781 84.230469 L 12.1875 84.097656 Z M 12.191406 83.960938 "/>
<path style=" stroke:none;fill-rule:nonzero;fill:rgb(3.529412%,3.529412%,3.529412%);fill-opacity:1;" d="M 11.238281 78.886719 L 6.621094 77.730469 L 6.621094 76.628906 L 13.855469 78.703125 L 14.015625 78.753906 L 14.167969 78.804688 L 14.308594 78.863281 L 14.445312 78.921875 L 14.574219 78.988281 L 14.691406 79.054688 L 14.804688 79.128906 L 14.910156 79.203125 L 15.003906 79.28125 L 15.09375 79.367188 L 15.175781 79.453125 L 15.246094 79.542969 L 15.3125 79.632812 L 15.367188 79.726562 L 15.414062 79.824219 L 15.453125 79.921875 L 15.480469 80.023438 L 15.503906 80.125 L 15.515625 80.230469 L 15.519531 80.339844 L 15.519531 80.382812 L 15.511719 80.476562 L 15.496094 80.578125 L 15.488281 80.632812 L 15.472656 80.691406 L 15.460938 80.75 L 15.445312 80.8125 L 15.425781 80.878906 L 14.546875 80.878906 L 14.570312 80.648438 L 14.570312 80.5625 L 14.5625 80.476562 L 14.550781 80.398438 L 14.535156 80.320312 L 14.515625 80.25 L 14.492188 80.179688 L 14.464844 80.117188 L 14.433594 80.054688 L 14.355469 79.945312 L 14.308594 79.894531 L 14.257812 79.847656 L 14.199219 79.800781 L 14.136719 79.757812 L 14.066406 79.714844 L 13.988281 79.671875 L 13.902344 79.632812 L 13.816406 79.597656 L 13.71875 79.5625 L 13.617188 79.53125 L 12.90625 79.324219 L 6.621094 81.1875 L 6.621094 80.058594 Z M 11.238281 78.886719 "/>
<path style="fill:none;stroke-width:0.75;stroke-linecap:round;stroke-linejoin:round;stroke:rgb(3.529412%,3.529412%,3.529412%);stroke-opacity:1;stroke-miterlimit:10;" d="M 144.21875 142.558594 L 406.035156 142.558594 "/>
<path style="fill:none;stroke-width:0.75;stroke-linecap:round;stroke-linejoin:round;stroke:rgb(3.529412%,3.529412%,3.529412%);stroke-opacity:1;stroke-miterlimit:10;" d="M 144.21875 142.558594 L 144.21875 149.761719 "/>
<path style="fill:none;stroke-width:0.75;stroke-linecap:round;stroke-linejoin:round;stroke:rgb(3.529412%,3.529412%,3.529412%);stroke-opacity:1;stroke-miterlimit:10;" d="M 231.492188 142.558594 L 231.492188 149.761719 "/>
<path style="fill:none;stroke-width:0.75;stroke-linecap:round;stroke-linejoin:round;stroke:rgb(3.529412%,3.529412%,3.529412%);stroke-opacity:1;stroke-miterlimit:10;" d="M 318.761719 142.558594 L 318.761719 149.761719 "/>
<path style="fill:none;stroke-width:0.75;stroke-linecap:round;stroke-linejoin:round;stroke:rgb(3.529412%,3.529412%,3.529412%);stroke-opacity:1;stroke-miterlimit:10;" d="M 406.035156 142.558594 L 406.035156 149.761719 "/>
<path style=" stroke:none;fill-rule:nonzero;fill:rgb(3.529412%,3.529412%,3.529412%);fill-opacity:1;" d="M 142.066406 168.480469 L 141.023438 168.480469 L 141.023438 161.253906 L 139.230469 162.058594 L 139.230469 161.074219 L 141.902344 159.90625 L 142.066406 159.90625 Z M 142.066406 168.480469 "/>
<path style=" stroke:none;fill-rule:nonzero;fill:rgb(3.529412%,3.529412%,3.529412%);fill-opacity:1;" d="M 149.460938 164.839844 L 149.457031 165.210938 L 149.441406 165.558594 L 149.414062 165.886719 L 149.375 166.199219 L 149.324219 166.492188 L 149.265625 166.765625 L 149.191406 167.019531 L 149.109375 167.253906 L 149.015625 167.46875 L 148.910156 167.664062 L 148.796875 167.84375 L 148.667969 168 L 148.523438 168.140625 L 148.371094 168.261719 L 148.203125 168.363281 L 148.023438 168.449219 L 147.832031 168.511719 L 147.628906 168.558594 L 147.414062 168.585938 L 147.183594 168.597656 L 146.960938 168.589844 L 146.75 168.5625 L 146.550781 168.515625 L 146.363281 168.453125 L 146.183594 168.375 L 146.019531 168.273438 L 145.867188 168.15625 L 145.726562 168.023438 L 145.597656 167.871094 L 145.476562 167.699219 L 145.371094 167.511719 L 145.273438 167.304688 L 145.1875 167.082031 L 145.113281 166.839844 L 145.050781 166.578125 L 144.996094 166.300781 L 144.953125 166.003906 L 144.921875 165.6875 L 144.902344 165.355469 L 144.890625 165.003906 L 144.890625 163.539062 L 144.898438 163.175781 L 144.914062 162.832031 L 144.941406 162.503906 L 144.980469 162.195312 L 145.03125 161.910156 L 145.089844 161.640625 L 145.160156 161.390625 L 145.246094 161.15625 L 145.339844 160.945312 L 145.441406 160.75 L 145.558594 160.578125 L 145.691406 160.421875 L 145.832031 160.28125 L 145.988281 160.164062 L 146.152344 160.0625 L 146.332031 159.980469 L 146.523438 159.914062 L 146.726562 159.867188 L 146.941406 159.839844 L 147.171875 159.832031 L 147.394531 159.839844 L 147.609375 159.867188 L 147.808594 159.910156 L 148 159.972656 L 148.175781 160.050781 L 148.339844 160.144531 L 148.492188 160.257812 L 148.632812 160.390625 L 148.761719 160.539062 L 148.875 160.703125 L 148.984375 160.886719 L 149.078125 161.089844 L 149.164062 161.308594 L 149.238281 161.546875 L 149.300781 161.800781 L 149.355469 162.074219 L 149.398438 162.367188 L 149.429688 162.675781 L 149.453125 163.003906 L 149.460938 163.347656 Z M 148.425781 163.359375 L 148.421875 163.09375 L 148.414062 162.847656 L 148.398438 162.609375 L 148.378906 162.390625 L 148.351562 162.183594 L 148.316406 161.992188 L 148.277344 161.8125 L 148.234375 161.652344 L 148.183594 161.5 L 148.125 161.367188 L 148.0625 161.246094 L 147.992188 161.132812 L 147.914062 161.039062 L 147.832031 160.953125 L 147.738281 160.882812 L 147.640625 160.824219 L 147.53125 160.78125 L 147.417969 160.746094 L 147.300781 160.730469 L 147.171875 160.722656 L 147.046875 160.730469 L 146.929688 160.746094 L 146.820312 160.777344 L 146.714844 160.824219 L 146.617188 160.878906 L 146.527344 160.949219 L 146.445312 161.03125 L 146.367188 161.128906 L 146.296875 161.234375 L 146.234375 161.355469 L 146.175781 161.488281 L 146.125 161.632812 L 146.082031 161.789062 L 146.039062 161.960938 L 146.007812 162.144531 L 145.980469 162.339844 L 145.957031 162.546875 L 145.9375 162.769531 L 145.929688 163.003906 L 145.921875 163.253906 L 145.921875 165.011719 L 145.925781 165.273438 L 145.9375 165.523438 L 145.953125 165.757812 L 145.972656 165.984375 L 146 166.191406 L 146.035156 166.386719 L 146.074219 166.570312 L 146.121094 166.738281 L 146.175781 166.894531 L 146.234375 167.039062 L 146.300781 167.167969 L 146.371094 167.28125 L 146.449219 167.382812 L 146.535156 167.46875 L 146.625 167.542969 L 146.722656 167.605469 L 146.828125 167.652344 L 146.941406 167.683594 L 147.058594 167.707031 L 147.183594 167.710938 L 147.304688 167.707031 L 147.421875 167.6875 L 147.53125 167.65625 L 147.636719 167.609375 L 147.730469 167.554688 L 147.820312 167.484375 L 147.90625 167.398438 L 147.980469 167.304688 L 148.050781 167.195312 L 148.113281 167.074219 L 148.171875 166.9375 L 148.222656 166.792969 L 148.269531 166.628906 L 148.308594 166.453125 L 148.339844 166.265625 L 148.371094 166.066406 L 148.390625 165.847656 L 148.410156 165.621094 L 148.421875 165.378906 L 148.425781 165.121094 Z M 148.425781 163.359375 "/>
<path style=" stroke:none;fill-rule:nonzero;fill:rgb(3.529412%,3.529412%,3.529412%);fill-opacity:1;" d="M 231.023438 168.480469 L 226.253906 168.480469 L 226.253906 167.699219 L 228.683594 164.476562 L 228.792969 164.332031 L 228.890625 164.191406 L 228.984375 164.054688 L 229.070312 163.925781 L 229.148438 163.800781 L 229.222656 163.683594 L 229.289062 163.566406 L 229.347656 163.460938 L 229.402344 163.355469 L 229.445312 163.257812 L 229.488281 163.164062 L 229.523438 163.066406 L 229.554688 162.964844 L 229.585938 162.867188 L 229.609375 162.765625 L 229.628906 162.664062 L 229.644531 162.5625 L 229.660156 162.351562 L 229.664062 162.246094 L 229.660156 162.113281 L 229.648438 161.984375 L 229.632812 161.859375 L 229.613281 161.742188 L 229.582031 161.628906 L 229.550781 161.523438 L 229.507812 161.421875 L 229.460938 161.324219 L 229.40625 161.230469 L 229.347656 161.144531 L 229.28125 161.0625 L 229.210938 160.992188 L 229.136719 160.929688 L 229.0625 160.875 L 228.980469 160.828125 L 228.894531 160.789062 L 228.804688 160.761719 L 228.710938 160.738281 L 228.617188 160.726562 L 228.515625 160.722656 L 228.386719 160.726562 L 228.265625 160.742188 L 228.152344 160.761719 L 228.039062 160.792969 L 227.9375 160.835938 L 227.839844 160.882812 L 227.746094 160.941406 L 227.660156 161.011719 L 227.582031 161.085938 L 227.507812 161.171875 L 227.441406 161.265625 L 227.378906 161.367188 L 227.328125 161.476562 L 227.28125 161.59375 L 227.242188 161.71875 L 227.210938 161.851562 L 227.1875 161.992188 L 227.167969 162.140625 L 227.160156 162.296875 L 227.15625 162.460938 L 226.117188 162.460938 L 226.125 162.230469 L 226.144531 162.007812 L 226.175781 161.796875 L 226.222656 161.59375 L 226.277344 161.398438 L 226.351562 161.210938 L 226.433594 161.035156 L 226.53125 160.867188 L 226.640625 160.707031 L 226.761719 160.558594 L 226.894531 160.421875 L 227.039062 160.296875 L 227.191406 160.1875 L 227.351562 160.09375 L 227.523438 160.011719 L 227.703125 159.949219 L 227.890625 159.898438 L 228.089844 159.859375 L 228.296875 159.839844 L 228.515625 159.832031 L 228.714844 159.835938 L 228.90625 159.855469 L 229.085938 159.886719 L 229.261719 159.933594 L 229.425781 159.988281 L 229.582031 160.058594 L 229.730469 160.140625 L 229.867188 160.234375 L 230 160.339844 L 230.121094 160.457031 L 230.230469 160.585938 L 230.332031 160.722656 L 230.417969 160.867188 L 230.496094 161.023438 L 230.558594 161.183594 L 230.613281 161.355469 L 230.652344 161.53125 L 230.683594 161.71875 L 230.699219 161.914062 L 230.707031 162.117188 L 230.691406 162.375 L 230.652344 162.640625 L 230.585938 162.917969 L 230.496094 163.203125 L 230.375 163.5 L 230.230469 163.800781 L 230.058594 164.117188 L 229.863281 164.4375 L 229.636719 164.769531 L 229.386719 165.109375 L 227.488281 167.59375 L 231.023438 167.59375 Z M 231.023438 168.480469 "/>
<path style=" stroke:none;fill-rule:nonzero;fill:rgb(3.529412%,3.529412%,3.529412%);fill-opacity:1;" d="M 236.734375 164.839844 L 236.730469 165.210938 L 236.714844 165.558594 L 236.683594 165.886719 L 236.648438 166.199219 L 236.597656 166.492188 L 236.535156 166.765625 L 236.464844 167.019531 L 236.382812 167.253906 L 236.289062 167.46875 L 236.183594 167.664062 L 236.066406 167.84375 L 235.9375 168 L 235.796875 168.140625 L 235.644531 168.261719 L 235.476562 168.363281 L 235.296875 168.449219 L 235.105469 168.511719 L 234.902344 168.558594 L 234.683594 168.585938 L 234.457031 168.597656 L 234.234375 168.589844 L 234.023438 168.5625 L 233.824219 168.515625 L 233.632812 168.453125 L 233.457031 168.375 L 233.292969 168.273438 L 233.140625 168.15625 L 233 168.023438 L 232.867188 167.871094 L 232.75 167.699219 L 232.644531 167.511719 L 232.546875 167.304688 L 232.460938 167.082031 L 232.386719 166.839844 L 232.324219 166.578125 L 232.269531 166.300781 L 232.226562 166.003906 L 232.195312 165.6875 L 232.175781 165.355469 L 232.164062 165.003906 L 232.164062 163.539062 L 232.171875 163.175781 L 232.1875 162.832031 L 232.214844 162.503906 L 232.253906 162.195312 L 232.300781 161.910156 L 232.363281 161.640625 L 232.433594 161.390625 L 232.515625 161.15625 L 232.609375 160.945312 L 232.714844 160.75 L 232.832031 160.578125 L 232.960938 160.421875 L 233.105469 160.28125 L 233.257812 160.164062 L 233.425781 160.0625 L 233.605469 159.980469 L 233.796875 159.914062 L 234 159.867188 L 234.214844 159.839844 L 234.445312 159.832031 L 234.667969 159.839844 L 234.882812 159.867188 L 235.082031 159.910156 L 235.269531 159.972656 L 235.449219 160.050781 L 235.613281 160.144531 L 235.765625 160.257812 L 235.90625 160.390625 L 236.03125 160.539062 L 236.148438 160.703125 L 236.253906 160.886719 L 236.351562 161.089844 L 236.4375 161.308594 L 236.511719 161.546875 L 236.574219 161.800781 L 236.628906 162.074219 L 236.671875 162.367188 L 236.703125 162.675781 L 236.722656 163.003906 L 236.734375 163.347656 Z M 235.699219 163.359375 L 235.695312 163.09375 L 235.6875 162.847656 L 235.671875 162.609375 L 235.648438 162.390625 L 235.625 162.183594 L 235.589844 161.992188 L 235.550781 161.8125 L 235.507812 161.652344 L 235.457031 161.5 L 235.398438 161.367188 L 235.335938 161.246094 L 235.265625 161.132812 L 235.1875 161.039062 L 235.101562 160.953125 L 235.011719 160.882812 L 234.910156 160.824219 L 234.804688 160.78125 L 234.691406 160.746094 L 234.570312 160.730469 L 234.445312 160.722656 L 234.320312 160.730469 L 234.203125 160.746094 L 234.089844 160.777344 L 233.988281 160.824219 L 233.890625 160.878906 L 233.800781 160.949219 L 233.714844 161.03125 L 233.640625 161.128906 L 233.570312 161.234375 L 233.507812 161.355469 L 233.449219 161.488281 L 233.398438 161.632812 L 233.351562 161.789062 L 233.3125 161.960938 L 233.28125 162.144531 L 233.25 162.339844 L 233.230469 162.546875 L 233.210938 162.769531 L 233.203125 163.003906 L 233.195312 163.253906 L 233.195312 165.011719 L 233.199219 165.273438 L 233.207031 165.523438 L 233.222656 165.757812 L 233.246094 165.984375 L 233.273438 166.191406 L 233.308594 166.386719 L 233.347656 166.570312 L 233.394531 166.738281 L 233.449219 166.894531 L 233.507812 167.039062 L 233.570312 167.167969 L 233.644531 167.28125 L 233.722656 167.382812 L 233.808594 167.46875 L 233.898438 167.542969 L 233.996094 167.605469 L 234.101562 167.652344 L 234.214844 167.683594 L 234.332031 167.707031 L 234.457031 167.710938 L 234.578125 167.707031 L 234.695312 167.6875 L 234.804688 167.65625 L 234.910156 167.609375 L 235.003906 167.554688 L 235.09375 167.484375 L 235.179688 167.398438 L 235.253906 167.304688 L 235.324219 167.195312 L 235.386719 167.074219 L 235.445312 166.9375 L 235.496094 166.792969 L 235.539062 166.628906 L 235.582031 166.453125 L 235.613281 166.265625 L 235.644531 166.066406 L 235.664062 165.847656 L 235.683594 165.621094 L 235.691406 165.378906 L 235.699219 165.121094 Z M 235.699219 163.359375 "/>
<path style=" stroke:none;fill-rule:nonzero;fill:rgb(3.529412%,3.529412%,3.529412%);fill-opacity:1;" d="M 314.847656 163.6875 L 315.511719 163.6875 L 315.636719 163.683594 L 315.753906 163.671875 L 315.867188 163.652344 L 315.976562 163.625 L 316.078125 163.589844 L 316.171875 163.546875 L 316.261719 163.496094 L 316.347656 163.4375 L 316.425781 163.367188 L 316.496094 163.292969 L 316.5625 163.214844 L 316.621094 163.125 L 316.671875 163.03125 L 316.71875 162.933594 L 316.753906 162.832031 L 316.785156 162.71875 L 316.8125 162.605469 L 316.828125 162.484375 L 316.839844 162.355469 L 316.839844 162.222656 L 316.832031 161.9375 L 316.796875 161.683594 L 316.738281 161.457031 L 316.65625 161.261719 L 316.550781 161.097656 L 316.425781 160.960938 L 316.273438 160.855469 L 316.097656 160.78125 L 315.902344 160.738281 L 315.679688 160.722656 L 315.574219 160.726562 L 315.46875 160.738281 L 315.371094 160.757812 L 315.273438 160.785156 L 315.183594 160.824219 L 315.101562 160.867188 L 315.019531 160.921875 L 314.945312 160.980469 L 314.875 161.050781 L 314.808594 161.125 L 314.75 161.210938 L 314.695312 161.296875 L 314.648438 161.390625 L 314.605469 161.492188 L 314.570312 161.59375 L 314.542969 161.703125 L 314.519531 161.816406 L 314.503906 161.933594 L 314.496094 162.058594 L 314.492188 162.1875 L 313.460938 162.1875 L 313.46875 161.984375 L 313.484375 161.792969 L 313.515625 161.605469 L 313.558594 161.425781 L 313.617188 161.253906 L 313.683594 161.085938 L 313.765625 160.929688 L 313.859375 160.777344 L 313.964844 160.636719 L 314.082031 160.5 L 314.210938 160.371094 L 314.347656 160.257812 L 314.488281 160.160156 L 314.640625 160.070312 L 314.796875 160 L 314.957031 159.9375 L 315.128906 159.890625 L 315.304688 159.859375 L 315.492188 159.839844 L 315.679688 159.832031 L 315.878906 159.839844 L 316.066406 159.855469 L 316.25 159.886719 L 316.421875 159.933594 L 316.585938 159.988281 L 316.742188 160.058594 L 316.890625 160.140625 L 317.027344 160.238281 L 317.160156 160.34375 L 317.28125 160.464844 L 317.394531 160.59375 L 317.496094 160.734375 L 317.582031 160.886719 L 317.660156 161.050781 L 317.726562 161.222656 L 317.777344 161.40625 L 317.820312 161.601562 L 317.847656 161.804688 L 317.867188 162.019531 L 317.871094 162.246094 L 317.871094 162.363281 L 317.859375 162.480469 L 317.84375 162.59375 L 317.824219 162.707031 L 317.796875 162.820312 L 317.761719 162.929688 L 317.722656 163.035156 L 317.675781 163.144531 L 317.621094 163.25 L 317.5625 163.351562 L 317.5 163.453125 L 317.433594 163.546875 L 317.363281 163.632812 L 317.289062 163.71875 L 317.210938 163.796875 L 317.128906 163.867188 L 317.042969 163.933594 L 316.953125 163.996094 L 316.863281 164.050781 L 316.765625 164.101562 L 316.996094 164.203125 L 317.199219 164.324219 L 317.382812 164.46875 L 317.539062 164.636719 L 317.671875 164.824219 L 317.78125 165.035156 L 317.863281 165.269531 L 317.925781 165.523438 L 317.960938 165.800781 L 317.972656 166.101562 L 317.964844 166.324219 L 317.945312 166.539062 L 317.914062 166.746094 L 317.871094 166.941406 L 317.8125 167.128906 L 317.742188 167.304688 L 317.660156 167.472656 L 317.5625 167.632812 L 317.457031 167.78125 L 317.332031 167.921875 L 317.203125 168.050781 L 317.066406 168.164062 L 316.917969 168.265625 L 316.765625 168.355469 L 316.601562 168.429688 L 316.433594 168.488281 L 316.253906 168.535156 L 316.070312 168.570312 L 315.875 168.589844 L 315.675781 168.597656 L 315.476562 168.589844 L 315.285156 168.570312 L 315.101562 168.539062 L 314.925781 168.496094 L 314.757812 168.4375 L 314.597656 168.367188 L 314.445312 168.285156 L 314.300781 168.1875 L 314.164062 168.078125 L 314.035156 167.957031 L 313.917969 167.824219 L 313.8125 167.683594 L 313.71875 167.53125 L 313.636719 167.371094 L 313.570312 167.203125 L 313.511719 167.027344 L 313.46875 166.839844 L 313.4375 166.644531 L 313.421875 166.441406 L 313.414062 166.230469 L 314.449219 166.230469 L 314.453125 166.363281 L 314.464844 166.492188 L 314.480469 166.613281 L 314.503906 166.730469 L 314.53125 166.839844 L 314.570312 166.945312 L 314.613281 167.046875 L 314.660156 167.140625 L 314.71875 167.230469 L 314.777344 167.3125 L 314.847656 167.390625 L 314.921875 167.457031 L 314.996094 167.515625 L 315.082031 167.570312 L 315.167969 167.613281 L 315.257812 167.648438 L 315.355469 167.675781 L 315.457031 167.695312 L 315.566406 167.707031 L 315.675781 167.710938 L 315.789062 167.707031 L 315.898438 167.695312 L 316.003906 167.675781 L 316.101562 167.648438 L 316.195312 167.613281 L 316.285156 167.570312 L 316.371094 167.519531 L 316.449219 167.460938 L 316.523438 167.394531 L 316.59375 167.320312 L 316.660156 167.238281 L 316.71875 167.144531 L 316.773438 167.046875 L 316.816406 166.941406 L 316.855469 166.824219 L 316.886719 166.699219 L 316.910156 166.570312 L 316.925781 166.429688 L 316.9375 166.28125 L 316.941406 166.125 L 316.925781 165.828125 L 316.882812 165.566406 L 316.808594 165.332031 L 316.707031 165.128906 L 316.574219 164.960938 L 316.410156 164.820312 L 316.222656 164.710938 L 316 164.632812 L 315.75 164.585938 L 315.46875 164.570312 L 314.847656 164.570312 Z M 314.847656 163.6875 "/>
<path style=" stroke:none;fill-rule:nonzero;fill:rgb(3.529412%,3.529412%,3.529412%);fill-opacity:1;" d="M 324.007812 164.839844 L 324.003906 165.210938 L 323.984375 165.558594 L 323.957031 165.886719 L 323.917969 166.199219 L 323.871094 166.492188 L 323.808594 166.765625 L 323.738281 167.019531 L 323.65625 167.253906 L 323.5625 167.46875 L 323.457031 167.664062 L 323.339844 167.84375 L 323.210938 168 L 323.070312 168.140625 L 322.917969 168.261719 L 322.75 168.363281 L 322.570312 168.449219 L 322.378906 168.511719 L 322.175781 168.558594 L 321.957031 168.585938 L 321.726562 168.597656 L 321.503906 168.589844 L 321.292969 168.5625 L 321.09375 168.515625 L 320.90625 168.453125 L 320.730469 168.375 L 320.566406 168.273438 L 320.414062 168.15625 L 320.273438 168.023438 L 320.140625 167.871094 L 320.023438 167.699219 L 319.917969 167.511719 L 319.820312 167.304688 L 319.734375 167.082031 L 319.660156 166.839844 L 319.59375 166.578125 L 319.542969 166.300781 L 319.5 166.003906 L 319.46875 165.6875 L 319.449219 165.355469 L 319.4375 165.003906 L 319.4375 163.539062 L 319.441406 163.175781 L 319.460938 162.832031 L 319.488281 162.503906 L 319.527344 162.195312 L 319.574219 161.910156 L 319.636719 161.640625 L 319.707031 161.390625 L 319.789062 161.15625 L 319.882812 160.945312 L 319.988281 160.75 L 320.105469 160.578125 L 320.234375 160.421875 L 320.378906 160.28125 L 320.53125 160.164062 L 320.699219 160.0625 L 320.878906 159.980469 L 321.070312 159.914062 L 321.273438 159.867188 L 321.488281 159.839844 L 321.714844 159.832031 L 321.941406 159.839844 L 322.15625 159.867188 L 322.355469 159.910156 L 322.542969 159.972656 L 322.71875 160.050781 L 322.882812 160.144531 L 323.035156 160.257812 L 323.175781 160.390625 L 323.304688 160.539062 L 323.421875 160.703125 L 323.527344 160.886719 L 323.625 161.089844 L 323.707031 161.308594 L 323.78125 161.546875 L 323.847656 161.800781 L 323.898438 162.074219 L 323.941406 162.367188 L 323.976562 162.675781 L 323.996094 163.003906 L 324.007812 163.347656 Z M 322.96875 163.359375 L 322.96875 163.09375 L 322.957031 162.847656 L 322.945312 162.609375 L 322.921875 162.390625 L 322.894531 162.183594 L 322.863281 161.992188 L 322.824219 161.8125 L 322.78125 161.652344 L 322.730469 161.5 L 322.671875 161.367188 L 322.609375 161.246094 L 322.539062 161.132812 L 322.460938 161.039062 L 322.375 160.953125 L 322.285156 160.882812 L 322.183594 160.824219 L 322.078125 160.78125 L 321.964844 160.746094 L 321.84375 160.730469 L 321.714844 160.722656 L 321.59375 160.730469 L 321.476562 160.746094 L 321.363281 160.777344 L 321.261719 160.824219 L 321.164062 160.878906 L 321.074219 160.949219 L 320.988281 161.03125 L 320.914062 161.128906 L 320.84375 161.234375 L 320.777344 161.355469 L 320.722656 161.488281 L 320.671875 161.632812 L 320.625 161.789062 L 320.585938 161.960938 L 320.550781 162.144531 L 320.523438 162.339844 L 320.5 162.546875 L 320.484375 162.769531 L 320.472656 163.003906 L 320.46875 163.253906 L 320.46875 165.011719 L 320.472656 165.273438 L 320.480469 165.523438 L 320.496094 165.757812 L 320.519531 165.984375 L 320.546875 166.191406 L 320.582031 166.386719 L 320.621094 166.570312 L 320.667969 166.738281 L 320.71875 166.894531 L 320.777344 167.039062 L 320.84375 167.167969 L 320.917969 167.28125 L 320.996094 167.382812 L 321.082031 167.46875 L 321.171875 167.542969 L 321.269531 167.605469 L 321.375 167.652344 L 321.484375 167.683594 L 321.605469 167.707031 L 321.726562 167.710938 L 321.851562 167.707031 L 321.96875 167.6875 L 322.078125 167.65625 L 322.179688 167.609375 L 322.277344 167.554688 L 322.367188 167.484375 L 322.449219 167.398438 L 322.527344 167.304688 L 322.597656 167.195312 L 322.660156 167.074219 L 322.71875 166.9375 L 322.769531 166.792969 L 322.8125 166.628906 L 322.851562 166.453125 L 322.886719 166.265625 L 322.914062 166.066406 L 322.9375 165.847656 L 322.953125 165.621094 L 322.964844 165.378906 L 322.96875 165.121094 Z M 322.96875 163.359375 "/>
<path style=" stroke:none;fill-rule:nonzero;fill:rgb(3.529412%,3.529412%,3.529412%);fill-opacity:1;" d="M 404.722656 165.613281 L 405.671875 165.613281 L 405.671875 166.5 L 404.722656 166.5 L 404.722656 168.480469 L 403.6875 168.480469 L 403.6875 166.5 L 400.464844 166.5 L 400.464844 165.859375 L 403.632812 159.949219 L 404.722656 159.949219 Z M 401.613281 165.613281 L 403.6875 165.613281 L 403.6875 161.558594 Z M 401.613281 165.613281 "/>
<path style=" stroke:none;fill-rule:nonzero;fill:rgb(3.529412%,3.529412%,3.529412%);fill-opacity:1;" d="M 411.28125 164.839844 L 411.273438 165.210938 L 411.257812 165.558594 L 411.230469 165.886719 L 411.191406 166.199219 L 411.144531 166.492188 L 411.082031 166.765625 L 411.011719 167.019531 L 410.929688 167.253906 L 410.835938 167.46875 L 410.730469 167.664062 L 410.613281 167.84375 L 410.484375 168 L 410.34375 168.140625 L 410.1875 168.261719 L 410.023438 168.363281 L 409.84375 168.449219 L 409.652344 168.511719 L 409.445312 168.558594 L 409.230469 168.585938 L 409 168.597656 L 408.777344 168.589844 L 408.566406 168.5625 L 408.367188 168.515625 L 408.179688 168.453125 L 408.003906 168.375 L 407.839844 168.273438 L 407.6875 168.15625 L 407.542969 168.023438 L 407.414062 167.871094 L 407.296875 167.699219 L 407.1875 167.511719 L 407.09375 167.304688 L 407.007812 167.082031 L 406.933594 166.839844 L 406.867188 166.578125 L 406.816406 166.300781 L 406.773438 166.003906 L 406.742188 165.6875 L 406.71875 165.355469 L 406.710938 165.003906 L 406.710938 163.539062 L 406.714844 163.175781 L 406.730469 162.832031 L 406.757812 162.503906 L 406.796875 162.195312 L 406.847656 161.910156 L 406.910156 161.640625 L 406.980469 161.390625 L 407.0625 161.15625 L 407.15625 160.945312 L 407.261719 160.75 L 407.378906 160.578125 L 407.507812 160.421875 L 407.648438 160.28125 L 407.804688 160.164062 L 407.972656 160.0625 L 408.152344 159.980469 L 408.339844 159.914062 L 408.546875 159.867188 L 408.761719 159.839844 L 408.988281 159.832031 L 409.214844 159.839844 L 409.425781 159.867188 L 409.628906 159.910156 L 409.816406 159.972656 L 409.992188 160.050781 L 410.15625 160.144531 L 410.308594 160.257812 L 410.449219 160.390625 L 410.578125 160.539062 L 410.695312 160.703125 L 410.800781 160.886719 L 410.894531 161.089844 L 410.980469 161.308594 L 411.054688 161.546875 L 411.121094 161.800781 L 411.171875 162.074219 L 411.214844 162.367188 L 411.246094 162.675781 L 411.269531 163.003906 L 411.28125 163.347656 Z M 410.242188 163.359375 L 410.242188 163.09375 L 410.230469 162.847656 L 410.214844 162.609375 L 410.195312 162.390625 L 410.167969 162.183594 L 410.136719 161.992188 L 410.097656 161.8125 L 410.050781 161.652344 L 410 161.5 L 409.945312 161.367188 L 409.882812 161.246094 L 409.8125 161.132812 L 409.734375 161.039062 L 409.648438 160.953125 L 409.554688 160.882812 L 409.457031 160.824219 L 409.351562 160.78125 L 409.238281 160.746094 L 409.117188 160.730469 L 408.988281 160.722656 L 408.863281 160.730469 L 408.746094 160.746094 L 408.636719 160.777344 L 408.53125 160.824219 L 408.4375 160.878906 L 408.34375 160.949219 L 408.261719 161.03125 L 408.183594 161.128906 L 408.113281 161.234375 L 408.050781 161.355469 L 407.996094 161.488281 L 407.945312 161.632812 L 407.898438 161.789062 L 407.859375 161.960938 L 407.824219 162.144531 L 407.796875 162.339844 L 407.773438 162.546875 L 407.757812 162.769531 L 407.746094 163.003906 L 407.742188 163.253906 L 407.742188 165.011719 L 407.746094 165.273438 L 407.753906 165.523438 L 407.769531 165.757812 L 407.792969 165.984375 L 407.820312 166.191406 L 407.851562 166.386719 L 407.894531 166.570312 L 407.941406 166.738281 L 407.992188 166.894531 L 408.050781 167.039062 L 408.117188 167.167969 L 408.1875 167.28125 L 408.269531 167.382812 L 408.351562 167.46875 L 408.445312 167.542969 L 408.542969 167.605469 L 408.648438 167.652344 L 408.757812 167.683594 L 408.875 167.707031 L 409 167.710938 L 409.125 167.707031 L 409.242188 167.6875 L 409.351562 167.65625 L 409.453125 167.609375 L 409.550781 167.554688 L 409.640625 167.484375 L 409.722656 167.398438 L 409.800781 167.304688 L 409.871094 167.195312 L 409.933594 167.074219 L 409.988281 166.9375 L 410.039062 166.792969 L 410.085938 166.628906 L 410.125 166.453125 L 410.160156 166.265625 L 410.1875 166.066406 L 410.210938 165.847656 L 410.226562 165.621094 L 410.238281 165.378906 L 410.242188 165.121094 Z M 410.242188 163.359375 "/>
<path style="fill:none;stroke-width:0.75;stroke-linecap:round;stroke-linejoin:round;stroke:rgb(3.529412%,3.529412%,3.529412%);stroke-opacity:1;stroke-miterlimit:10;" d="M 59.039062 139.464844 L 59.039062 69.078125 "/>
<path style="fill:none;stroke-width:0.75;stroke-linecap:round;stroke-linejoin:round;stroke:rgb(3.529412%,3.529412%,3.529412%);stroke-opacity:1;stroke-miterlimit:10;" d="M 59.039062 139.464844 L 51.839844 139.464844 "/>
<path style="fill:none;stroke-width:0.75;stroke-linecap:round;stroke-linejoin:round;stroke:rgb(3.529412%,3.529412%,3.529412%);stroke-opacity:1;stroke-miterlimit:10;" d="M 59.039062 127.734375 L 51.839844 127.734375 "/>
<path style="fill:none;stroke-width:0.75;stroke-linecap:round;stroke-linejoin:round;stroke:rgb(3.529412%,3.529412%,3.529412%);stroke-opacity:1;stroke-miterlimit:10;" d="M 59.039062 116.003906 L 51.839844 116.003906 "/>
<path style="fill:none;stroke-width:0.75;stroke-linecap:round;stroke-linejoin:round;stroke:rgb(3.529412%,3.529412%,3.529412%);stroke-opacity:1;stroke-miterlimit:10;" d="M 59.039062 104.273438 L 51.839844 104.273438 "/>
<path style="fill:none;stroke-width:0.75;stroke-linecap:round;stroke-linejoin:round;stroke:rgb(3.529412%,3.529412%,3.529412%);stroke-opacity:1;stroke-miterlimit:10;" d="M 59.039062 92.542969 L 51.839844 92.542969 "/>
<path style="fill:none;stroke-width:0.75;stroke-linecap:round;stroke-linejoin:round;stroke:rgb(3.529412%,3.529412%,3.529412%);stroke-opacity:1;stroke-miterlimit:10;" d="M 59.039062 80.808594 L 51.839844 80.808594 "/>
<path style="fill:none;stroke-width:0.75;stroke-linecap:round;stroke-linejoin:round;stroke:rgb(3.529412%,3.529412%,3.529412%);stroke-opacity:1;stroke-miterlimit:10;" d="M 59.039062 69.078125 L 51.839844 69.078125 "/>
<path style=" stroke:none;fill-rule:nonzero;fill:rgb(3.529412%,3.529412%,3.529412%);fill-opacity:1;" d="M 38.121094 137.183594 L 38.488281 137.191406 L 38.839844 137.207031 L 39.167969 137.234375 L 39.480469 137.273438 L 39.769531 137.320312 L 40.042969 137.382812 L 40.296875 137.453125 L 40.53125 137.535156 L 40.75 137.628906 L 40.945312 137.734375 L 41.121094 137.851562 L 41.28125 137.980469 L 41.421875 138.121094 L 41.542969 138.277344 L 41.644531 138.441406 L 41.726562 138.621094 L 41.792969 138.8125 L 41.839844 139.019531 L 41.867188 139.234375 L 41.878906 139.464844 L 41.867188 139.6875 L 41.839844 139.898438 L 41.796875 140.097656 L 41.734375 140.285156 L 41.652344 140.460938 L 41.554688 140.625 L 41.4375 140.777344 L 41.304688 140.921875 L 41.152344 141.050781 L 40.980469 141.167969 L 40.792969 141.277344 L 40.585938 141.371094 L 40.363281 141.457031 L 40.117188 141.53125 L 39.859375 141.597656 L 39.578125 141.648438 L 39.285156 141.691406 L 38.96875 141.722656 L 38.636719 141.746094 L 38.285156 141.753906 L 36.820312 141.753906 L 36.457031 141.75 L 36.109375 141.734375 L 35.785156 141.707031 L 35.476562 141.667969 L 35.1875 141.617188 L 34.917969 141.554688 L 34.667969 141.484375 L 34.4375 141.402344 L 34.226562 141.308594 L 34.03125 141.203125 L 33.855469 141.085938 L 33.699219 140.957031 L 33.5625 140.816406 L 33.441406 140.660156 L 33.339844 140.492188 L 33.257812 140.316406 L 33.195312 140.125 L 33.148438 139.917969 L 33.121094 139.703125 L 33.113281 139.476562 L 33.121094 139.25 L 33.144531 139.039062 L 33.191406 138.835938 L 33.25 138.648438 L 33.328125 138.472656 L 33.425781 138.308594 L 33.539062 138.15625 L 33.671875 138.015625 L 33.820312 137.886719 L 33.984375 137.769531 L 34.167969 137.664062 L 34.371094 137.570312 L 34.589844 137.484375 L 34.828125 137.410156 L 35.082031 137.34375 L 35.355469 137.292969 L 35.644531 137.25 L 35.957031 137.21875 L 36.28125 137.195312 L 36.628906 137.183594 Z M 36.640625 138.222656 L 36.375 138.222656 L 36.125 138.234375 L 35.890625 138.25 L 35.671875 138.269531 L 35.464844 138.296875 L 35.273438 138.328125 L 35.09375 138.367188 L 34.929688 138.414062 L 34.78125 138.464844 L 34.648438 138.519531 L 34.523438 138.582031 L 34.414062 138.652344 L 34.316406 138.730469 L 34.234375 138.816406 L 34.164062 138.910156 L 34.105469 139.007812 L 34.058594 139.113281 L 34.027344 139.226562 L 34.007812 139.347656 L 34.003906 139.476562 L 34.007812 139.601562 L 34.027344 139.71875 L 34.058594 139.828125 L 34.101562 139.933594 L 34.160156 140.027344 L 34.230469 140.121094 L 34.3125 140.203125 L 34.40625 140.28125 L 34.515625 140.351562 L 34.636719 140.414062 L 34.765625 140.46875 L 34.910156 140.519531 L 35.070312 140.566406 L 35.238281 140.605469 L 35.421875 140.640625 L 35.621094 140.667969 L 35.828125 140.691406 L 36.050781 140.707031 L 36.285156 140.71875 L 36.535156 140.722656 L 38.292969 140.722656 L 38.554688 140.71875 L 38.804688 140.710938 L 39.039062 140.695312 L 39.261719 140.671875 L 39.472656 140.644531 L 39.667969 140.613281 L 39.851562 140.570312 L 40.019531 140.523438 L 40.175781 140.472656 L 40.320312 140.414062 L 40.445312 140.347656 L 40.5625 140.277344 L 40.664062 140.195312 L 40.75 140.113281 L 40.824219 140.019531 L 40.882812 139.921875 L 40.933594 139.816406 L 40.964844 139.707031 L 40.984375 139.589844 L 40.992188 139.464844 L 40.984375 139.339844 L 40.96875 139.222656 L 40.933594 139.113281 L 40.890625 139.011719 L 40.832031 138.914062 L 40.761719 138.824219 L 40.679688 138.742188 L 40.582031 138.664062 L 40.476562 138.59375 L 40.355469 138.53125 L 40.21875 138.476562 L 40.070312 138.425781 L 39.910156 138.378906 L 39.734375 138.339844 L 39.546875 138.304688 L 39.34375 138.277344 L 39.128906 138.253906 L 38.902344 138.238281 L 38.660156 138.226562 L 38.402344 138.222656 Z M 36.640625 138.222656 "/>
<path style=" stroke:none;fill-rule:nonzero;fill:rgb(3.529412%,3.529412%,3.529412%);fill-opacity:1;" d="M 41.761719 112.347656 L 41.761719 113.390625 L 34.535156 113.390625 L 35.339844 115.183594 L 34.355469 115.183594 L 33.1875 112.511719 L 33.1875 112.347656 Z M 41.761719 112.347656 "/>
<path style=" stroke:none;fill-rule:nonzero;fill:rgb(3.529412%,3.529412%,3.529412%);fill-opacity:1;" d="M 37.484375 109.089844 L 33.230469 108.71875 L 33.230469 105.011719 L 34.230469 105.011719 L 34.230469 107.847656 L 36.558594 108.046875 L 36.488281 107.941406 L 36.425781 107.832031 L 36.367188 107.722656 L 36.320312 107.609375 L 36.28125 107.5 L 36.246094 107.382812 L 36.222656 107.265625 L 36.203125 107.148438 L 36.191406 107.03125 L 36.1875 106.910156 L 36.195312 106.714844 L 36.21875 106.527344 L 36.257812 106.351562 L 36.3125 106.179688 L 36.382812 106.019531 L 36.464844 105.867188 L 36.566406 105.722656 L 36.683594 105.589844 L 36.8125 105.460938 L 36.960938 105.34375 L 37.121094 105.238281 L 37.292969 105.140625 L 37.472656 105.054688 L 37.664062 104.980469 L 37.867188 104.917969 L 38.082031 104.867188 L 38.304688 104.828125 L 38.539062 104.800781 L 38.785156 104.78125 L 39.042969 104.777344 L 39.300781 104.78125 L 39.546875 104.800781 L 39.785156 104.832031 L 40.007812 104.875 L 40.222656 104.933594 L 40.425781 105 L 40.617188 105.082031 L 40.796875 105.175781 L 40.964844 105.28125 L 41.121094 105.398438 L 41.265625 105.523438 L 41.394531 105.660156 L 41.507812 105.808594 L 41.605469 105.964844 L 41.6875 106.128906 L 41.757812 106.300781 L 41.808594 106.484375 L 41.847656 106.679688 L 41.871094 106.878906 L 41.878906 107.089844 L 41.871094 107.28125 L 41.851562 107.460938 L 41.820312 107.636719 L 41.777344 107.800781 L 41.71875 107.960938 L 41.652344 108.117188 L 41.570312 108.261719 L 41.476562 108.398438 L 41.371094 108.53125 L 41.25 108.65625 L 41.121094 108.769531 L 40.980469 108.875 L 40.832031 108.972656 L 40.671875 109.054688 L 40.503906 109.128906 L 40.324219 109.195312 L 40.136719 109.246094 L 39.941406 109.289062 L 39.734375 109.324219 L 39.515625 109.347656 L 39.515625 108.375 L 39.660156 108.355469 L 39.792969 108.328125 L 39.921875 108.300781 L 40.042969 108.265625 L 40.160156 108.226562 L 40.265625 108.183594 L 40.367188 108.132812 L 40.460938 108.078125 L 40.542969 108.019531 L 40.625 107.957031 L 40.695312 107.890625 L 40.757812 107.816406 L 40.8125 107.738281 L 40.859375 107.660156 L 40.898438 107.574219 L 40.933594 107.484375 L 40.960938 107.394531 L 40.976562 107.296875 L 40.988281 107.195312 L 40.992188 107.089844 L 40.988281 106.972656 L 40.972656 106.859375 L 40.945312 106.753906 L 40.910156 106.648438 L 40.863281 106.554688 L 40.804688 106.460938 L 40.738281 106.375 L 40.660156 106.292969 L 40.570312 106.21875 L 40.472656 106.148438 L 40.363281 106.082031 L 40.246094 106.023438 L 40.121094 105.972656 L 39.992188 105.929688 L 39.851562 105.894531 L 39.707031 105.863281 L 39.554688 105.839844 L 39.394531 105.820312 L 39.226562 105.8125 L 39.054688 105.808594 L 38.886719 105.8125 L 38.730469 105.824219 L 38.578125 105.839844 L 38.433594 105.867188 L 38.292969 105.898438 L 38.160156 105.941406 L 38.03125 105.988281 L 37.910156 106.042969 L 37.796875 106.105469 L 37.6875 106.175781 L 37.585938 106.253906 L 37.496094 106.332031 L 37.417969 106.417969 L 37.351562 106.507812 L 37.292969 106.605469 L 37.246094 106.707031 L 37.207031 106.8125 L 37.179688 106.921875 L 37.164062 107.039062 L 37.160156 107.160156 L 37.164062 107.261719 L 37.171875 107.359375 L 37.183594 107.453125 L 37.203125 107.539062 L 37.226562 107.625 L 37.257812 107.707031 L 37.292969 107.78125 L 37.332031 107.855469 L 37.378906 107.921875 L 37.429688 107.988281 L 37.707031 108.261719 Z M 37.484375 109.089844 "/>
<path style=" stroke:none;fill-rule:nonzero;fill:rgb(3.529412%,3.529412%,3.529412%);fill-opacity:1;" d="M 38.121094 99.027344 L 38.488281 99.035156 L 38.839844 99.050781 L 39.167969 99.078125 L 39.480469 99.117188 L 39.769531 99.167969 L 40.042969 99.226562 L 40.296875 99.296875 L 40.53125 99.378906 L 40.75 99.472656 L 40.945312 99.578125 L 41.121094 99.695312 L 41.28125 99.824219 L 41.421875 99.964844 L 41.542969 100.121094 L 41.644531 100.285156 L 41.726562 100.464844 L 41.792969 100.65625 L 41.839844 100.863281 L 41.867188 101.078125 L 41.878906 101.308594 L 41.867188 101.53125 L 41.839844 101.742188 L 41.796875 101.941406 L 41.734375 102.128906 L 41.652344 102.304688 L 41.554688 102.46875 L 41.4375 102.621094 L 41.304688 102.765625 L 41.152344 102.894531 L 40.980469 103.011719 L 40.792969 103.121094 L 40.585938 103.214844 L 40.363281 103.300781 L 40.117188 103.375 L 39.859375 103.441406 L 39.578125 103.492188 L 39.285156 103.535156 L 38.96875 103.566406 L 38.636719 103.589844 L 38.285156 103.597656 L 36.820312 103.597656 L 36.457031 103.59375 L 36.109375 103.578125 L 35.785156 103.550781 L 35.476562 103.511719 L 35.1875 103.460938 L 34.917969 103.398438 L 34.667969 103.328125 L 34.4375 103.246094 L 34.226562 103.152344 L 34.03125 103.046875 L 33.855469 102.929688 L 33.699219 102.800781 L 33.5625 102.660156 L 33.441406 102.503906 L 33.339844 102.335938 L 33.257812 102.160156 L 33.195312 101.96875 L 33.148438 101.761719 L 33.121094 101.546875 L 33.113281 101.320312 L 33.121094 101.09375 L 33.144531 100.882812 L 33.191406 100.679688 L 33.25 100.492188 L 33.328125 100.316406 L 33.425781 100.152344 L 33.539062 100 L 33.671875 99.859375 L 33.820312 99.730469 L 33.984375 99.613281 L 34.167969 99.507812 L 34.371094 99.414062 L 34.589844 99.328125 L 34.828125 99.253906 L 35.082031 99.191406 L 35.355469 99.136719 L 35.644531 99.09375 L 35.957031 99.0625 L 36.28125 99.039062 L 36.628906 99.027344 Z M 36.640625 100.066406 L 36.375 100.070312 L 36.125 100.078125 L 35.890625 100.09375 L 35.671875 100.113281 L 35.464844 100.140625 L 35.273438 100.171875 L 35.09375 100.210938 L 34.929688 100.257812 L 34.78125 100.308594 L 34.648438 100.363281 L 34.523438 100.425781 L 34.414062 100.5 L 34.316406 100.574219 L 34.234375 100.660156 L 34.164062 100.753906 L 34.105469 100.851562 L 34.058594 100.957031 L 34.027344 101.070312 L 34.007812 101.191406 L 34.003906 101.320312 L 34.007812 101.445312 L 34.027344 101.5625 L 34.058594 101.671875 L 34.101562 101.777344 L 34.160156 101.875 L 34.230469 101.964844 L 34.3125 102.046875 L 34.40625 102.125 L 34.515625 102.195312 L 34.636719 102.257812 L 34.765625 102.3125 L 34.910156 102.363281 L 35.070312 102.410156 L 35.238281 102.449219 L 35.421875 102.484375 L 35.621094 102.511719 L 35.828125 102.535156 L 36.050781 102.550781 L 36.285156 102.5625 L 36.535156 102.566406 L 38.292969 102.566406 L 38.554688 102.5625 L 38.804688 102.554688 L 39.039062 102.539062 L 39.261719 102.519531 L 39.472656 102.488281 L 39.667969 102.457031 L 39.851562 102.414062 L 40.019531 102.367188 L 40.175781 102.316406 L 40.320312 102.257812 L 40.445312 102.191406 L 40.5625 102.121094 L 40.664062 102.039062 L 40.75 101.957031 L 40.824219 101.863281 L 40.882812 101.765625 L 40.933594 101.660156 L 40.964844 101.550781 L 40.984375 101.433594 L 40.992188 101.308594 L 40.984375 101.183594 L 40.96875 101.066406 L 40.933594 100.957031 L 40.890625 100.855469 L 40.832031 100.757812 L 40.761719 100.667969 L 40.679688 100.585938 L 40.582031 100.507812 L 40.476562 100.4375 L 40.355469 100.375 L 40.21875 100.320312 L 40.070312 100.269531 L 39.910156 100.222656 L 39.734375 100.183594 L 39.546875 100.148438 L 39.34375 100.121094 L 39.128906 100.097656 L 38.902344 100.082031 L 38.660156 100.070312 L 38.402344 100.066406 Z M 36.640625 100.066406 "/>
<path style=" stroke:none;fill-rule:nonzero;fill:rgb(3.529412%,3.529412%,3.529412%);fill-opacity:1;" d="M 38.121094 93.105469 L 38.488281 93.109375 L 38.839844 93.125 L 39.167969 93.152344 L 39.480469 93.191406 L 39.769531 93.242188 L 40.042969 93.304688 L 40.296875 93.375 L 40.53125 93.457031 L 40.75 93.550781 L 40.945312 93.65625 L 41.121094 93.773438 L 41.28125 93.902344 L 41.421875 94.042969 L 41.542969 94.195312 L 41.644531 94.363281 L 41.726562 94.542969 L 41.792969 94.734375 L 41.839844 94.9375 L 41.867188 95.15625 L 41.878906 95.382812 L 41.867188 95.605469 L 41.839844 95.816406 L 41.796875 96.015625 L 41.734375 96.203125 L 41.652344 96.382812 L 41.554688 96.546875 L 41.4375 96.699219 L 41.304688 96.839844 L 41.152344 96.96875 L 40.980469 97.089844 L 40.792969 97.195312 L 40.585938 97.292969 L 40.363281 97.378906 L 40.117188 97.453125 L 39.859375 97.515625 L 39.578125 97.570312 L 39.285156 97.613281 L 38.96875 97.644531 L 38.636719 97.664062 L 38.285156 97.675781 L 36.820312 97.675781 L 36.457031 97.667969 L 36.109375 97.652344 L 35.785156 97.625 L 35.476562 97.585938 L 35.1875 97.539062 L 34.917969 97.476562 L 34.667969 97.40625 L 34.4375 97.324219 L 34.226562 97.230469 L 34.03125 97.125 L 33.855469 97.007812 L 33.699219 96.875 L 33.5625 96.734375 L 33.441406 96.582031 L 33.339844 96.414062 L 33.257812 96.234375 L 33.195312 96.042969 L 33.148438 95.839844 L 33.121094 95.625 L 33.113281 95.394531 L 33.121094 95.171875 L 33.144531 94.957031 L 33.191406 94.757812 L 33.25 94.570312 L 33.328125 94.390625 L 33.425781 94.226562 L 33.539062 94.074219 L 33.671875 93.933594 L 33.820312 93.808594 L 33.984375 93.691406 L 34.167969 93.585938 L 34.371094 93.488281 L 34.589844 93.402344 L 34.828125 93.328125 L 35.082031 93.265625 L 35.355469 93.210938 L 35.644531 93.167969 L 35.957031 93.136719 L 36.28125 93.117188 L 36.628906 93.105469 Z M 36.640625 94.140625 L 36.375 94.144531 L 36.125 94.152344 L 35.890625 94.167969 L 35.671875 94.1875 L 35.464844 94.214844 L 35.273438 94.25 L 35.09375 94.289062 L 34.929688 94.332031 L 34.78125 94.382812 L 34.648438 94.441406 L 34.523438 94.503906 L 34.414062 94.574219 L 34.316406 94.652344 L 34.234375 94.738281 L 34.164062 94.828125 L 34.105469 94.925781 L 34.058594 95.035156 L 34.027344 95.148438 L 34.007812 95.269531 L 34.003906 95.394531 L 34.007812 95.519531 L 34.027344 95.636719 L 34.058594 95.75 L 34.101562 95.851562 L 34.160156 95.949219 L 34.230469 96.039062 L 34.3125 96.125 L 34.40625 96.199219 L 34.515625 96.269531 L 34.636719 96.332031 L 34.765625 96.390625 L 34.910156 96.441406 L 35.070312 96.488281 L 35.238281 96.527344 L 35.421875 96.558594 L 35.621094 96.589844 L 35.828125 96.609375 L 36.050781 96.628906 L 36.285156 96.636719 L 36.535156 96.644531 L 38.292969 96.644531 L 38.554688 96.640625 L 38.804688 96.632812 L 39.039062 96.617188 L 39.261719 96.59375 L 39.472656 96.566406 L 39.667969 96.53125 L 39.851562 96.492188 L 40.019531 96.445312 L 40.175781 96.390625 L 40.320312 96.332031 L 40.445312 96.269531 L 40.5625 96.195312 L 40.664062 96.117188 L 40.75 96.03125 L 40.824219 95.941406 L 40.882812 95.84375 L 40.933594 95.738281 L 40.964844 95.625 L 40.984375 95.507812 L 40.992188 95.382812 L 40.984375 95.261719 L 40.96875 95.144531 L 40.933594 95.035156 L 40.890625 94.929688 L 40.832031 94.835938 L 40.761719 94.746094 L 40.679688 94.660156 L 40.582031 94.585938 L 40.476562 94.515625 L 40.355469 94.453125 L 40.21875 94.394531 L 40.070312 94.34375 L 39.910156 94.296875 L 39.734375 94.257812 L 39.546875 94.226562 L 39.34375 94.195312 L 39.128906 94.175781 L 38.902344 94.15625 L 38.660156 94.148438 L 38.402344 94.140625 Z M 36.640625 94.140625 "/>
<path style=" stroke:none;fill-rule:nonzero;fill:rgb(3.529412%,3.529412%,3.529412%);fill-opacity:1;" d="M 36.96875 78.917969 L 36.96875 78.253906 L 36.964844 78.128906 L 36.953125 78.011719 L 36.933594 77.898438 L 36.902344 77.789062 L 36.867188 77.6875 L 36.824219 77.59375 L 36.773438 77.503906 L 36.714844 77.417969 L 36.648438 77.339844 L 36.574219 77.269531 L 36.492188 77.203125 L 36.40625 77.144531 L 36.3125 77.09375 L 36.214844 77.046875 L 36.109375 77.011719 L 36 76.980469 L 35.882812 76.957031 L 35.761719 76.9375 L 35.636719 76.925781 L 35.503906 76.925781 L 35.21875 76.9375 L 34.960938 76.96875 L 34.738281 77.027344 L 34.542969 77.109375 L 34.378906 77.214844 L 34.242188 77.339844 L 34.136719 77.492188 L 34.0625 77.667969 L 34.015625 77.863281 L 34.003906 78.085938 L 34.007812 78.191406 L 34.019531 78.296875 L 34.039062 78.398438 L 34.066406 78.492188 L 34.101562 78.582031 L 34.148438 78.664062 L 34.199219 78.746094 L 34.261719 78.820312 L 34.328125 78.890625 L 34.40625 78.957031 L 34.488281 79.015625 L 34.578125 79.070312 L 34.671875 79.117188 L 34.769531 79.160156 L 34.875 79.195312 L 34.980469 79.222656 L 35.097656 79.246094 L 35.214844 79.261719 L 35.339844 79.269531 L 35.46875 79.273438 L 35.46875 80.304688 L 35.265625 80.296875 L 35.070312 80.28125 L 34.882812 80.25 L 34.703125 80.207031 L 34.53125 80.148438 L 34.367188 80.082031 L 34.210938 80 L 34.058594 79.90625 L 33.914062 79.800781 L 33.78125 79.683594 L 33.652344 79.554688 L 33.539062 79.417969 L 33.4375 79.277344 L 33.351562 79.125 L 33.277344 78.96875 L 33.21875 78.808594 L 33.171875 78.636719 L 33.136719 78.460938 L 33.117188 78.273438 L 33.113281 78.085938 L 33.117188 77.886719 L 33.136719 77.699219 L 33.167969 77.515625 L 33.210938 77.34375 L 33.269531 77.179688 L 33.339844 77.023438 L 33.421875 76.878906 L 33.515625 76.738281 L 33.625 76.605469 L 33.746094 76.484375 L 33.875 76.371094 L 34.015625 76.273438 L 34.167969 76.183594 L 34.332031 76.105469 L 34.503906 76.039062 L 34.6875 75.988281 L 34.878906 75.945312 L 35.085938 75.917969 L 35.300781 75.898438 L 35.527344 75.894531 L 35.644531 75.894531 L 35.757812 75.90625 L 35.875 75.921875 L 35.988281 75.941406 L 36.097656 75.96875 L 36.207031 76.003906 L 36.316406 76.046875 L 36.421875 76.089844 L 36.527344 76.144531 L 36.632812 76.203125 L 36.730469 76.265625 L 36.828125 76.332031 L 36.914062 76.402344 L 36.996094 76.476562 L 37.074219 76.554688 L 37.148438 76.636719 L 37.214844 76.722656 L 37.277344 76.8125 L 37.332031 76.902344 L 37.382812 77 L 37.484375 76.769531 L 37.605469 76.566406 L 37.75 76.382812 L 37.917969 76.226562 L 38.105469 76.09375 L 38.316406 75.984375 L 38.550781 75.902344 L 38.804688 75.839844 L 39.082031 75.804688 L 39.382812 75.792969 L 39.605469 75.800781 L 39.820312 75.820312 L 40.023438 75.851562 L 40.222656 75.894531 L 40.40625 75.953125 L 40.585938 76.023438 L 40.753906 76.105469 L 40.914062 76.203125 L 41.0625 76.308594 L 41.203125 76.433594 L 41.332031 76.5625 L 41.445312 76.699219 L 41.546875 76.847656 L 41.632812 77 L 41.707031 77.164062 L 41.769531 77.332031 L 41.816406 77.511719 L 41.851562 77.695312 L 41.871094 77.890625 L 41.878906 78.089844 L 41.871094 78.289062 L 41.851562 78.480469 L 41.820312 78.664062 L 41.773438 78.839844 L 41.71875 79.007812 L 41.648438 79.167969 L 41.5625 79.320312 L 41.46875 79.464844 L 41.359375 79.601562 L 41.238281 79.730469 L 41.105469 79.847656 L 40.964844 79.953125 L 40.8125 80.046875 L 40.652344 80.128906 L 40.484375 80.195312 L 40.308594 80.253906 L 40.121094 80.296875 L 39.925781 80.328125 L 39.722656 80.34375 L 39.511719 80.351562 L 39.511719 79.316406 L 39.644531 79.3125 L 39.769531 79.300781 L 39.894531 79.285156 L 40.007812 79.261719 L 40.121094 79.234375 L 40.226562 79.195312 L 40.328125 79.152344 L 40.421875 79.105469 L 40.511719 79.050781 L 40.59375 78.988281 L 40.667969 78.917969 L 40.738281 78.84375 L 40.796875 78.769531 L 40.847656 78.6875 L 40.894531 78.597656 L 40.929688 78.507812 L 40.957031 78.410156 L 40.976562 78.308594 L 40.988281 78.203125 L 40.992188 78.089844 L 40.988281 77.976562 L 40.976562 77.867188 L 40.957031 77.761719 L 40.929688 77.664062 L 40.894531 77.570312 L 40.851562 77.480469 L 40.800781 77.394531 L 40.742188 77.316406 L 40.675781 77.242188 L 40.601562 77.171875 L 40.515625 77.105469 L 40.425781 77.046875 L 40.328125 76.992188 L 40.21875 76.949219 L 40.105469 76.910156 L 39.980469 76.878906 L 39.847656 76.855469 L 39.710938 76.839844 L 39.5625 76.828125 L 39.40625 76.824219 L 39.109375 76.839844 L 38.84375 76.882812 L 38.613281 76.957031 L 38.410156 77.058594 L 38.238281 77.191406 L 38.101562 77.355469 L 37.992188 77.546875 L 37.914062 77.765625 L 37.867188 78.015625 L 37.851562 78.296875 L 37.851562 78.917969 Z M 36.96875 78.917969 "/>
<path style=" stroke:none;fill-rule:nonzero;fill:rgb(3.529412%,3.529412%,3.529412%);fill-opacity:1;" d="M 38.121094 69.757812 L 38.488281 69.761719 L 38.839844 69.78125 L 39.167969 69.808594 L 39.480469 69.847656 L 39.769531 69.894531 L 40.042969 69.957031 L 40.296875 70.027344 L 40.53125 70.109375 L 40.75 70.203125 L 40.945312 70.308594 L 41.121094 70.425781 L 41.28125 70.554688 L 41.421875 70.695312 L 41.542969 70.851562 L 41.644531 71.015625 L 41.726562 71.195312 L 41.792969 71.386719 L 41.839844 71.589844 L 41.867188 71.808594 L 41.878906 72.039062 L 41.867188 72.261719 L 41.839844 72.472656 L 41.796875 72.671875 L 41.734375 72.859375 L 41.652344 73.035156 L 41.554688 73.199219 L 41.4375 73.351562 L 41.304688 73.496094 L 41.152344 73.625 L 40.980469 73.742188 L 40.792969 73.847656 L 40.585938 73.945312 L 40.363281 74.03125 L 40.117188 74.105469 L 39.859375 74.171875 L 39.578125 74.222656 L 39.285156 74.265625 L 38.96875 74.296875 L 38.636719 74.316406 L 38.285156 74.328125 L 36.820312 74.328125 L 36.457031 74.324219 L 36.109375 74.304688 L 35.785156 74.277344 L 35.476562 74.238281 L 35.1875 74.191406 L 34.917969 74.128906 L 34.667969 74.058594 L 34.4375 73.976562 L 34.226562 73.882812 L 34.03125 73.777344 L 33.855469 73.660156 L 33.699219 73.53125 L 33.5625 73.386719 L 33.441406 73.234375 L 33.339844 73.066406 L 33.257812 72.886719 L 33.195312 72.695312 L 33.148438 72.492188 L 33.121094 72.277344 L 33.113281 72.050781 L 33.121094 71.824219 L 33.144531 71.613281 L 33.191406 71.410156 L 33.25 71.222656 L 33.328125 71.046875 L 33.425781 70.882812 L 33.539062 70.730469 L 33.671875 70.589844 L 33.820312 70.460938 L 33.984375 70.34375 L 34.167969 70.238281 L 34.371094 70.140625 L 34.589844 70.058594 L 34.828125 69.984375 L 35.082031 69.917969 L 35.355469 69.867188 L 35.644531 69.824219 L 35.957031 69.789062 L 36.28125 69.769531 L 36.628906 69.757812 Z M 36.640625 70.796875 L 36.375 70.796875 L 36.125 70.808594 L 35.890625 70.820312 L 35.671875 70.84375 L 35.464844 70.871094 L 35.273438 70.902344 L 35.09375 70.941406 L 34.929688 70.988281 L 34.78125 71.039062 L 34.648438 71.09375 L 34.523438 71.15625 L 34.414062 71.226562 L 34.316406 71.304688 L 34.234375 71.390625 L 34.164062 71.480469 L 34.105469 71.582031 L 34.058594 71.6875 L 34.027344 71.800781 L 34.007812 71.921875 L 34.003906 72.050781 L 34.007812 72.171875 L 34.027344 72.289062 L 34.058594 72.402344 L 34.101562 72.503906 L 34.160156 72.601562 L 34.230469 72.691406 L 34.3125 72.777344 L 34.40625 72.851562 L 34.515625 72.921875 L 34.636719 72.988281 L 34.765625 73.042969 L 34.910156 73.09375 L 35.070312 73.140625 L 35.238281 73.179688 L 35.421875 73.214844 L 35.621094 73.242188 L 35.828125 73.265625 L 36.050781 73.28125 L 36.285156 73.292969 L 36.535156 73.296875 L 38.292969 73.296875 L 38.554688 73.292969 L 38.804688 73.285156 L 39.039062 73.269531 L 39.261719 73.246094 L 39.472656 73.21875 L 39.667969 73.183594 L 39.851562 73.144531 L 40.019531 73.097656 L 40.175781 73.046875 L 40.320312 72.988281 L 40.445312 72.921875 L 40.5625 72.847656 L 40.664062 72.769531 L 40.75 72.6875 L 40.824219 72.59375 L 40.882812 72.496094 L 40.933594 72.390625 L 40.964844 72.28125 L 40.984375 72.160156 L 40.992188 72.039062 L 40.984375 71.914062 L 40.96875 71.796875 L 40.933594 71.6875 L 40.890625 71.585938 L 40.832031 71.488281 L 40.761719 71.398438 L 40.679688 71.316406 L 40.582031 71.238281 L 40.476562 71.167969 L 40.355469 71.105469 L 40.21875 71.046875 L 40.070312 70.996094 L 39.910156 70.953125 L 39.734375 70.914062 L 39.546875 70.878906 L 39.34375 70.851562 L 39.128906 70.828125 L 38.902344 70.8125 L 38.660156 70.800781 L 38.402344 70.796875 Z M 36.640625 70.796875 "/>
<path style=" stroke:none;fill-rule:nonzero;fill:rgb(3.529412%,3.529412%,3.529412%);fill-opacity:1;" d="M 38.121094 63.835938 L 38.488281 63.839844 L 38.839844 63.855469 L 39.167969 63.882812 L 39.480469 63.921875 L 39.769531 63.972656 L 40.042969 64.03125 L 40.296875 64.105469 L 40.53125 64.1875 L 40.75 64.28125 L 40.945312 64.386719 L 41.121094 64.5 L 41.28125 64.628906 L 41.421875 64.773438 L 41.542969 64.925781 L 41.644531 65.09375 L 41.726562 65.273438 L 41.792969 65.464844 L 41.839844 65.667969 L 41.867188 65.882812 L 41.878906 66.113281 L 41.867188 66.335938 L 41.839844 66.546875 L 41.796875 66.746094 L 41.734375 66.933594 L 41.652344 67.109375 L 41.554688 67.277344 L 41.4375 67.429688 L 41.304688 67.570312 L 41.152344 67.699219 L 40.980469 67.820312 L 40.792969 67.925781 L 40.585938 68.023438 L 40.363281 68.109375 L 40.117188 68.183594 L 39.859375 68.246094 L 39.578125 68.300781 L 39.285156 68.34375 L 38.96875 68.375 L 38.636719 68.394531 L 38.285156 68.40625 L 36.820312 68.40625 L 36.457031 68.398438 L 36.109375 68.382812 L 35.785156 68.355469 L 35.476562 68.316406 L 35.1875 68.265625 L 34.917969 68.207031 L 34.667969 68.132812 L 34.4375 68.050781 L 34.226562 67.957031 L 34.03125 67.855469 L 33.855469 67.734375 L 33.699219 67.605469 L 33.5625 67.464844 L 33.441406 67.308594 L 33.339844 67.144531 L 33.257812 66.964844 L 33.195312 66.773438 L 33.148438 66.570312 L 33.121094 66.351562 L 33.113281 66.125 L 33.121094 65.898438 L 33.144531 65.6875 L 33.191406 65.488281 L 33.25 65.296875 L 33.328125 65.121094 L 33.425781 64.957031 L 33.539062 64.804688 L 33.671875 64.664062 L 33.820312 64.535156 L 33.984375 64.421875 L 34.167969 64.3125 L 34.371094 64.21875 L 34.589844 64.132812 L 34.828125 64.058594 L 35.082031 63.996094 L 35.355469 63.941406 L 35.644531 63.898438 L 35.957031 63.867188 L 36.28125 63.84375 L 36.628906 63.835938 Z M 36.640625 64.871094 L 36.375 64.875 L 36.125 64.882812 L 35.890625 64.898438 L 35.671875 64.917969 L 35.464844 64.945312 L 35.273438 64.980469 L 35.09375 65.019531 L 34.929688 65.0625 L 34.78125 65.113281 L 34.648438 65.171875 L 34.523438 65.234375 L 34.414062 65.304688 L 34.316406 65.382812 L 34.234375 65.464844 L 34.164062 65.558594 L 34.105469 65.65625 L 34.058594 65.761719 L 34.027344 65.878906 L 34.007812 65.996094 L 34.003906 66.125 L 34.007812 66.25 L 34.027344 66.367188 L 34.058594 66.476562 L 34.101562 66.582031 L 34.160156 66.679688 L 34.230469 66.769531 L 34.3125 66.851562 L 34.40625 66.929688 L 34.515625 67 L 34.636719 67.0625 L 34.765625 67.121094 L 34.910156 67.171875 L 35.070312 67.214844 L 35.238281 67.253906 L 35.421875 67.289062 L 35.621094 67.316406 L 35.828125 67.339844 L 36.050781 67.355469 L 36.285156 67.367188 L 36.535156 67.375 L 38.292969 67.375 L 38.554688 67.371094 L 38.804688 67.359375 L 39.039062 67.34375 L 39.261719 67.324219 L 39.472656 67.296875 L 39.667969 67.261719 L 39.851562 67.222656 L 40.019531 67.175781 L 40.175781 67.121094 L 40.320312 67.0625 L 40.445312 66.996094 L 40.5625 66.925781 L 40.664062 66.847656 L 40.75 66.761719 L 40.824219 66.671875 L 40.882812 66.570312 L 40.933594 66.46875 L 40.964844 66.355469 L 40.984375 66.238281 L 40.992188 66.113281 L 40.984375 65.992188 L 40.96875 65.875 L 40.933594 65.765625 L 40.890625 65.660156 L 40.832031 65.5625 L 40.761719 65.472656 L 40.679688 65.390625 L 40.582031 65.316406 L 40.476562 65.246094 L 40.355469 65.183594 L 40.21875 65.125 L 40.070312 65.074219 L 39.910156 65.027344 L 39.734375 64.988281 L 39.546875 64.953125 L 39.34375 64.925781 L 39.128906 64.902344 L 38.902344 64.886719 L 38.660156 64.875 L 38.402344 64.871094 Z M 36.640625 64.871094 "/>
<path style=" stroke:none;fill-rule:nonzero;fill:rgb(3.529412%,3.529412%,3.529412%);fill-opacity:1;" d="M 38.121094 57.910156 L 38.488281 57.914062 L 38.839844 57.933594 L 39.167969 57.960938 L 39.480469 58 L 39.769531 58.046875 L 40.042969 58.109375 L 40.296875 58.179688 L 40.53125 58.261719 L 40.75 58.355469 L 40.945312 58.460938 L 41.121094 58.578125 L 41.28125 58.707031 L 41.421875 58.847656 L 41.542969 59.003906 L 41.644531 59.167969 L 41.726562 59.347656 L 41.792969 59.539062 L 41.839844 59.742188 L 41.867188 59.960938 L 41.878906 60.191406 L 41.867188 60.414062 L 41.839844 60.625 L 41.796875 60.824219 L 41.734375 61.011719 L 41.652344 61.1875 L 41.554688 61.351562 L 41.4375 61.503906 L 41.304688 61.648438 L 41.152344 61.777344 L 40.980469 61.894531 L 40.792969 62 L 40.585938 62.097656 L 40.363281 62.183594 L 40.117188 62.257812 L 39.859375 62.324219 L 39.578125 62.375 L 39.285156 62.417969 L 38.96875 62.449219 L 38.636719 62.46875 L 38.285156 62.480469 L 36.820312 62.480469 L 36.457031 62.476562 L 36.109375 62.457031 L 35.785156 62.429688 L 35.476562 62.390625 L 35.1875 62.34375 L 34.917969 62.28125 L 34.667969 62.210938 L 34.4375 62.128906 L 34.226562 62.035156 L 34.03125 61.929688 L 33.855469 61.8125 L 33.699219 61.683594 L 33.5625 61.539062 L 33.441406 61.386719 L 33.339844 61.21875 L 33.257812 61.039062 L 33.195312 60.847656 L 33.148438 60.644531 L 33.121094 60.429688 L 33.113281 60.203125 L 33.121094 59.976562 L 33.144531 59.765625 L 33.191406 59.5625 L 33.25 59.375 L 33.328125 59.199219 L 33.425781 59.035156 L 33.539062 58.882812 L 33.671875 58.742188 L 33.820312 58.613281 L 33.984375 58.496094 L 34.167969 58.390625 L 34.371094 58.292969 L 34.589844 58.210938 L 34.828125 58.136719 L 35.082031 58.070312 L 35.355469 58.019531 L 35.644531 57.976562 L 35.957031 57.941406 L 36.28125 57.921875 L 36.628906 57.910156 Z M 36.640625 58.949219 L 36.375 58.949219 L 36.125 58.960938 L 35.890625 58.972656 L 35.671875 58.996094 L 35.464844 59.023438 L 35.273438 59.054688 L 35.09375 59.09375 L 34.929688 59.140625 L 34.78125 59.191406 L 34.648438 59.246094 L 34.523438 59.308594 L 34.414062 59.378906 L 34.316406 59.457031 L 34.234375 59.542969 L 34.164062 59.632812 L 34.105469 59.734375 L 34.058594 59.839844 L 34.027344 59.953125 L 34.007812 60.074219 L 34.003906 60.203125 L 34.007812 60.324219 L 34.027344 60.441406 L 34.058594 60.554688 L 34.101562 60.65625 L 34.160156 60.753906 L 34.230469 60.84375 L 34.3125 60.929688 L 34.40625 61.003906 L 34.515625 61.074219 L 34.636719 61.140625 L 34.765625 61.195312 L 34.910156 61.246094 L 35.070312 61.292969 L 35.238281 61.332031 L 35.421875 61.367188 L 35.621094 61.394531 L 35.828125 61.417969 L 36.050781 61.433594 L 36.285156 61.445312 L 36.535156 61.449219 L 38.292969 61.449219 L 38.554688 61.445312 L 38.804688 61.4375 L 39.039062 61.421875 L 39.261719 61.398438 L 39.472656 61.371094 L 39.667969 61.335938 L 39.851562 61.296875 L 40.019531 61.25 L 40.175781 61.199219 L 40.320312 61.140625 L 40.445312 61.074219 L 40.5625 61 L 40.664062 60.921875 L 40.75 60.839844 L 40.824219 60.746094 L 40.882812 60.648438 L 40.933594 60.542969 L 40.964844 60.433594 L 40.984375 60.3125 L 40.992188 60.191406 L 40.984375 60.066406 L 40.96875 59.949219 L 40.933594 59.839844 L 40.890625 59.738281 L 40.832031 59.640625 L 40.761719 59.550781 L 40.679688 59.46875 L 40.582031 59.390625 L 40.476562 59.320312 L 40.355469 59.257812 L 40.21875 59.199219 L 40.070312 59.148438 L 39.910156 59.105469 L 39.734375 59.066406 L 39.546875 59.03125 L 39.34375 59.003906 L 39.128906 58.980469 L 38.902344 58.964844 L 38.660156 58.953125 L 38.402344 58.949219 Z M 36.640625 58.949219 "/>
<path style="fill-rule:nonzero;fill:rgb(59.607843%,47.45098%,43.529412%);fill-opacity:0.8;stroke-width:0.75;stroke-linecap:round;stroke-linejoin:round;stroke:rgb(97.647059%,97.647059%,97.647059%);stroke-opacity:1;stroke-miterlimit:10;" d="M 74.398438 139.464844 L 91.851562 139.464844 L 91.851562 139.347656 L 74.398438 139.347656 Z M 74.398438 139.464844 "/>
<path style="fill-rule:nonzero;fill:rgb(59.607843%,47.45098%,43.529412%);fill-opacity:0.8;stroke-width:0.75;stroke-linecap:round;stroke-linejoin:round;stroke:rgb(97.647059%,97.647059%,97.647059%);stroke-opacity:1;stroke-miterlimit:10;" d="M 91.855469 139.464844 L 109.308594 139.464844 L 109.308594 138.480469 L 91.855469 138.480469 Z M 91.855469 139.464844 "/>
<path style="fill-rule:nonzero;fill:rgb(59.607843%,47.45098%,43.529412%);fill-opacity:0.8;stroke-width:0.75;stroke-linecap:round;stroke-linejoin:round;stroke:rgb(97.647059%,97.647059%,97.647059%);stroke-opacity:1;stroke-miterlimit:10;" d="M 109.308594 139.464844 L 126.761719 139.464844 L 126.761719 135.125 L 109.308594 135.125 Z M 109.308594 139.464844 "/>
<path style="fill-rule:nonzero;fill:rgb(59.607843%,47.45098%,43.529412%);fill-opacity:0.8;stroke-width:0.75;stroke-linecap:round;stroke-linejoin:round;stroke:rgb(97.647059%,97.647059%,97.647059%);stroke-opacity:1;stroke-miterlimit:10;" d="M 126.761719 139.464844 L 144.214844 139.464844 L 144.214844 121.5625 L 126.761719 121.5625 Z M 126.761719 139.464844 "/>
<path style="fill-rule:nonzero;fill:rgb(59.607843%,47.45098%,43.529412%);fill-opacity:0.8;stroke-width:0.75;stroke-linecap:round;stroke-linejoin:round;stroke:rgb(97.647059%,97.647059%,97.647059%);stroke-opacity:1;stroke-miterlimit:10;" d="M 144.21875 139.464844 L 161.671875 139.464844 L 161.671875 111.332031 L 144.21875 111.332031 Z M 144.21875 139.464844 "/>
<path style="fill-rule:nonzero;fill:rgb(59.607843%,47.45098%,43.529412%);fill-opacity:0.8;stroke-width:0.75;stroke-linecap:round;stroke-linejoin:round;stroke:rgb(97.647059%,97.647059%,97.647059%);stroke-opacity:1;stroke-miterlimit:10;" d="M 161.671875 139.464844 L 179.125 139.464844 L 179.125 81.792969 L 161.671875 81.792969 Z M 161.671875 139.464844 "/>
<path style="fill-rule:nonzero;fill:rgb(59.607843%,47.45098%,43.529412%);fill-opacity:0.8;stroke-width:0.75;stroke-linecap:round;stroke-linejoin:round;stroke:rgb(97.647059%,97.647059%,97.647059%);stroke-opacity:1;stroke-miterlimit:10;" d="M 179.128906 139.464844 L 196.582031 139.464844 L 196.582031 83.390625 L 179.128906 83.390625 Z M 179.128906 139.464844 "/>
<path style="fill-rule:nonzero;fill:rgb(59.607843%,47.45098%,43.529412%);fill-opacity:0.8;stroke-width:0.75;stroke-linecap:round;stroke-linejoin:round;stroke:rgb(97.647059%,97.647059%,97.647059%);stroke-opacity:1;stroke-miterlimit:10;" d="M 196.582031 139.464844 L 214.035156 139.464844 L 214.035156 62.132812 L 196.582031 62.132812 Z M 196.582031 139.464844 "/>
<path style="fill-rule:nonzero;fill:rgb(59.607843%,47.45098%,43.529412%);fill-opacity:0.8;stroke-width:0.75;stroke-linecap:round;stroke-linejoin:round;stroke:rgb(97.647059%,97.647059%,97.647059%);stroke-opacity:1;stroke-miterlimit:10;" d="M 214.035156 139.464844 L 231.488281 139.464844 L 231.488281 63.84375 L 214.035156 63.84375 Z M 214.035156 139.464844 "/>
<path style="fill-rule:nonzero;fill:rgb(59.607843%,47.45098%,43.529412%);fill-opacity:0.8;stroke-width:0.75;stroke-linecap:round;stroke-linejoin:round;stroke:rgb(97.647059%,97.647059%,97.647059%);stroke-opacity:1;stroke-miterlimit:10;" d="M 231.492188 139.464844 L 248.945312 139.464844 L 248.945312 88.855469 L 231.492188 88.855469 Z M 231.492188 139.464844 "/>
<path style="fill-rule:nonzero;fill:rgb(59.607843%,47.45098%,43.529412%);fill-opacity:0.8;stroke-width:0.75;stroke-linecap:round;stroke-linejoin:round;stroke:rgb(97.647059%,97.647059%,97.647059%);stroke-opacity:1;stroke-miterlimit:10;" d="M 248.945312 139.464844 L 266.398438 139.464844 L 266.398438 70.789062 L 248.945312 70.789062 Z M 248.945312 139.464844 "/>
<path style="fill-rule:nonzero;fill:rgb(59.607843%,47.45098%,43.529412%);fill-opacity:0.8;stroke-width:0.75;stroke-linecap:round;stroke-linejoin:round;stroke:rgb(97.647059%,97.647059%,97.647059%);stroke-opacity:1;stroke-miterlimit:10;" d="M 266.398438 139.464844 L 283.851562 139.464844 L 283.851562 91.25 L 266.398438 91.25 Z M 266.398438 139.464844 "/>
<path style="fill-rule:nonzero;fill:rgb(59.607843%,47.45098%,43.529412%);fill-opacity:0.8;stroke-width:0.75;stroke-linecap:round;stroke-linejoin:round;stroke:rgb(97.647059%,97.647059%,97.647059%);stroke-opacity:1;stroke-miterlimit:10;" d="M 283.855469 139.464844 L 301.308594 139.464844 L 301.308594 75.058594 L 283.855469 75.058594 Z M 283.855469 139.464844 "/>
<path style="fill-rule:nonzero;fill:rgb(59.607843%,47.45098%,43.529412%);fill-opacity:0.8;stroke-width:0.75;stroke-linecap:round;stroke-linejoin:round;stroke:rgb(97.647059%,97.647059%,97.647059%);stroke-opacity:1;stroke-miterlimit:10;" d="M 301.308594 139.464844 L 318.761719 139.464844 L 318.761719 82.847656 L 301.308594 82.847656 Z M 301.308594 139.464844 "/>
<path style="fill-rule:nonzero;fill:rgb(59.607843%,47.45098%,43.529412%);fill-opacity:0.8;stroke-width:0.75;stroke-linecap:round;stroke-linejoin:round;stroke:rgb(97.647059%,97.647059%,97.647059%);stroke-opacity:1;stroke-miterlimit:10;" d="M 318.761719 139.464844 L 336.214844 139.464844 L 336.214844 94.910156 L 318.761719 94.910156 Z M 318.761719 139.464844 "/>
<path style="fill-rule:nonzero;fill:rgb(59.607843%,47.45098%,43.529412%);fill-opacity:0.8;stroke-width:0.75;stroke-linecap:round;stroke-linejoin:round;stroke:rgb(97.647059%,97.647059%,97.647059%);stroke-opacity:1;stroke-miterlimit:10;" d="M 336.21875 139.464844 L 353.671875 139.464844 L 353.671875 64.171875 L 336.21875 64.171875 Z M 336.21875 139.464844 "/>
<path style="fill-rule:nonzero;fill:rgb(59.607843%,47.45098%,43.529412%);fill-opacity:0.8;stroke-width:0.75;stroke-linecap:round;stroke-linejoin:round;stroke:rgb(97.647059%,97.647059%,97.647059%);stroke-opacity:1;stroke-miterlimit:10;" d="M 353.671875 139.464844 L 371.125 139.464844 L 371.125 74.519531 L 353.671875 74.519531 Z M 353.671875 139.464844 "/>
<path style="fill-rule:nonzero;fill:rgb(59.607843%,47.45098%,43.529412%);fill-opacity:0.8;stroke-width:0.75;stroke-linecap:round;stroke-linejoin:round;stroke:rgb(97.647059%,97.647059%,97.647059%);stroke-opacity:1;stroke-miterlimit:10;" d="M 371.128906 139.464844 L 388.582031 139.464844 L 388.582031 66.308594 L 371.128906 66.308594 Z M 371.128906 139.464844 "/>
<path style="fill-rule:nonzero;fill:rgb(59.607843%,47.45098%,43.529412%);fill-opacity:0.8;stroke-width:0.75;stroke-linecap:round;stroke-linejoin:round;stroke:rgb(97.647059%,97.647059%,97.647059%);stroke-opacity:1;stroke-miterlimit:10;" d="M 388.582031 139.464844 L 406.035156 139.464844 L 406.035156 102.347656 L 388.582031 102.347656 Z M 388.582031 139.464844 "/>
<path style="fill-rule:nonzero;fill:rgb(59.607843%,47.45098%,43.529412%);fill-opacity:0.8;stroke-width:0.75;stroke-linecap:round;stroke-linejoin:round;stroke:rgb(97.647059%,97.647059%,97.647059%);stroke-opacity:1;stroke-miterlimit:10;" d="M 406.035156 139.464844 L 423.488281 139.464844 L 423.488281 129.09375 L 406.035156 129.09375 Z M 406.035156 139.464844 "/>
<path style="fill-rule:nonzero;fill:rgb(59.607843%,47.45098%,43.529412%);fill-opacity:0.8;stroke-width:0.75;stroke-linecap:round;stroke-linejoin:round;stroke:rgb(97.647059%,97.647059%,97.647059%);stroke-opacity:1;stroke-miterlimit:10;" d="M 423.492188 139.464844 L 440.945312 139.464844 L 440.945312 137.585938 L 423.492188 137.585938 Z M 423.492188 139.464844 "/>
<path style="fill-rule:nonzero;fill:rgb(59.607843%,47.45098%,43.529412%);fill-opacity:0.8;stroke-width:0.75;stroke-linecap:round;stroke-linejoin:round;stroke:rgb(97.647059%,97.647059%,97.647059%);stroke-opacity:1;stroke-miterlimit:10;" d="M 440.945312 139.464844 L 458.398438 139.464844 L 458.398438 139.441406 L 440.945312 139.441406 Z M 440.945312 139.464844 "/>
</g>
</svg>
