<?xml version="1.0" encoding="UTF-8"?>
<svg xmlns="http://www.w3.org/2000/svg" xmlns:xlink="http://www.w3.org/1999/xlink" width="504pt" height="216pt" viewBox="0 0 504 216" version="1.1">
<g id="surface425">
<path style=" stroke:none;fill-rule:nonzero;fill:rgb(3.529412%,3.529412%,3.529412%);fill-opacity:1;" d="M 256.527344 25.160156 L 256.527344 27.03125 L 257.546875 27.03125 L 257.546875 28.527344 L 256.527344 28.527344 L 256.527344 32.304688 L 256.53125 32.390625 L 256.53125 32.472656 L 256.539062 32.550781 L 256.546875 32.621094 L 256.558594 32.683594 L 256.570312 32.742188 L 256.585938 32.796875 L 256.605469 32.84375 L 256.625 32.886719 L 256.648438 32.921875 L 256.675781 32.957031 L 256.707031 32.984375 L 256.742188 33.007812 L 256.785156 33.03125 L 256.832031 33.050781 L 256.878906 33.066406 L 256.933594 33.078125 L 256.996094 33.085938 L 257.058594 33.089844 L 257.125 33.09375 L 257.183594 33.089844 L 257.238281 33.089844 L 257.289062 33.085938 L 257.339844 33.085938 L 257.386719 33.078125 L 257.433594 33.074219 L 257.519531 33.058594 L 257.597656 33.042969 L 257.582031 34.589844 L 257.480469 34.625 L 257.269531 34.6875 L 257.164062 34.710938 L 256.945312 34.75 L 256.71875 34.773438 L 256.484375 34.78125 L 256.121094 34.757812 L 255.792969 34.691406 L 255.5 34.582031 L 255.25 34.425781 L 255.035156 34.226562 L 254.859375 33.984375 L 254.722656 33.699219 L 254.621094 33.367188 L 254.5625 32.992188 L 254.539062 32.570312 L 254.539062 28.527344 L 253.660156 28.527344 L 253.660156 27.03125 L 254.539062 27.03125 L 254.539062 25.160156 Z M 256.527344 25.160156 "/>
<path style=" stroke:none;fill-rule:nonzero;fill:rgb(3.529412%,3.529412%,3.529412%);fill-opacity:1;" d="M 260.507812 27.03125 L 260.5625 27.734375 L 260.703125 27.574219 L 260.847656 27.429688 L 261.003906 27.304688 L 261.167969 27.195312 L 261.339844 27.101562 L 261.519531 27.023438 L 261.710938 26.964844 L 261.90625 26.925781 L 262.113281 26.898438 L 262.328125 26.890625 L 262.550781 26.902344 L 262.757812 26.929688 L 262.953125 26.984375 L 263.132812 27.054688 L 263.300781 27.148438 L 263.457031 27.261719 L 263.597656 27.394531 L 263.722656 27.546875 L 263.839844 27.722656 L 263.9375 27.917969 L 264.074219 27.722656 L 264.222656 27.546875 L 264.382812 27.394531 L 264.550781 27.261719 L 264.730469 27.148438 L 264.921875 27.054688 L 265.125 26.984375 L 265.339844 26.929688 L 265.566406 26.902344 L 265.800781 26.890625 L 266.183594 26.917969 L 266.523438 27 L 266.824219 27.140625 L 267.089844 27.332031 L 267.3125 27.582031 L 267.496094 27.886719 L 267.644531 28.246094 L 267.75 28.660156 L 267.820312 29.128906 L 267.847656 29.652344 L 267.847656 34.640625 L 265.859375 34.640625 L 265.859375 29.78125 L 265.855469 29.652344 L 265.851562 29.53125 L 265.84375 29.417969 L 265.828125 29.3125 L 265.8125 29.214844 L 265.792969 29.125 L 265.769531 29.039062 L 265.742188 28.964844 L 265.710938 28.898438 L 265.675781 28.839844 L 265.636719 28.785156 L 265.59375 28.738281 L 265.542969 28.695312 L 265.488281 28.65625 L 265.429688 28.628906 L 265.367188 28.601562 L 265.296875 28.582031 L 265.222656 28.566406 L 265.140625 28.558594 L 265.058594 28.558594 L 264.949219 28.5625 L 264.847656 28.585938 L 264.75 28.617188 L 264.65625 28.664062 L 264.570312 28.726562 L 264.492188 28.800781 L 264.417969 28.890625 L 264.347656 28.992188 L 264.285156 29.109375 L 264.226562 29.238281 L 264.242188 29.476562 L 264.242188 34.640625 L 262.25 34.640625 L 262.25 29.667969 L 262.246094 29.546875 L 262.234375 29.433594 L 262.222656 29.328125 L 262.207031 29.230469 L 262.1875 29.140625 L 262.164062 29.058594 L 262.140625 28.980469 L 262.109375 28.914062 L 262.074219 28.851562 L 262.039062 28.796875 L 261.996094 28.746094 L 261.945312 28.703125 L 261.890625 28.664062 L 261.832031 28.628906 L 261.765625 28.605469 L 261.695312 28.582031 L 261.539062 28.558594 L 261.449219 28.558594 L 261.347656 28.5625 L 261.253906 28.578125 L 261.160156 28.605469 L 261.074219 28.644531 L 260.988281 28.695312 L 260.910156 28.757812 L 260.835938 28.828125 L 260.765625 28.914062 L 260.695312 29.007812 L 260.632812 29.113281 L 260.632812 34.640625 L 258.644531 34.640625 L 258.644531 27.03125 Z M 260.507812 27.03125 "/>
<path style=" stroke:none;fill-rule:nonzero;fill:rgb(3.529412%,3.529412%,3.529412%);fill-opacity:1;" d="M 271.40625 34.640625 L 269.410156 34.640625 L 269.410156 27.03125 L 271.40625 27.03125 Z M 269.316406 25.0625 L 269.320312 24.972656 L 269.328125 24.882812 L 269.34375 24.800781 L 269.363281 24.71875 L 269.390625 24.640625 L 269.425781 24.566406 L 269.460938 24.496094 L 269.507812 24.425781 L 269.558594 24.363281 L 269.613281 24.304688 L 269.675781 24.246094 L 269.738281 24.195312 L 269.808594 24.152344 L 269.882812 24.113281 L 269.957031 24.082031 L 270.039062 24.054688 L 270.125 24.035156 L 270.210938 24.019531 L 270.304688 24.011719 L 270.402344 24.007812 L 270.496094 24.011719 L 270.589844 24.019531 L 270.679688 24.035156 L 270.761719 24.054688 L 270.84375 24.082031 L 270.921875 24.113281 L 270.992188 24.152344 L 271.0625 24.195312 L 271.128906 24.246094 L 271.246094 24.363281 L 271.292969 24.425781 L 271.339844 24.496094 L 271.378906 24.566406 L 271.410156 24.640625 L 271.4375 24.71875 L 271.457031 24.800781 L 271.472656 24.882812 L 271.480469 24.972656 L 271.484375 25.0625 L 271.480469 25.152344 L 271.472656 25.238281 L 271.457031 25.324219 L 271.4375 25.402344 L 271.410156 25.480469 L 271.378906 25.554688 L 271.339844 25.625 L 271.292969 25.695312 L 271.246094 25.757812 L 271.1875 25.820312 L 271.128906 25.878906 L 271.066406 25.929688 L 270.996094 25.976562 L 270.925781 26.015625 L 270.847656 26.046875 L 270.765625 26.074219 L 270.679688 26.097656 L 270.59375 26.113281 L 270.5 26.121094 L 270.402344 26.125 L 270.304688 26.121094 L 270.210938 26.113281 L 270.121094 26.097656 L 270.035156 26.074219 L 269.953125 26.046875 L 269.875 26.015625 L 269.800781 25.976562 L 269.734375 25.929688 L 269.667969 25.878906 L 269.605469 25.820312 L 269.550781 25.757812 L 269.503906 25.695312 L 269.460938 25.625 L 269.421875 25.554688 L 269.390625 25.480469 L 269.363281 25.402344 L 269.34375 25.324219 L 269.328125 25.238281 L 269.320312 25.152344 Z M 269.316406 25.0625 "/>
<path style=" stroke:none;fill-rule:nonzero;fill:rgb(3.529412%,3.529412%,3.529412%);fill-opacity:1;" d="M 274.765625 27.03125 L 274.824219 27.785156 L 274.960938 27.613281 L 275.109375 27.460938 L 275.265625 27.328125 L 275.429688 27.210938 L 275.601562 27.113281 L 275.78125 27.03125 L 275.972656 26.96875 L 276.167969 26.925781 L 276.375 26.898438 L 276.589844 26.890625 L 276.960938 26.917969 L 277.296875 27 L 277.59375 27.136719 L 277.851562 27.332031 L 278.074219 27.578125 L 278.257812 27.878906 L 278.402344 28.238281 L 278.507812 28.648438 L 278.574219 29.117188 L 278.605469 29.640625 L 278.605469 34.640625 L 276.609375 34.640625 L 276.609375 29.789062 L 276.605469 29.660156 L 276.601562 29.542969 L 276.589844 29.429688 L 276.578125 29.328125 L 276.558594 29.230469 L 276.539062 29.140625 L 276.511719 29.058594 L 276.484375 28.980469 L 276.449219 28.914062 L 276.414062 28.851562 L 276.371094 28.796875 L 276.324219 28.746094 L 276.273438 28.703125 L 276.214844 28.664062 L 276.148438 28.628906 L 276.078125 28.605469 L 276.003906 28.582031 L 275.832031 28.558594 L 275.738281 28.558594 L 275.632812 28.5625 L 275.53125 28.578125 L 275.433594 28.605469 L 275.34375 28.644531 L 275.257812 28.695312 L 275.175781 28.757812 L 275.097656 28.828125 L 275.023438 28.914062 L 274.957031 29.007812 L 274.894531 29.113281 L 274.894531 34.640625 L 272.898438 34.640625 L 272.898438 27.03125 Z M 274.765625 27.03125 "/>
<path style=" stroke:none;fill-rule:nonzero;fill:rgb(3.529412%,3.529412%,3.529412%);fill-opacity:1;" d="M 9.191406 120.328125 L 9.191406 123.210938 L 12.960938 123.210938 L 12.960938 124.285156 L 4.429688 124.285156 L 4.429688 119.84375 L 5.355469 119.84375 L 5.355469 123.210938 L 8.273438 123.210938 L 8.273438 120.328125 Z M 9.191406 120.328125 "/>
<path style=" stroke:none;fill-rule:nonzero;fill:rgb(3.529412%,3.529412%,3.529412%);fill-opacity:1;" d="M 7.59375 116.046875 L 7.578125 116.132812 L 7.570312 116.179688 L 7.554688 116.367188 L 7.554688 116.414062 L 7.550781 116.464844 L 7.550781 116.515625 L 7.558594 116.667969 L 7.585938 116.8125 L 7.628906 116.949219 L 7.691406 117.074219 L 7.769531 117.191406 L 7.867188 117.296875 L 7.980469 117.394531 L 8.109375 117.480469 L 8.257812 117.558594 L 8.425781 117.628906 L 12.960938 117.628906 L 12.960938 118.664062 L 6.621094 118.664062 L 6.621094 117.65625 L 7.265625 117.640625 L 7.121094 117.554688 L 6.992188 117.460938 L 6.875 117.359375 L 6.777344 117.25 L 6.695312 117.136719 L 6.625 117.015625 L 6.570312 116.886719 L 6.535156 116.753906 L 6.511719 116.609375 L 6.503906 116.460938 L 6.503906 116.414062 L 6.511719 116.320312 L 6.515625 116.277344 L 6.523438 116.238281 L 6.53125 116.195312 L 6.542969 116.15625 L 6.554688 116.121094 L 6.585938 116.050781 Z M 7.59375 116.046875 "/>
<path style=" stroke:none;fill-rule:nonzero;fill:rgb(3.529412%,3.529412%,3.529412%);fill-opacity:1;" d="M 13.078125 112.746094 L 13.070312 112.976562 L 13.050781 113.199219 L 13.015625 113.40625 L 12.964844 113.605469 L 12.902344 113.792969 L 12.824219 113.96875 L 12.734375 114.132812 L 12.628906 114.289062 L 12.507812 114.429688 L 12.375 114.5625 L 12.226562 114.683594 L 12.0625 114.792969 L 11.890625 114.886719 L 11.703125 114.96875 L 11.5 115.042969 L 11.285156 115.097656 L 11.058594 115.144531 L 10.820312 115.179688 L 10.566406 115.199219 L 10.300781 115.207031 L 9.53125 115.207031 L 9.253906 115.203125 L 8.988281 115.183594 L 8.738281 115.152344 L 8.496094 115.109375 L 8.269531 115.054688 L 8.050781 114.988281 L 7.847656 114.90625 L 7.65625 114.816406 L 7.476562 114.710938 L 7.3125 114.59375 L 7.15625 114.464844 L 7.019531 114.324219 L 6.898438 114.175781 L 6.792969 114.019531 L 6.707031 113.851562 L 6.632812 113.671875 L 6.574219 113.484375 L 6.535156 113.289062 L 6.511719 113.082031 L 6.503906 112.863281 L 6.511719 112.648438 L 6.53125 112.441406 L 6.566406 112.246094 L 6.617188 112.0625 L 6.679688 111.890625 L 6.757812 111.730469 L 6.851562 111.582031 L 6.957031 111.441406 L 7.078125 111.316406 L 7.210938 111.199219 L 7.363281 111.09375 L 7.527344 111 L 7.707031 110.917969 L 7.90625 110.847656 L 8.117188 110.785156 L 8.347656 110.734375 L 8.59375 110.695312 L 8.851562 110.664062 L 9.128906 110.644531 L 9.421875 110.636719 L 10.101562 110.636719 L 10.101562 114.175781 L 10.246094 114.175781 L 10.445312 114.171875 L 10.632812 114.160156 L 10.808594 114.144531 L 10.972656 114.117188 L 11.128906 114.082031 L 11.269531 114.039062 L 11.402344 113.992188 L 11.523438 113.933594 L 11.632812 113.867188 L 11.730469 113.796875 L 11.816406 113.714844 L 11.894531 113.628906 L 11.964844 113.535156 L 12.027344 113.433594 L 12.078125 113.324219 L 12.117188 113.210938 L 12.152344 113.089844 L 12.175781 112.964844 L 12.1875 112.828125 L 12.191406 112.6875 L 12.191406 112.597656 L 12.1875 112.511719 L 12.164062 112.339844 L 12.148438 112.257812 L 12.132812 112.179688 L 12.109375 112.101562 L 12.082031 112.027344 L 12.054688 111.957031 L 12.023438 111.886719 L 11.945312 111.746094 L 11.851562 111.613281 L 11.796875 111.546875 L 11.738281 111.480469 L 11.679688 111.417969 L 11.613281 111.351562 L 11.542969 111.292969 L 11.472656 111.230469 L 12.128906 110.691406 L 12.308594 110.832031 L 12.46875 110.988281 L 12.613281 111.160156 L 12.734375 111.34375 L 12.839844 111.542969 L 12.925781 111.753906 L 12.992188 111.980469 L 13.039062 112.222656 L 13.066406 112.476562 Z M 7.394531 112.863281 L 7.398438 112.988281 L 7.410156 113.109375 L 7.433594 113.222656 L 7.464844 113.328125 L 7.503906 113.425781 L 7.554688 113.519531 L 7.613281 113.601562 L 7.679688 113.683594 L 7.753906 113.753906 L 7.839844 113.820312 L 7.933594 113.878906 L 8.035156 113.933594 L 8.148438 113.980469 L 8.269531 114.023438 L 8.402344 114.0625 L 8.542969 114.09375 L 8.695312 114.121094 L 8.855469 114.144531 L 9.027344 114.160156 L 9.210938 114.171875 L 9.210938 111.675781 L 9.070312 111.675781 L 8.894531 111.6875 L 8.730469 111.703125 L 8.574219 111.722656 L 8.429688 111.746094 L 8.296875 111.777344 L 8.171875 111.8125 L 8.058594 111.851562 L 7.957031 111.898438 L 7.863281 111.949219 L 7.78125 112.003906 L 7.707031 112.0625 L 7.640625 112.128906 L 7.582031 112.199219 L 7.53125 112.277344 L 7.492188 112.359375 L 7.457031 112.449219 L 7.429688 112.542969 L 7.410156 112.644531 L 7.398438 112.75 Z M 7.394531 112.863281 "/>
<path style=" stroke:none;fill-rule:nonzero;fill:rgb(3.529412%,3.529412%,3.529412%);fill-opacity:1;" d="M 9.503906 109.613281 L 9.214844 109.605469 L 8.9375 109.589844 L 8.679688 109.5625 L 8.433594 109.527344 L 8.203125 109.476562 L 7.984375 109.417969 L 7.785156 109.347656 L 7.597656 109.265625 L 7.421875 109.175781 L 7.265625 109.074219 L 7.121094 108.960938 L 6.992188 108.835938 L 6.875 108.703125 L 6.777344 108.558594 L 6.695312 108.402344 L 6.625 108.238281 L 6.570312 108.058594 L 6.535156 107.875 L 6.511719 107.675781 L 6.503906 107.46875 L 6.511719 107.289062 L 6.53125 107.117188 L 6.570312 106.953125 L 6.621094 106.796875 L 6.6875 106.652344 L 6.769531 106.511719 L 6.863281 106.382812 L 6.976562 106.257812 L 7.101562 106.144531 L 7.242188 106.039062 L 6.621094 105.992188 L 6.621094 105.042969 L 15.398438 105.042969 L 15.398438 106.078125 L 12.402344 106.078125 L 12.53125 106.183594 L 12.644531 106.296875 L 12.746094 106.417969 L 12.835938 106.542969 L 12.910156 106.679688 L 12.96875 106.824219 L 13.015625 106.972656 L 13.050781 107.132812 L 13.070312 107.300781 L 13.078125 107.472656 L 13.070312 107.675781 L 13.046875 107.863281 L 13.011719 108.046875 L 12.957031 108.21875 L 12.890625 108.378906 L 12.808594 108.535156 L 12.710938 108.675781 L 12.601562 108.8125 L 12.472656 108.933594 L 12.332031 109.050781 L 12.175781 109.15625 L 12.003906 109.25 L 11.820312 109.332031 L 11.625 109.40625 L 11.414062 109.464844 L 11.1875 109.515625 L 10.949219 109.558594 L 10.699219 109.585938 L 10.433594 109.605469 L 10.152344 109.613281 Z M 10.09375 108.574219 L 10.300781 108.570312 L 10.5 108.5625 L 10.683594 108.546875 L 10.859375 108.523438 L 11.023438 108.492188 L 11.175781 108.457031 L 11.316406 108.414062 L 11.449219 108.367188 L 11.566406 108.308594 L 11.675781 108.246094 L 11.773438 108.179688 L 11.863281 108.101562 L 11.941406 108.015625 L 12.007812 107.921875 L 12.0625 107.824219 L 12.109375 107.714844 L 12.144531 107.597656 L 12.171875 107.476562 L 12.1875 107.34375 L 12.191406 107.203125 L 12.183594 107.0625 L 12.164062 106.925781 L 12.128906 106.796875 L 12.082031 106.675781 L 12.019531 106.558594 L 11.941406 106.449219 L 11.851562 106.347656 L 11.746094 106.25 L 11.628906 106.164062 L 11.496094 106.078125 L 8.097656 106.078125 L 7.964844 106.167969 L 7.84375 106.257812 L 7.738281 106.355469 L 7.648438 106.460938 L 7.570312 106.570312 L 7.507812 106.683594 L 7.457031 106.804688 L 7.421875 106.929688 L 7.402344 107.0625 L 7.394531 107.199219 L 7.398438 107.335938 L 7.414062 107.46875 L 7.441406 107.59375 L 7.476562 107.707031 L 7.523438 107.816406 L 7.578125 107.917969 L 7.644531 108.007812 L 7.722656 108.09375 L 7.8125 108.171875 L 7.910156 108.242188 L 8.015625 108.304688 L 8.136719 108.359375 L 8.265625 108.410156 L 8.40625 108.453125 L 8.554688 108.488281 L 8.714844 108.519531 L 8.886719 108.542969 L 9.066406 108.558594 L 9.257812 108.570312 L 9.460938 108.574219 Z M 10.09375 108.574219 "/>
<path style=" stroke:none;fill-rule:nonzero;fill:rgb(3.529412%,3.529412%,3.529412%);fill-opacity:1;" d="M 12.402344 100.15625 L 12.53125 100.261719 L 12.644531 100.378906 L 12.746094 100.507812 L 12.835938 100.644531 L 12.910156 100.789062 L 12.96875 100.945312 L 13.015625 101.109375 L 13.050781 101.285156 L 13.070312 101.46875 L 13.078125 101.660156 L 13.070312 101.828125 L 13.054688 101.988281 L 13.023438 102.140625 L 12.984375 102.28125 L 12.929688 102.417969 L 12.863281 102.542969 L 12.789062 102.660156 L 12.699219 102.769531 L 12.597656 102.871094 L 12.484375 102.960938 L 12.359375 103.046875 L 12.226562 103.121094 L 12.078125 103.1875 L 11.921875 103.246094 L 11.753906 103.292969 L 11.574219 103.332031 L 11.382812 103.363281 L 11.183594 103.386719 L 10.972656 103.402344 L 10.75 103.40625 L 6.621094 103.40625 L 6.621094 102.375 L 10.675781 102.375 L 10.957031 102.367188 L 11.207031 102.339844 L 11.429688 102.296875 L 11.625 102.234375 L 11.785156 102.152344 L 11.921875 102.054688 L 12.023438 101.941406 L 12.097656 101.804688 L 12.140625 101.65625 L 12.15625 101.484375 L 12.148438 101.304688 L 12.125 101.132812 L 12.082031 100.972656 L 12.023438 100.824219 L 11.945312 100.6875 L 11.851562 100.566406 L 11.742188 100.453125 L 11.617188 100.351562 L 11.472656 100.261719 L 11.3125 100.183594 L 6.621094 100.183594 L 6.621094 99.148438 L 12.960938 99.148438 L 12.960938 100.132812 Z M 12.402344 100.15625 "/>
<path style=" stroke:none;fill-rule:nonzero;fill:rgb(3.529412%,3.529412%,3.529412%);fill-opacity:1;" d="M 13.078125 95.320312 L 13.070312 95.550781 L 13.050781 95.773438 L 13.015625 95.980469 L 12.964844 96.179688 L 12.902344 96.367188 L 12.824219 96.542969 L 12.734375 96.707031 L 12.628906 96.863281 L 12.507812 97.003906 L 12.375 97.136719 L 12.226562 97.257812 L 12.0625 97.367188 L 11.890625 97.460938 L 11.703125 97.542969 L 11.5 97.617188 L 11.285156 97.671875 L 11.058594 97.71875 L 10.820312 97.753906 L 10.566406 97.773438 L 10.300781 97.78125 L 9.53125 97.78125 L 9.253906 97.777344 L 8.988281 97.757812 L 8.738281 97.726562 L 8.496094 97.683594 L 8.269531 97.628906 L 8.050781 97.5625 L 7.847656 97.480469 L 7.65625 97.390625 L 7.476562 97.285156 L 7.3125 97.167969 L 7.15625 97.039062 L 7.019531 96.898438 L 6.898438 96.75 L 6.792969 96.59375 L 6.707031 96.425781 L 6.632812 96.246094 L 6.574219 96.058594 L 6.535156 95.863281 L 6.511719 95.65625 L 6.503906 95.4375 L 6.511719 95.222656 L 6.53125 95.015625 L 6.566406 94.820312 L 6.617188 94.636719 L 6.679688 94.464844 L 6.757812 94.304688 L 6.851562 94.15625 L 6.957031 94.015625 L 7.078125 93.890625 L 7.210938 93.773438 L 7.363281 93.667969 L 7.527344 93.574219 L 7.707031 93.492188 L 7.90625 93.421875 L 8.117188 93.359375 L 8.347656 93.308594 L 8.59375 93.269531 L 8.851562 93.238281 L 9.128906 93.21875 L 9.421875 93.210938 L 10.101562 93.210938 L 10.101562 96.75 L 10.246094 96.75 L 10.445312 96.746094 L 10.632812 96.734375 L 10.808594 96.71875 L 10.972656 96.691406 L 11.128906 96.65625 L 11.269531 96.613281 L 11.402344 96.566406 L 11.523438 96.507812 L 11.632812 96.441406 L 11.730469 96.371094 L 11.816406 96.289062 L 11.894531 96.203125 L 11.964844 96.109375 L 12.027344 96.007812 L 12.078125 95.898438 L 12.117188 95.785156 L 12.152344 95.664062 L 12.175781 95.539062 L 12.1875 95.402344 L 12.191406 95.261719 L 12.191406 95.171875 L 12.1875 95.085938 L 12.164062 94.914062 L 12.148438 94.832031 L 12.132812 94.753906 L 12.109375 94.675781 L 12.082031 94.601562 L 12.054688 94.53125 L 12.023438 94.460938 L 11.945312 94.320312 L 11.851562 94.1875 L 11.796875 94.121094 L 11.738281 94.054688 L 11.679688 93.992188 L 11.613281 93.925781 L 11.542969 93.867188 L 11.472656 93.804688 L 12.128906 93.265625 L 12.308594 93.40625 L 12.46875 93.5625 L 12.613281 93.734375 L 12.734375 93.917969 L 12.839844 94.117188 L 12.925781 94.328125 L 12.992188 94.554688 L 13.039062 94.796875 L 13.066406 95.050781 Z M 7.394531 95.4375 L 7.398438 95.5625 L 7.410156 95.683594 L 7.433594 95.796875 L 7.464844 95.902344 L 7.503906 96 L 7.554688 96.09375 L 7.613281 96.175781 L 7.679688 96.257812 L 7.753906 96.328125 L 7.839844 96.394531 L 7.933594 96.453125 L 8.035156 96.507812 L 8.148438 96.554688 L 8.269531 96.597656 L 8.402344 96.636719 L 8.542969 96.667969 L 8.695312 96.695312 L 8.855469 96.71875 L 9.027344 96.734375 L 9.210938 96.746094 L 9.210938 94.25 L 9.070312 94.25 L 8.894531 94.261719 L 8.730469 94.277344 L 8.574219 94.296875 L 8.429688 94.320312 L 8.296875 94.351562 L 8.171875 94.386719 L 8.058594 94.425781 L 7.957031 94.472656 L 7.863281 94.523438 L 7.78125 94.578125 L 7.707031 94.636719 L 7.640625 94.703125 L 7.582031 94.773438 L 7.53125 94.851562 L 7.492188 94.933594 L 7.457031 95.023438 L 7.429688 95.117188 L 7.410156 95.21875 L 7.398438 95.324219 Z M 7.394531 95.4375 "/>
<path style=" stroke:none;fill-rule:nonzero;fill:rgb(3.529412%,3.529412%,3.529412%);fill-opacity:1;" d="M 6.621094 90.992188 L 7.304688 90.960938 L 7.152344 90.839844 L 7.015625 90.707031 L 6.894531 90.570312 L 6.792969 90.425781 L 6.703125 90.273438 L 6.632812 90.117188 L 6.574219 89.953125 L 6.535156 89.78125 L 6.511719 89.605469 L 6.503906 89.421875 L 6.527344 89.101562 L 6.59375 88.816406 L 6.703125 88.5625 L 6.863281 88.339844 L 7.0625 88.152344 L 7.3125 88 L 7.601562 87.878906 L 7.9375 87.792969 L 8.320312 87.738281 L 8.746094 87.714844 L 12.960938 87.714844 L 12.960938 88.746094 L 8.792969 88.746094 L 8.648438 88.75 L 8.511719 88.757812 L 8.386719 88.769531 L 8.269531 88.789062 L 8.160156 88.808594 L 8.058594 88.839844 L 7.964844 88.871094 L 7.878906 88.910156 L 7.804688 88.953125 L 7.738281 89 L 7.679688 89.050781 L 7.625 89.109375 L 7.578125 89.167969 L 7.535156 89.238281 L 7.503906 89.308594 L 7.472656 89.386719 L 7.453125 89.46875 L 7.433594 89.554688 L 7.425781 89.644531 L 7.421875 89.742188 L 7.425781 89.820312 L 7.433594 89.894531 L 7.445312 89.96875 L 7.464844 90.039062 L 7.488281 90.109375 L 7.515625 90.179688 L 7.585938 90.3125 L 7.632812 90.378906 L 7.679688 90.441406 L 7.789062 90.558594 L 7.851562 90.613281 L 7.976562 90.714844 L 8.046875 90.765625 L 8.195312 90.851562 L 8.273438 90.894531 L 8.355469 90.933594 L 12.960938 90.933594 L 12.960938 91.96875 L 6.621094 91.96875 Z M 6.621094 90.992188 "/>
<path style=" stroke:none;fill-rule:nonzero;fill:rgb(3.529412%,3.529412%,3.529412%);fill-opacity:1;" d="M 12.191406 83.960938 L 12.1875 83.859375 L 12.179688 83.761719 L 12.164062 83.667969 L 12.140625 83.582031 L 12.113281 83.496094 L 12.078125 83.414062 L 12.039062 83.339844 L 11.988281 83.265625 L 11.9375 83.199219 L 11.875 83.132812 L 11.808594 83.074219 L 11.734375 83.019531 L 11.660156 82.972656 L 11.574219 82.929688 L 11.488281 82.894531 L 11.390625 82.863281 L 11.292969 82.835938 L 11.1875 82.816406 L 11.078125 82.804688 L 10.960938 82.792969 L 10.960938 81.816406 L 11.140625 81.828125 L 11.316406 81.851562 L 11.484375 81.890625 L 11.644531 81.9375 L 11.796875 81.996094 L 11.945312 82.066406 L 12.089844 82.148438 L 12.226562 82.242188 L 12.355469 82.347656 L 12.480469 82.464844 L 12.59375 82.589844 L 12.695312 82.722656 L 12.785156 82.855469 L 12.863281 82.996094 L 12.929688 83.144531 L 12.980469 83.296875 L 13.023438 83.453125 L 13.054688 83.617188 L 13.070312 83.785156 L 13.078125 83.960938 L 13.070312 84.191406 L 13.046875 84.410156 L 13.011719 84.617188 L 12.960938 84.8125 L 12.894531 85 L 12.8125 85.171875 L 12.714844 85.335938 L 12.605469 85.488281 L 12.480469 85.628906 L 12.339844 85.757812 L 12.183594 85.875 L 12.011719 85.980469 L 11.828125 86.074219 L 11.628906 86.152344 L 11.414062 86.21875 L 11.1875 86.277344 L 10.945312 86.320312 L 10.6875 86.351562 L 10.414062 86.367188 L 10.128906 86.375 L 9.433594 86.375 L 9.152344 86.367188 L 8.886719 86.351562 L 8.632812 86.320312 L 8.394531 86.277344 L 8.171875 86.21875 L 7.957031 86.152344 L 7.761719 86.074219 L 7.578125 85.980469 L 7.410156 85.875 L 7.253906 85.757812 L 7.109375 85.628906 L 6.984375 85.492188 L 6.871094 85.339844 L 6.773438 85.175781 L 6.691406 85.003906 L 6.621094 84.816406 L 6.570312 84.621094 L 6.53125 84.414062 L 6.511719 84.195312 L 6.503906 83.964844 L 6.507812 83.777344 L 6.527344 83.59375 L 6.558594 83.417969 L 6.601562 83.253906 L 6.65625 83.09375 L 6.722656 82.945312 L 6.804688 82.800781 L 6.898438 82.667969 L 7 82.542969 L 7.117188 82.425781 L 7.246094 82.316406 L 7.382812 82.21875 L 7.527344 82.128906 L 7.683594 82.050781 L 7.847656 81.984375 L 8.019531 81.929688 L 8.199219 81.886719 L 8.390625 81.851562 L 8.589844 81.828125 L 8.800781 81.816406 L 8.800781 82.792969 L 8.664062 82.804688 L 8.53125 82.820312 L 8.410156 82.839844 L 8.292969 82.867188 L 8.183594 82.898438 L 8.082031 82.933594 L 7.988281 82.976562 L 7.898438 83.023438 L 7.820312 83.074219 L 7.746094 83.132812 L 7.679688 83.195312 L 7.617188 83.261719 L 7.566406 83.335938 L 7.519531 83.410156 L 7.480469 83.492188 L 7.449219 83.578125 L 7.425781 83.667969 L 7.40625 83.761719 L 7.398438 83.863281 L 7.394531 83.964844 L 7.398438 84.101562 L 7.410156 84.226562 L 7.433594 84.347656 L 7.464844 84.460938 L 7.507812 84.566406 L 7.558594 84.667969 L 7.617188 84.757812 L 7.6875 84.84375 L 7.765625 84.921875 L 7.851562 84.992188 L 7.945312 85.054688 L 8.054688 85.113281 L 8.175781 85.164062 L 8.304688 85.207031 L 8.449219 85.246094 L 8.601562 85.277344 L 8.769531 85.300781 L 8.949219 85.320312 L 9.136719 85.332031 L 9.339844 85.335938 L 10.148438 85.335938 L 10.363281 85.332031 L 10.570312 85.324219 L 10.761719 85.308594 L 10.9375 85.285156 L 11.101562 85.253906 L 11.253906 85.21875 L 11.394531 85.175781 L 11.519531 85.128906 L 11.628906 85.070312 L 11.730469 85.007812 L 11.816406 84.9375 L 11.894531 84.859375 L 11.964844 84.773438 L 12.027344 84.679688 L 12.078125 84.578125 L 12.117188 84.472656 L 12.152344 84.355469 L 12.175781 84.230469 L 12.1875 84.097656 Z M 12.191406 83.960938 "/>
<path style=" stroke:none;fill-rule:nonzero;fill:rgb(3.529412%,3.529412%,3.529412%);fill-opacity:1;" d="M 11.238281 78.886719 L 6.621094 77.730469 L 6.621094 76.628906 L 13.855469 78.703125 L 14.015625 78.753906 L 14.167969 78.804688 L 14.308594 78.863281 L 14.445312 78.921875 L 14.574219 78.988281 L 14.691406 79.054688 L 14.804688 79.128906 L 14.910156 79.203125 L 15.003906 79.28125 L 15.09375 79.367188 L 15.175781 79.453125 L 15.246094 79.542969 L 15.3125 79.632812 L 15.367188 79.726562 L 15.414062 79.824219 L 15.453125 79.921875 L 15.480469 80.023438 L 15.503906 80.125 L 15.515625 80.230469 L 15.519531 80.339844 L 15.519531 80.382812 L 15.511719 80.476562 L 15.496094 80.578125 L 15.488281 80.632812 L 15.472656 80.691406 L 15.460938 80.75 L 15.445312 80.8125 L 15.425781 80.878906 L 14.546875 80.878906 L 14.570312 80.648438 L 14.570312 80.5625 L 14.5625 80.476562 L 14.550781 80.398438 L 14.535156 80.320312 L 14.515625 80.25 L 14.492188 80.179688 L 14.464844 80.117188 L 14.433594 80.054688 L 14.355469 79.945312 L 14.308594 79.894531 L 14.257812 79.847656 L 14.199219 79.800781 L 14.136719 79.757812 L 14.066406 79.714844 L 13.988281 79.671875 L 13.902344 79.632812 L 13.816406 79.597656 L 13.71875 79.5625 L 13.617188 79.53125 L 12.90625 79.324219 L 6.621094 81.1875 L 6.621094 80.058594 Z M 11.238281 78.886719 "/>
<path style="fill:none;stroke-width:0.75;stroke-linecap:round;stroke-linejoin:round;stroke:rgb(3.529412%,3.529412%,3.529412%);stroke-opacity:1;stroke-miterlimit:10;" d="M 74.398438 142.558594 L 458.398438 142.558594 "/>
<path style="fill:none;stroke-width:0.75;stroke-linecap:round;stroke-linejoin:round;stroke:rgb(3.529412%,3.529412%,3.529412%);stroke-opacity:1;stroke-miterlimit:10;" d="M 74.398438 142.558594 L 74.398438 149.761719 "/>
<path style="fill:none;stroke-width:0.75;stroke-linecap:round;stroke-linejoin:round;stroke:rgb(3.529412%,3.529412%,3.529412%);stroke-opacity:1;stroke-miterlimit:10;" d="M 151.199219 142.558594 L 151.199219 149.761719 "/>
<path style="fill:none;stroke-width:0.75;stroke-linecap:round;stroke-linejoin:round;stroke:rgb(3.529412%,3.529412%,3.529412%);stroke-opacity:1;stroke-miterlimit:10;" d="M 228 142.558594 L 228 149.761719 "/>
<path style="fill:none;stroke-width:0.75;stroke-linecap:round;stroke-linejoin:round;stroke:rgb(3.529412%,3.529412%,3.529412%);stroke-opacity:1;stroke-miterlimit:10;" d="M 304.800781 142.558594 L 304.800781 149.761719 "/>
<path style="fill:none;stroke-width:0.75;stroke-linecap:round;stroke-linejoin:round;stroke:rgb(3.529412%,3.529412%,3.529412%);stroke-opacity:1;stroke-miterlimit:10;" d="M 381.601562 142.558594 L 381.601562 149.761719 "/>
<path style="fill:none;stroke-width:0.75;stroke-linecap:round;stroke-linejoin:round;stroke:rgb(3.529412%,3.529412%,3.529412%);stroke-opacity:1;stroke-miterlimit:10;" d="M 458.398438 142.558594 L 458.398438 149.761719 "/>
<path style=" stroke:none;fill-rule:nonzero;fill:rgb(3.529412%,3.529412%,3.529412%);fill-opacity:1;" d="M 69.683594 165.296875 L 67.261719 165.296875 L 67.261719 164.414062 L 69.683594 164.414062 Z M 69.683594 165.296875 "/>
<path style=" stroke:none;fill-rule:nonzero;fill:rgb(3.529412%,3.529412%,3.529412%);fill-opacity:1;" d="M 75.417969 168.480469 L 70.648438 168.480469 L 70.648438 167.699219 L 73.082031 164.476562 L 73.1875 164.332031 L 73.289062 164.191406 L 73.382812 164.054688 L 73.46875 163.925781 L 73.546875 163.800781 L 73.621094 163.683594 L 73.6875 163.566406 L 73.746094 163.460938 L 73.796875 163.355469 L 73.84375 163.257812 L 73.882812 163.164062 L 73.921875 163.066406 L 73.953125 162.964844 L 73.980469 162.867188 L 74.007812 162.765625 L 74.027344 162.664062 L 74.039062 162.5625 L 74.050781 162.457031 L 74.058594 162.351562 L 74.058594 162.113281 L 74.046875 161.984375 L 74.03125 161.859375 L 74.007812 161.742188 L 73.980469 161.628906 L 73.945312 161.523438 L 73.90625 161.421875 L 73.859375 161.324219 L 73.804688 161.230469 L 73.742188 161.144531 L 73.679688 161.0625 L 73.609375 160.992188 L 73.535156 160.929688 L 73.457031 160.875 L 73.378906 160.828125 L 73.292969 160.789062 L 73.203125 160.761719 L 73.109375 160.738281 L 73.011719 160.726562 L 72.910156 160.722656 L 72.785156 160.726562 L 72.664062 160.742188 L 72.546875 160.761719 L 72.4375 160.792969 L 72.335938 160.835938 L 72.238281 160.882812 L 72.144531 160.941406 L 72.058594 161.011719 L 71.976562 161.085938 L 71.902344 161.171875 L 71.835938 161.265625 L 71.777344 161.367188 L 71.726562 161.476562 L 71.679688 161.59375 L 71.640625 161.71875 L 71.609375 161.851562 L 71.585938 161.992188 L 71.566406 162.140625 L 71.554688 162.296875 L 71.550781 162.460938 L 70.515625 162.460938 L 70.523438 162.230469 L 70.539062 162.007812 L 70.574219 161.796875 L 70.617188 161.59375 L 70.675781 161.398438 L 70.746094 161.210938 L 70.832031 161.035156 L 70.929688 160.867188 L 71.039062 160.707031 L 71.160156 160.558594 L 71.292969 160.421875 L 71.4375 160.296875 L 71.589844 160.1875 L 71.75 160.09375 L 71.921875 160.011719 L 72.101562 159.949219 L 72.289062 159.898438 L 72.488281 159.859375 L 72.695312 159.839844 L 72.910156 159.832031 L 73.109375 159.835938 L 73.300781 159.855469 L 73.484375 159.886719 L 73.65625 159.933594 L 73.824219 159.988281 L 73.980469 160.058594 L 74.125 160.140625 L 74.265625 160.234375 L 74.394531 160.339844 L 74.515625 160.457031 L 74.628906 160.585938 L 74.726562 160.722656 L 74.816406 160.867188 L 74.890625 161.023438 L 74.957031 161.183594 L 75.007812 161.355469 L 75.050781 161.53125 L 75.078125 161.71875 L 75.097656 161.914062 L 75.101562 162.117188 L 75.089844 162.375 L 75.050781 162.640625 L 74.984375 162.917969 L 74.890625 163.203125 L 74.773438 163.5 L 74.628906 163.800781 L 74.457031 164.117188 L 74.257812 164.4375 L 74.035156 164.769531 L 73.785156 165.109375 L 71.886719 167.59375 L 75.417969 167.59375 Z M 75.417969 168.480469 "/>
<path style=" stroke:none;fill-rule:nonzero;fill:rgb(3.529412%,3.529412%,3.529412%);fill-opacity:1;" d="M 81.132812 164.839844 L 81.125 165.210938 L 81.109375 165.558594 L 81.082031 165.886719 L 81.042969 166.199219 L 80.996094 166.492188 L 80.933594 166.765625 L 80.863281 167.019531 L 80.78125 167.253906 L 80.6875 167.46875 L 80.582031 167.664062 L 80.464844 167.84375 L 80.335938 168 L 80.195312 168.140625 L 80.039062 168.261719 L 79.875 168.363281 L 79.695312 168.449219 L 79.503906 168.511719 L 79.300781 168.558594 L 79.082031 168.585938 L 78.851562 168.597656 L 78.628906 168.589844 L 78.417969 168.5625 L 78.21875 168.515625 L 78.03125 168.453125 L 77.855469 168.375 L 77.691406 168.273438 L 77.539062 168.15625 L 77.394531 168.023438 L 77.265625 167.871094 L 77.148438 167.699219 L 77.039062 167.511719 L 76.945312 167.304688 L 76.859375 167.082031 L 76.785156 166.839844 L 76.71875 166.578125 L 76.667969 166.300781 L 76.625 166.003906 L 76.59375 165.6875 L 76.570312 165.355469 L 76.5625 165.003906 L 76.5625 163.539062 L 76.566406 163.175781 L 76.585938 162.832031 L 76.613281 162.503906 L 76.648438 162.195312 L 76.699219 161.910156 L 76.761719 161.640625 L 76.832031 161.390625 L 76.914062 161.15625 L 77.007812 160.945312 L 77.113281 160.75 L 77.230469 160.578125 L 77.359375 160.421875 L 77.503906 160.28125 L 77.65625 160.164062 L 77.824219 160.0625 L 78.003906 159.980469 L 78.195312 159.914062 L 78.398438 159.867188 L 78.613281 159.839844 L 78.839844 159.832031 L 79.066406 159.839844 L 79.277344 159.867188 L 79.480469 159.910156 L 79.667969 159.972656 L 79.84375 160.050781 L 80.007812 160.144531 L 80.160156 160.257812 L 80.300781 160.390625 L 80.429688 160.539062 L 80.546875 160.703125 L 80.652344 160.886719 L 80.75 161.089844 L 80.832031 161.308594 L 80.90625 161.546875 L 80.972656 161.800781 L 81.023438 162.074219 L 81.066406 162.367188 L 81.101562 162.675781 L 81.121094 163.003906 L 81.132812 163.347656 Z M 80.09375 163.359375 L 80.09375 163.09375 L 80.082031 162.847656 L 80.070312 162.609375 L 80.046875 162.390625 L 80.019531 162.183594 L 79.988281 161.992188 L 79.949219 161.8125 L 79.902344 161.652344 L 79.851562 161.5 L 79.796875 161.367188 L 79.734375 161.246094 L 79.664062 161.132812 L 79.585938 161.039062 L 79.5 160.953125 L 79.410156 160.882812 L 79.308594 160.824219 L 79.203125 160.78125 L 79.089844 160.746094 L 78.96875 160.730469 L 78.839844 160.722656 L 78.71875 160.730469 L 78.597656 160.746094 L 78.488281 160.777344 L 78.386719 160.824219 L 78.289062 160.878906 L 78.199219 160.949219 L 78.113281 161.03125 L 78.035156 161.128906 L 77.96875 161.234375 L 77.902344 161.355469 L 77.847656 161.488281 L 77.796875 161.632812 L 77.75 161.789062 L 77.710938 161.960938 L 77.675781 162.144531 L 77.648438 162.339844 L 77.625 162.546875 L 77.609375 162.769531 L 77.597656 163.003906 L 77.59375 163.253906 L 77.59375 165.011719 L 77.597656 165.273438 L 77.605469 165.523438 L 77.621094 165.757812 L 77.644531 165.984375 L 77.671875 166.191406 L 77.707031 166.386719 L 77.746094 166.570312 L 77.792969 166.738281 L 77.84375 166.894531 L 77.902344 167.039062 L 77.96875 167.167969 L 78.042969 167.28125 L 78.121094 167.382812 L 78.203125 167.46875 L 78.296875 167.542969 L 78.394531 167.605469 L 78.5 167.652344 L 78.609375 167.683594 L 78.730469 167.707031 L 78.851562 167.710938 L 78.976562 167.707031 L 79.09375 167.6875 L 79.203125 167.65625 L 79.304688 167.609375 L 79.402344 167.554688 L 79.492188 167.484375 L 79.574219 167.398438 L 79.652344 167.304688 L 79.722656 167.195312 L 79.785156 167.074219 L 79.839844 166.9375 L 79.894531 166.792969 L 79.9375 166.628906 L 79.976562 166.453125 L 80.011719 166.265625 L 80.039062 166.066406 L 80.0625 165.847656 L 80.078125 165.621094 L 80.089844 165.378906 L 80.09375 165.121094 Z M 80.09375 163.359375 "/>
<path style=" stroke:none;fill-rule:nonzero;fill:rgb(3.529412%,3.529412%,3.529412%);fill-opacity:1;" d="M 146.484375 165.296875 L 144.0625 165.296875 L 144.0625 164.414062 L 146.484375 164.414062 Z M 146.484375 165.296875 "/>
<path style=" stroke:none;fill-rule:nonzero;fill:rgb(3.529412%,3.529412%,3.529412%);fill-opacity:1;" d="M 150.539062 168.480469 L 149.496094 168.480469 L 149.496094 161.253906 L 147.703125 162.058594 L 147.703125 161.074219 L 150.375 159.90625 L 150.539062 159.90625 Z M 150.539062 168.480469 "/>
<path style=" stroke:none;fill-rule:nonzero;fill:rgb(3.529412%,3.529412%,3.529412%);fill-opacity:1;" d="M 157.933594 164.839844 L 157.925781 165.210938 L 157.910156 165.558594 L 157.882812 165.886719 L 157.84375 166.199219 L 157.792969 166.492188 L 157.734375 166.765625 L 157.664062 167.019531 L 157.578125 167.253906 L 157.484375 167.46875 L 157.382812 167.664062 L 157.265625 167.84375 L 157.136719 168 L 156.996094 168.140625 L 156.839844 168.261719 L 156.675781 168.363281 L 156.496094 168.449219 L 156.304688 168.511719 L 156.097656 168.558594 L 155.882812 168.585938 L 155.652344 168.597656 L 155.429688 168.589844 L 155.21875 168.5625 L 155.019531 168.515625 L 154.832031 168.453125 L 154.65625 168.375 L 154.492188 168.273438 L 154.335938 168.15625 L 154.195312 168.023438 L 154.066406 167.871094 L 153.949219 167.699219 L 153.839844 167.511719 L 153.746094 167.304688 L 153.660156 167.082031 L 153.585938 166.839844 L 153.519531 166.578125 L 153.46875 166.300781 L 153.425781 166.003906 L 153.394531 165.6875 L 153.371094 165.355469 L 153.363281 165.003906 L 153.363281 163.539062 L 153.367188 163.175781 L 153.382812 162.832031 L 153.410156 162.503906 L 153.449219 162.195312 L 153.5 161.910156 L 153.558594 161.640625 L 153.632812 161.390625 L 153.714844 161.15625 L 153.808594 160.945312 L 153.914062 160.75 L 154.03125 160.578125 L 154.160156 160.421875 L 154.300781 160.28125 L 154.457031 160.164062 L 154.625 160.0625 L 154.800781 159.980469 L 154.992188 159.914062 L 155.195312 159.867188 L 155.414062 159.839844 L 155.640625 159.832031 L 155.867188 159.839844 L 156.078125 159.867188 L 156.28125 159.910156 L 156.46875 159.972656 L 156.644531 160.050781 L 156.808594 160.144531 L 156.960938 160.257812 L 157.101562 160.390625 L 157.230469 160.539062 L 157.347656 160.703125 L 157.453125 160.886719 L 157.546875 161.089844 L 157.632812 161.308594 L 157.707031 161.546875 L 157.769531 161.800781 L 157.824219 162.074219 L 157.867188 162.367188 L 157.898438 162.675781 L 157.921875 163.003906 L 157.933594 163.347656 Z M 156.894531 163.359375 L 156.890625 163.09375 L 156.882812 162.847656 L 156.867188 162.609375 L 156.847656 162.390625 L 156.820312 162.183594 L 156.789062 161.992188 L 156.75 161.8125 L 156.703125 161.652344 L 156.652344 161.5 L 156.597656 161.367188 L 156.53125 161.246094 L 156.460938 161.132812 L 156.386719 161.039062 L 156.300781 160.953125 L 156.207031 160.882812 L 156.109375 160.824219 L 156.003906 160.78125 L 155.890625 160.746094 L 155.769531 160.730469 L 155.640625 160.722656 L 155.515625 160.730469 L 155.398438 160.746094 L 155.289062 160.777344 L 155.183594 160.824219 L 155.085938 160.878906 L 154.996094 160.949219 L 154.914062 161.03125 L 154.835938 161.128906 L 154.765625 161.234375 L 154.703125 161.355469 L 154.648438 161.488281 L 154.597656 161.632812 L 154.550781 161.789062 L 154.511719 161.960938 L 154.476562 162.144531 L 154.449219 162.339844 L 154.425781 162.546875 L 154.410156 162.769531 L 154.398438 163.003906 L 154.394531 163.253906 L 154.394531 165.273438 L 154.40625 165.523438 L 154.421875 165.757812 L 154.441406 165.984375 L 154.472656 166.191406 L 154.503906 166.386719 L 154.546875 166.570312 L 154.59375 166.738281 L 154.644531 166.894531 L 154.703125 167.039062 L 154.769531 167.167969 L 154.839844 167.28125 L 154.917969 167.382812 L 155.003906 167.46875 L 155.097656 167.542969 L 155.195312 167.605469 L 155.300781 167.652344 L 155.410156 167.683594 L 155.527344 167.707031 L 155.652344 167.710938 L 155.777344 167.707031 L 155.894531 167.6875 L 156.003906 167.65625 L 156.105469 167.609375 L 156.203125 167.554688 L 156.292969 167.484375 L 156.375 167.398438 L 156.453125 167.304688 L 156.523438 167.195312 L 156.585938 167.074219 L 156.640625 166.9375 L 156.691406 166.792969 L 156.738281 166.628906 L 156.777344 166.453125 L 156.8125 166.265625 L 156.839844 166.066406 L 156.863281 165.847656 L 156.878906 165.621094 L 156.890625 165.378906 L 156.894531 165.121094 Z M 156.894531 163.359375 "/>
<path style=" stroke:none;fill-rule:nonzero;fill:rgb(3.529412%,3.529412%,3.529412%);fill-opacity:1;" d="M 230.28125 164.839844 L 230.277344 165.210938 L 230.261719 165.558594 L 230.234375 165.886719 L 230.195312 166.199219 L 230.144531 166.492188 L 230.082031 166.765625 L 230.011719 167.019531 L 229.929688 167.253906 L 229.835938 167.46875 L 229.730469 167.664062 L 229.613281 167.84375 L 229.484375 168 L 229.34375 168.140625 L 229.191406 168.261719 L 229.023438 168.363281 L 228.84375 168.449219 L 228.652344 168.511719 L 228.449219 168.558594 L 228.230469 168.585938 L 228.003906 168.597656 L 227.78125 168.589844 L 227.570312 168.5625 L 227.371094 168.515625 L 227.183594 168.453125 L 227.003906 168.375 L 226.839844 168.273438 L 226.6875 168.15625 L 226.546875 168.023438 L 226.417969 167.871094 L 226.296875 167.699219 L 226.191406 167.511719 L 226.09375 167.304688 L 226.007812 167.082031 L 225.933594 166.839844 L 225.871094 166.578125 L 225.816406 166.300781 L 225.773438 166.003906 L 225.742188 165.6875 L 225.722656 165.355469 L 225.710938 165.003906 L 225.710938 163.539062 L 225.71875 163.175781 L 225.734375 162.832031 L 225.761719 162.503906 L 225.800781 162.195312 L 225.851562 161.910156 L 225.910156 161.640625 L 225.980469 161.390625 L 226.0625 161.15625 L 226.15625 160.945312 L 226.261719 160.75 L 226.378906 160.578125 L 226.511719 160.421875 L 226.652344 160.28125 L 226.804688 160.164062 L 226.972656 160.0625 L 227.152344 159.980469 L 227.34375 159.914062 L 227.546875 159.867188 L 227.761719 159.839844 L 227.992188 159.832031 L 228.214844 159.839844 L 228.429688 159.867188 L 228.628906 159.910156 L 228.816406 159.972656 L 228.996094 160.050781 L 229.160156 160.144531 L 229.3125 160.257812 L 229.453125 160.390625 L 229.582031 160.539062 L 229.695312 160.703125 L 229.800781 160.886719 L 229.898438 161.089844 L 229.984375 161.308594 L 230.058594 161.546875 L 230.121094 161.800781 L 230.175781 162.074219 L 230.21875 162.367188 L 230.25 162.675781 L 230.269531 163.003906 L 230.28125 163.347656 Z M 229.246094 163.359375 L 229.242188 163.09375 L 229.234375 162.847656 L 229.21875 162.609375 L 229.199219 162.390625 L 229.171875 162.183594 L 229.136719 161.992188 L 229.097656 161.8125 L 229.054688 161.652344 L 229.003906 161.5 L 228.945312 161.367188 L 228.882812 161.246094 L 228.8125 161.132812 L 228.734375 161.039062 L 228.648438 160.953125 L 228.558594 160.882812 L 228.460938 160.824219 L 228.351562 160.78125 L 228.238281 160.746094 L 228.117188 160.730469 L 227.992188 160.722656 L 227.867188 160.730469 L 227.75 160.746094 L 227.636719 160.777344 L 227.535156 160.824219 L 227.4375 160.878906 L 227.347656 160.949219 L 227.261719 161.03125 L 227.1875 161.128906 L 227.117188 161.234375 L 227.054688 161.355469 L 226.996094 161.488281 L 226.945312 161.632812 L 226.898438 161.789062 L 226.859375 161.960938 L 226.828125 162.144531 L 226.796875 162.339844 L 226.777344 162.546875 L 226.757812 162.769531 L 226.75 163.003906 L 226.742188 163.253906 L 226.742188 165.011719 L 226.746094 165.273438 L 226.753906 165.523438 L 226.769531 165.757812 L 226.792969 165.984375 L 226.820312 166.191406 L 226.855469 166.386719 L 226.894531 166.570312 L 226.941406 166.738281 L 226.996094 166.894531 L 227.054688 167.039062 L 227.117188 167.167969 L 227.191406 167.28125 L 227.269531 167.382812 L 227.355469 167.46875 L 227.445312 167.542969 L 227.542969 167.605469 L 227.648438 167.652344 L 227.761719 167.683594 L 227.878906 167.707031 L 228.003906 167.710938 L 228.125 167.707031 L 228.242188 167.6875 L 228.351562 167.65625 L 228.457031 167.609375 L 228.550781 167.554688 L 228.640625 167.484375 L 228.726562 167.398438 L 228.800781 167.304688 L 228.871094 167.195312 L 228.933594 167.074219 L 228.992188 166.9375 L 229.042969 166.792969 L 229.089844 166.628906 L 229.128906 166.453125 L 229.160156 166.265625 L 229.191406 166.066406 L 229.210938 165.847656 L 229.230469 165.621094 L 229.238281 165.378906 L 229.246094 165.121094 Z M 229.246094 163.359375 "/>
<path style=" stroke:none;fill-rule:nonzero;fill:rgb(3.529412%,3.529412%,3.529412%);fill-opacity:1;" d="M 302.648438 168.480469 L 301.605469 168.480469 L 301.605469 161.253906 L 299.8125 162.058594 L 299.8125 161.074219 L 302.484375 159.90625 L 302.648438 159.90625 Z M 302.648438 168.480469 "/>
<path style=" stroke:none;fill-rule:nonzero;fill:rgb(3.529412%,3.529412%,3.529412%);fill-opacity:1;" d="M 310.042969 164.839844 L 310.039062 165.210938 L 310.023438 165.558594 L 309.996094 165.886719 L 309.957031 166.199219 L 309.90625 166.492188 L 309.847656 166.765625 L 309.773438 167.019531 L 309.691406 167.253906 L 309.597656 167.46875 L 309.492188 167.664062 L 309.375 167.84375 L 309.246094 168 L 309.105469 168.140625 L 308.953125 168.261719 L 308.785156 168.363281 L 308.605469 168.449219 L 308.414062 168.511719 L 308.210938 168.558594 L 307.992188 168.585938 L 307.765625 168.597656 L 307.542969 168.589844 L 307.332031 168.5625 L 307.132812 168.515625 L 306.945312 168.453125 L 306.765625 168.375 L 306.601562 168.273438 L 306.449219 168.15625 L 306.308594 168.023438 L 306.179688 167.871094 L 306.058594 167.699219 L 305.953125 167.511719 L 305.855469 167.304688 L 305.769531 167.082031 L 305.695312 166.839844 L 305.632812 166.578125 L 305.578125 166.300781 L 305.535156 166.003906 L 305.503906 165.6875 L 305.484375 165.355469 L 305.472656 165.003906 L 305.472656 163.539062 L 305.480469 163.175781 L 305.496094 162.832031 L 305.523438 162.503906 L 305.5625 162.195312 L 305.613281 161.910156 L 305.671875 161.640625 L 305.742188 161.390625 L 305.828125 161.15625 L 305.921875 160.945312 L 306.023438 160.75 L 306.140625 160.578125 L 306.273438 160.421875 L 306.414062 160.28125 L 306.570312 160.164062 L 306.734375 160.0625 L 306.914062 159.980469 L 307.105469 159.914062 L 307.308594 159.867188 L 307.523438 159.839844 L 307.753906 159.832031 L 307.976562 159.839844 L 308.191406 159.867188 L 308.390625 159.910156 L 308.578125 159.972656 L 308.757812 160.050781 L 308.921875 160.144531 L 309.074219 160.257812 L 309.214844 160.390625 L 309.34375 160.539062 L 309.457031 160.703125 L 309.5625 160.886719 L 309.660156 161.089844 L 309.746094 161.308594 L 309.820312 161.546875 L 309.882812 161.800781 L 309.9375 162.074219 L 309.980469 162.367188 L 310.011719 162.675781 L 310.03125 163.003906 L 310.042969 163.347656 Z M 309.007812 163.359375 L 309.003906 163.09375 L 308.996094 162.847656 L 308.980469 162.609375 L 308.960938 162.390625 L 308.933594 162.183594 L 308.898438 161.992188 L 308.859375 161.8125 L 308.816406 161.652344 L 308.765625 161.5 L 308.707031 161.367188 L 308.644531 161.246094 L 308.574219 161.132812 L 308.496094 161.039062 L 308.410156 160.953125 L 308.320312 160.882812 L 308.222656 160.824219 L 308.113281 160.78125 L 308 160.746094 L 307.878906 160.730469 L 307.753906 160.722656 L 307.628906 160.730469 L 307.511719 160.746094 L 307.402344 160.777344 L 307.296875 160.824219 L 307.199219 160.878906 L 307.109375 160.949219 L 307.027344 161.03125 L 306.949219 161.128906 L 306.878906 161.234375 L 306.816406 161.355469 L 306.757812 161.488281 L 306.707031 161.632812 L 306.664062 161.789062 L 306.621094 161.960938 L 306.589844 162.144531 L 306.558594 162.339844 L 306.539062 162.546875 L 306.519531 162.769531 L 306.511719 163.003906 L 306.503906 163.253906 L 306.503906 165.011719 L 306.507812 165.273438 L 306.515625 165.523438 L 306.53125 165.757812 L 306.554688 165.984375 L 306.582031 166.191406 L 306.617188 166.386719 L 306.65625 166.570312 L 306.703125 166.738281 L 306.757812 166.894531 L 306.816406 167.039062 L 306.882812 167.167969 L 306.953125 167.28125 L 307.03125 167.382812 L 307.117188 167.46875 L 307.207031 167.542969 L 307.304688 167.605469 L 307.410156 167.652344 L 307.523438 167.683594 L 307.640625 167.707031 L 307.765625 167.710938 L 307.886719 167.707031 L 308.003906 167.6875 L 308.113281 167.65625 L 308.21875 167.609375 L 308.3125 167.554688 L 308.402344 167.484375 L 308.488281 167.398438 L 308.5625 167.304688 L 308.632812 167.195312 L 308.695312 167.074219 L 308.753906 166.9375 L 308.804688 166.792969 L 308.851562 166.628906 L 308.890625 166.453125 L 308.921875 166.265625 L 308.953125 166.066406 L 308.972656 165.847656 L 308.992188 165.621094 L 309 165.378906 L 309.007812 165.121094 Z M 309.007812 163.359375 "/>
<path style=" stroke:none;fill-rule:nonzero;fill:rgb(3.529412%,3.529412%,3.529412%);fill-opacity:1;" d="M 381.132812 168.480469 L 376.363281 168.480469 L 376.363281 167.699219 L 378.792969 164.476562 L 378.898438 164.332031 L 379 164.191406 L 379.09375 164.054688 L 379.179688 163.925781 L 379.257812 163.800781 L 379.332031 163.683594 L 379.398438 163.566406 L 379.457031 163.460938 L 379.507812 163.355469 L 379.554688 163.257812 L 379.597656 163.164062 L 379.632812 163.066406 L 379.664062 162.964844 L 379.695312 162.867188 L 379.71875 162.765625 L 379.738281 162.664062 L 379.753906 162.5625 L 379.769531 162.351562 L 379.773438 162.246094 L 379.769531 162.113281 L 379.757812 161.984375 L 379.742188 161.859375 L 379.722656 161.742188 L 379.691406 161.628906 L 379.65625 161.523438 L 379.617188 161.421875 L 379.570312 161.324219 L 379.515625 161.230469 L 379.457031 161.144531 L 379.390625 161.0625 L 379.320312 160.992188 L 379.246094 160.929688 L 379.171875 160.875 L 379.089844 160.828125 L 379.003906 160.789062 L 378.914062 160.761719 L 378.820312 160.738281 L 378.722656 160.726562 L 378.625 160.722656 L 378.496094 160.726562 L 378.375 160.742188 L 378.257812 160.761719 L 378.148438 160.792969 L 378.046875 160.835938 L 377.949219 160.882812 L 377.855469 160.941406 L 377.769531 161.011719 L 377.691406 161.085938 L 377.617188 161.171875 L 377.546875 161.265625 L 377.488281 161.367188 L 377.4375 161.476562 L 377.390625 161.59375 L 377.351562 161.71875 L 377.320312 161.851562 L 377.296875 161.992188 L 377.277344 162.140625 L 377.265625 162.296875 L 377.265625 162.460938 L 376.226562 162.460938 L 376.234375 162.230469 L 376.253906 162.007812 L 376.285156 161.796875 L 376.332031 161.59375 L 376.386719 161.398438 L 376.460938 161.210938 L 376.542969 161.035156 L 376.640625 160.867188 L 376.75 160.707031 L 376.871094 160.558594 L 377.003906 160.421875 L 377.148438 160.296875 L 377.300781 160.1875 L 377.460938 160.09375 L 377.632812 160.011719 L 377.8125 159.949219 L 378 159.898438 L 378.199219 159.859375 L 378.40625 159.839844 L 378.625 159.832031 L 378.824219 159.835938 L 379.015625 159.855469 L 379.195312 159.886719 L 379.371094 159.933594 L 379.535156 159.988281 L 379.691406 160.058594 L 379.839844 160.140625 L 379.976562 160.234375 L 380.105469 160.339844 L 380.230469 160.457031 L 380.339844 160.585938 L 380.441406 160.722656 L 380.527344 160.867188 L 380.605469 161.023438 L 380.667969 161.183594 L 380.722656 161.355469 L 380.761719 161.53125 L 380.792969 161.71875 L 380.808594 161.914062 L 380.816406 162.117188 L 380.800781 162.375 L 380.761719 162.640625 L 380.695312 162.917969 L 380.605469 163.203125 L 380.484375 163.5 L 380.339844 163.800781 L 380.167969 164.117188 L 379.972656 164.4375 L 379.746094 164.769531 L 379.496094 165.109375 L 377.597656 167.59375 L 381.132812 167.59375 Z M 381.132812 168.480469 "/>
<path style=" stroke:none;fill-rule:nonzero;fill:rgb(3.529412%,3.529412%,3.529412%);fill-opacity:1;" d="M 386.84375 164.839844 L 386.839844 165.210938 L 386.820312 165.558594 L 386.792969 165.886719 L 386.757812 166.199219 L 386.707031 166.492188 L 386.644531 166.765625 L 386.574219 167.019531 L 386.492188 167.253906 L 386.398438 167.46875 L 386.292969 167.664062 L 386.175781 167.84375 L 386.046875 168 L 385.90625 168.140625 L 385.753906 168.261719 L 385.585938 168.363281 L 385.40625 168.449219 L 385.214844 168.511719 L 385.011719 168.558594 L 384.792969 168.585938 L 384.566406 168.597656 L 384.34375 168.589844 L 384.132812 168.5625 L 383.929688 168.515625 L 383.742188 168.453125 L 383.566406 168.375 L 383.402344 168.273438 L 383.25 168.15625 L 383.109375 168.023438 L 382.976562 167.871094 L 382.859375 167.699219 L 382.753906 167.511719 L 382.65625 167.304688 L 382.570312 167.082031 L 382.496094 166.839844 L 382.433594 166.578125 L 382.378906 166.300781 L 382.335938 166.003906 L 382.304688 165.6875 L 382.285156 165.355469 L 382.273438 165.003906 L 382.273438 163.539062 L 382.28125 163.175781 L 382.296875 162.832031 L 382.324219 162.503906 L 382.363281 162.195312 L 382.410156 161.910156 L 382.472656 161.640625 L 382.542969 161.390625 L 382.625 161.15625 L 382.71875 160.945312 L 382.824219 160.75 L 382.941406 160.578125 L 383.070312 160.421875 L 383.214844 160.28125 L 383.367188 160.164062 L 383.535156 160.0625 L 383.714844 159.980469 L 383.90625 159.914062 L 384.109375 159.867188 L 384.324219 159.839844 L 384.554688 159.832031 L 384.777344 159.839844 L 384.992188 159.867188 L 385.191406 159.910156 L 385.378906 159.972656 L 385.554688 160.050781 L 385.722656 160.144531 L 385.875 160.257812 L 386.015625 160.390625 L 386.140625 160.539062 L 386.257812 160.703125 L 386.363281 160.886719 L 386.460938 161.089844 L 386.542969 161.308594 L 386.617188 161.546875 L 386.683594 161.800781 L 386.738281 162.074219 L 386.777344 162.367188 L 386.8125 162.675781 L 386.832031 163.003906 L 386.84375 163.347656 Z M 385.808594 163.359375 L 385.804688 163.09375 L 385.796875 162.847656 L 385.78125 162.609375 L 385.757812 162.390625 L 385.730469 162.183594 L 385.699219 161.992188 L 385.660156 161.8125 L 385.617188 161.652344 L 385.566406 161.5 L 385.507812 161.367188 L 385.445312 161.246094 L 385.375 161.132812 L 385.296875 161.039062 L 385.210938 160.953125 L 385.121094 160.882812 L 385.019531 160.824219 L 384.914062 160.78125 L 384.800781 160.746094 L 384.679688 160.730469 L 384.554688 160.722656 L 384.429688 160.730469 L 384.3125 160.746094 L 384.199219 160.777344 L 384.097656 160.824219 L 384 160.878906 L 383.910156 160.949219 L 383.824219 161.03125 L 383.75 161.128906 L 383.679688 161.234375 L 383.617188 161.355469 L 383.558594 161.488281 L 383.507812 161.632812 L 383.460938 161.789062 L 383.421875 161.960938 L 383.386719 162.144531 L 383.359375 162.339844 L 383.339844 162.546875 L 383.320312 162.769531 L 383.308594 163.003906 L 383.304688 163.253906 L 383.304688 165.011719 L 383.308594 165.273438 L 383.316406 165.523438 L 383.332031 165.757812 L 383.355469 165.984375 L 383.382812 166.191406 L 383.417969 166.386719 L 383.457031 166.570312 L 383.503906 166.738281 L 383.554688 166.894531 L 383.617188 167.039062 L 383.679688 167.167969 L 383.753906 167.28125 L 383.832031 167.382812 L 383.917969 167.46875 L 384.007812 167.542969 L 384.105469 167.605469 L 384.210938 167.652344 L 384.324219 167.683594 L 384.441406 167.707031 L 384.566406 167.710938 L 384.6875 167.707031 L 384.804688 167.6875 L 384.914062 167.65625 L 385.019531 167.609375 L 385.113281 167.554688 L 385.203125 167.484375 L 385.289062 167.398438 L 385.363281 167.304688 L 385.433594 167.195312 L 385.496094 167.074219 L 385.554688 166.9375 L 385.605469 166.792969 L 385.648438 166.628906 L 385.691406 166.453125 L 385.722656 166.265625 L 385.75 166.066406 L 385.773438 165.847656 L 385.789062 165.621094 L 385.800781 165.378906 L 385.808594 165.121094 Z M 385.808594 163.359375 "/>
<path style=" stroke:none;fill-rule:nonzero;fill:rgb(3.529412%,3.529412%,3.529412%);fill-opacity:1;" d="M 454.484375 163.6875 L 455.148438 163.6875 L 455.273438 163.683594 L 455.390625 163.671875 L 455.503906 163.652344 L 455.613281 163.625 L 455.714844 163.589844 L 455.808594 163.546875 L 455.898438 163.496094 L 455.984375 163.4375 L 456.058594 163.367188 L 456.132812 163.292969 L 456.199219 163.214844 L 456.257812 163.125 L 456.308594 163.03125 L 456.355469 162.933594 L 456.390625 162.832031 L 456.421875 162.71875 L 456.445312 162.605469 L 456.464844 162.484375 L 456.476562 162.355469 L 456.476562 162.222656 L 456.464844 161.9375 L 456.433594 161.683594 L 456.375 161.457031 L 456.292969 161.261719 L 456.1875 161.097656 L 456.058594 160.960938 L 455.910156 160.855469 L 455.734375 160.78125 L 455.539062 160.738281 L 455.316406 160.722656 L 455.210938 160.726562 L 455.105469 160.738281 L 455.003906 160.757812 L 454.910156 160.785156 L 454.820312 160.824219 L 454.738281 160.867188 L 454.65625 160.921875 L 454.582031 160.980469 L 454.511719 161.050781 L 454.445312 161.125 L 454.386719 161.210938 L 454.332031 161.296875 L 454.285156 161.390625 L 454.242188 161.492188 L 454.207031 161.59375 L 454.179688 161.703125 L 454.15625 161.816406 L 454.140625 161.933594 L 454.132812 162.058594 L 454.128906 162.1875 L 453.097656 162.1875 L 453.101562 161.984375 L 453.121094 161.792969 L 453.152344 161.605469 L 453.195312 161.425781 L 453.253906 161.253906 L 453.320312 161.085938 L 453.402344 160.929688 L 453.496094 160.777344 L 453.601562 160.636719 L 453.71875 160.5 L 453.847656 160.371094 L 453.984375 160.257812 L 454.125 160.160156 L 454.273438 160.070312 L 454.433594 160 L 454.59375 159.9375 L 454.765625 159.890625 L 454.941406 159.859375 L 455.125 159.839844 L 455.316406 159.832031 L 455.515625 159.839844 L 455.703125 159.855469 L 455.886719 159.886719 L 456.058594 159.933594 L 456.222656 159.988281 L 456.378906 160.058594 L 456.523438 160.140625 L 456.664062 160.238281 L 456.796875 160.34375 L 456.917969 160.464844 L 457.03125 160.59375 L 457.128906 160.734375 L 457.21875 160.886719 L 457.296875 161.050781 L 457.363281 161.222656 L 457.414062 161.40625 L 457.457031 161.601562 L 457.484375 161.804688 L 457.503906 162.019531 L 457.507812 162.246094 L 457.507812 162.363281 L 457.496094 162.480469 L 457.480469 162.59375 L 457.460938 162.707031 L 457.433594 162.820312 L 457.398438 162.929688 L 457.355469 163.035156 L 457.3125 163.144531 L 457.257812 163.25 L 457.199219 163.351562 L 457.136719 163.453125 L 457.070312 163.546875 L 457 163.632812 L 456.925781 163.71875 L 456.847656 163.796875 L 456.765625 163.867188 L 456.679688 163.933594 L 456.589844 163.996094 L 456.5 164.050781 L 456.402344 164.101562 L 456.632812 164.203125 L 456.835938 164.324219 L 457.015625 164.46875 L 457.175781 164.636719 L 457.308594 164.824219 L 457.414062 165.035156 L 457.5 165.269531 L 457.5625 165.523438 L 457.597656 165.800781 L 457.609375 166.101562 L 457.601562 166.324219 L 457.582031 166.539062 L 457.550781 166.746094 L 457.507812 166.941406 L 457.449219 167.128906 L 457.378906 167.304688 L 457.296875 167.472656 L 457.199219 167.632812 L 457.089844 167.78125 L 456.96875 167.921875 L 456.839844 168.050781 L 456.703125 168.164062 L 456.554688 168.265625 L 456.402344 168.355469 L 456.238281 168.429688 L 456.070312 168.488281 L 455.890625 168.535156 L 455.707031 168.570312 L 455.511719 168.589844 L 455.3125 168.597656 L 455.113281 168.589844 L 454.921875 168.570312 L 454.738281 168.539062 L 454.5625 168.496094 L 454.394531 168.4375 L 454.234375 168.367188 L 454.082031 168.285156 L 453.9375 168.1875 L 453.800781 168.078125 L 453.671875 167.957031 L 453.554688 167.824219 L 453.449219 167.683594 L 453.355469 167.53125 L 453.273438 167.371094 L 453.207031 167.203125 L 453.148438 167.027344 L 453.105469 166.839844 L 453.074219 166.644531 L 453.054688 166.441406 L 453.050781 166.230469 L 454.085938 166.230469 L 454.089844 166.363281 L 454.101562 166.492188 L 454.117188 166.613281 L 454.140625 166.730469 L 454.167969 166.839844 L 454.207031 166.945312 L 454.25 167.046875 L 454.296875 167.140625 L 454.351562 167.230469 L 454.414062 167.3125 L 454.484375 167.390625 L 454.554688 167.457031 L 454.632812 167.515625 L 454.714844 167.570312 L 454.804688 167.613281 L 454.894531 167.648438 L 454.992188 167.675781 L 455.09375 167.695312 L 455.199219 167.707031 L 455.3125 167.710938 L 455.425781 167.707031 L 455.535156 167.695312 L 455.636719 167.675781 L 455.738281 167.648438 L 455.832031 167.613281 L 455.921875 167.570312 L 456.007812 167.519531 L 456.085938 167.460938 L 456.160156 167.394531 L 456.230469 167.320312 L 456.296875 167.238281 L 456.355469 167.144531 L 456.410156 167.046875 L 456.453125 166.941406 L 456.492188 166.824219 L 456.523438 166.699219 L 456.546875 166.570312 L 456.5625 166.429688 L 456.574219 166.28125 L 456.578125 166.125 L 456.5625 165.828125 L 456.519531 165.566406 L 456.445312 165.332031 L 456.34375 165.128906 L 456.210938 164.960938 L 456.046875 164.820312 L 455.855469 164.710938 L 455.636719 164.632812 L 455.386719 164.585938 L 455.105469 164.570312 L 454.484375 164.570312 Z M 454.484375 163.6875 "/>
<path style=" stroke:none;fill-rule:nonzero;fill:rgb(3.529412%,3.529412%,3.529412%);fill-opacity:1;" d="M 463.644531 164.839844 L 463.636719 165.210938 L 463.621094 165.558594 L 463.59375 165.886719 L 463.554688 166.199219 L 463.507812 166.492188 L 463.445312 166.765625 L 463.375 167.019531 L 463.292969 167.253906 L 463.199219 167.46875 L 463.09375 167.664062 L 462.976562 167.84375 L 462.847656 168 L 462.707031 168.140625 L 462.550781 168.261719 L 462.386719 168.363281 L 462.207031 168.449219 L 462.015625 168.511719 L 461.8125 168.558594 L 461.59375 168.585938 L 461.363281 168.597656 L 461.140625 168.589844 L 460.929688 168.5625 L 460.730469 168.515625 L 460.542969 168.453125 L 460.367188 168.375 L 460.203125 168.273438 L 460.050781 168.15625 L 459.90625 168.023438 L 459.777344 167.871094 L 459.660156 167.699219 L 459.550781 167.511719 L 459.457031 167.304688 L 459.371094 167.082031 L 459.296875 166.839844 L 459.230469 166.578125 L 459.179688 166.300781 L 459.136719 166.003906 L 459.105469 165.6875 L 459.082031 165.355469 L 459.074219 165.003906 L 459.074219 163.539062 L 459.078125 163.175781 L 459.097656 162.832031 L 459.125 162.503906 L 459.160156 162.195312 L 459.210938 161.910156 L 459.273438 161.640625 L 459.34375 161.390625 L 459.425781 161.15625 L 459.519531 160.945312 L 459.625 160.75 L 459.742188 160.578125 L 459.871094 160.421875 L 460.015625 160.28125 L 460.167969 160.164062 L 460.335938 160.0625 L 460.515625 159.980469 L 460.707031 159.914062 L 460.910156 159.867188 L 461.125 159.839844 L 461.351562 159.832031 L 461.578125 159.839844 L 461.789062 159.867188 L 461.992188 159.910156 L 462.179688 159.972656 L 462.355469 160.050781 L 462.519531 160.144531 L 462.671875 160.257812 L 462.8125 160.390625 L 462.941406 160.539062 L 463.058594 160.703125 L 463.164062 160.886719 L 463.261719 161.089844 L 463.34375 161.308594 L 463.417969 161.546875 L 463.484375 161.800781 L 463.535156 162.074219 L 463.578125 162.367188 L 463.613281 162.675781 L 463.632812 163.003906 L 463.644531 163.347656 Z M 462.605469 163.359375 L 462.605469 163.09375 L 462.59375 162.847656 L 462.582031 162.609375 L 462.558594 162.390625 L 462.53125 162.183594 L 462.5 161.992188 L 462.460938 161.8125 L 462.414062 161.652344 L 462.363281 161.5 L 462.308594 161.367188 L 462.246094 161.246094 L 462.175781 161.132812 L 462.097656 161.039062 L 462.011719 160.953125 L 461.921875 160.882812 L 461.820312 160.824219 L 461.714844 160.78125 L 461.601562 160.746094 L 461.480469 160.730469 L 461.351562 160.722656 L 461.230469 160.730469 L 461.109375 160.746094 L 461 160.777344 L 460.898438 160.824219 L 460.800781 160.878906 L 460.710938 160.949219 L 460.625 161.03125 L 460.546875 161.128906 L 460.480469 161.234375 L 460.414062 161.355469 L 460.359375 161.488281 L 460.308594 161.632812 L 460.261719 161.789062 L 460.222656 161.960938 L 460.1875 162.144531 L 460.160156 162.339844 L 460.136719 162.546875 L 460.121094 162.769531 L 460.109375 163.003906 L 460.105469 163.253906 L 460.105469 165.011719 L 460.109375 165.273438 L 460.117188 165.523438 L 460.132812 165.757812 L 460.15625 165.984375 L 460.183594 166.191406 L 460.21875 166.386719 L 460.257812 166.570312 L 460.304688 166.738281 L 460.355469 166.894531 L 460.414062 167.039062 L 460.480469 167.167969 L 460.554688 167.28125 L 460.632812 167.382812 L 460.714844 167.46875 L 460.808594 167.542969 L 460.90625 167.605469 L 461.011719 167.652344 L 461.121094 167.683594 L 461.242188 167.707031 L 461.363281 167.710938 L 461.488281 167.707031 L 461.605469 167.6875 L 461.714844 167.65625 L 461.816406 167.609375 L 461.914062 167.554688 L 462.003906 167.484375 L 462.085938 167.398438 L 462.164062 167.304688 L 462.234375 167.195312 L 462.296875 167.074219 L 462.351562 166.9375 L 462.40625 166.792969 L 462.449219 166.628906 L 462.488281 166.453125 L 462.523438 166.265625 L 462.550781 166.066406 L 462.574219 165.847656 L 462.589844 165.621094 L 462.601562 165.378906 L 462.605469 165.121094 Z M 462.605469 163.359375 "/>
<path style="fill:none;stroke-width:0.75;stroke-linecap:round;stroke-linejoin:round;stroke:rgb(3.529412%,3.529412%,3.529412%);stroke-opacity:1;stroke-miterlimit:10;" d="M 59.039062 139.464844 L 59.039062 66.09375 "/>
<path style="fill:none;stroke-width:0.75;stroke-linecap:round;stroke-linejoin:round;stroke:rgb(3.529412%,3.529412%,3.529412%);stroke-opacity:1;stroke-miterlimit:10;" d="M 59.039062 139.464844 L 51.839844 139.464844 "/>
<path style="fill:none;stroke-width:0.75;stroke-linecap:round;stroke-linejoin:round;stroke:rgb(3.529412%,3.529412%,3.529412%);stroke-opacity:1;stroke-miterlimit:10;" d="M 59.039062 124.792969 L 51.839844 124.792969 "/>
<path style="fill:none;stroke-width:0.75;stroke-linecap:round;stroke-linejoin:round;stroke:rgb(3.529412%,3.529412%,3.529412%);stroke-opacity:1;stroke-miterlimit:10;" d="M 59.039062 110.117188 L 51.839844 110.117188 "/>
<path style="fill:none;stroke-width:0.75;stroke-linecap:round;stroke-linejoin:round;stroke:rgb(3.529412%,3.529412%,3.529412%);stroke-opacity:1;stroke-miterlimit:10;" d="M 59.039062 95.445312 L 51.839844 95.445312 "/>
<path style="fill:none;stroke-width:0.75;stroke-linecap:round;stroke-linejoin:round;stroke:rgb(3.529412%,3.529412%,3.529412%);stroke-opacity:1;stroke-miterlimit:10;" d="M 59.039062 80.769531 L 51.839844 80.769531 "/>
<path style="fill:none;stroke-width:0.75;stroke-linecap:round;stroke-linejoin:round;stroke:rgb(3.529412%,3.529412%,3.529412%);stroke-opacity:1;stroke-miterlimit:10;" d="M 59.039062 66.09375 L 51.839844 66.09375 "/>
<path style=" stroke:none;fill-rule:nonzero;fill:rgb(3.529412%,3.529412%,3.529412%);fill-opacity:1;" d="M 38.121094 137.183594 L 38.488281 137.191406 L 38.839844 137.207031 L 39.167969 137.234375 L 39.480469 137.273438 L 39.769531 137.320312 L 40.042969 137.382812 L 40.296875 137.453125 L 40.53125 137.535156 L 40.75 137.628906 L 40.945312 137.734375 L 41.121094 137.851562 L 41.28125 137.980469 L 41.421875 138.121094 L 41.542969 138.277344 L 41.644531 138.441406 L 41.726562 138.621094 L 41.792969 138.8125 L 41.839844 139.019531 L 41.867188 139.234375 L 41.878906 139.464844 L 41.867188 139.6875 L 41.839844 139.898438 L 41.796875 140.097656 L 41.734375 140.285156 L 41.652344 140.460938 L 41.554688 140.625 L 41.4375 140.777344 L 41.304688 140.921875 L 41.152344 141.050781 L 40.980469 141.167969 L 40.792969 141.277344 L 40.585938 141.371094 L 40.363281 141.457031 L 40.117188 141.53125 L 39.859375 141.597656 L 39.578125 141.648438 L 39.285156 141.691406 L 38.96875 141.722656 L 38.636719 141.746094 L 38.285156 141.753906 L 36.820312 141.753906 L 36.457031 141.75 L 36.109375 141.734375 L 35.785156 141.707031 L 35.476562 141.667969 L 35.1875 141.617188 L 34.917969 141.554688 L 34.667969 141.484375 L 34.4375 141.402344 L 34.226562 141.308594 L 34.03125 141.203125 L 33.855469 141.085938 L 33.699219 140.957031 L 33.5625 140.816406 L 33.441406 140.660156 L 33.339844 140.492188 L 33.257812 140.316406 L 33.195312 140.125 L 33.148438 139.917969 L 33.121094 139.703125 L 33.113281 139.476562 L 33.121094 139.25 L 33.144531 139.039062 L 33.191406 138.835938 L 33.25 138.648438 L 33.328125 138.472656 L 33.425781 138.308594 L 33.539062 138.15625 L 33.671875 138.015625 L 33.820312 137.886719 L 33.984375 137.769531 L 34.167969 137.664062 L 34.371094 137.570312 L 34.589844 137.484375 L 34.828125 137.410156 L 35.082031 137.34375 L 35.355469 137.292969 L 35.644531 137.25 L 35.957031 137.21875 L 36.28125 137.195312 L 36.628906 137.183594 Z M 36.640625 138.222656 L 36.375 138.222656 L 36.125 138.234375 L 35.890625 138.25 L 35.671875 138.269531 L 35.464844 138.296875 L 35.273438 138.328125 L 35.09375 138.367188 L 34.929688 138.414062 L 34.78125 138.464844 L 34.648438 138.519531 L 34.523438 138.582031 L 34.414062 138.652344 L 34.316406 138.730469 L 34.234375 138.816406 L 34.164062 138.910156 L 34.105469 139.007812 L 34.058594 139.113281 L 34.027344 139.226562 L 34.007812 139.347656 L 34.003906 139.476562 L 34.007812 139.601562 L 34.027344 139.71875 L 34.058594 139.828125 L 34.101562 139.933594 L 34.160156 140.027344 L 34.230469 140.121094 L 34.3125 140.203125 L 34.40625 140.28125 L 34.515625 140.351562 L 34.636719 140.414062 L 34.765625 140.46875 L 34.910156 140.519531 L 35.070312 140.566406 L 35.238281 140.605469 L 35.421875 140.640625 L 35.621094 140.667969 L 35.828125 140.691406 L 36.050781 140.707031 L 36.285156 140.71875 L 36.535156 140.722656 L 38.292969 140.722656 L 38.554688 140.71875 L 38.804688 140.710938 L 39.039062 140.695312 L 39.261719 140.671875 L 39.472656 140.644531 L 39.667969 140.613281 L 39.851562 140.570312 L 40.019531 140.523438 L 40.175781 140.472656 L 40.320312 140.414062 L 40.445312 140.347656 L 40.5625 140.277344 L 40.664062 140.195312 L 40.75 140.113281 L 40.824219 140.019531 L 40.882812 139.921875 L 40.933594 139.816406 L 40.964844 139.707031 L 40.984375 139.589844 L 40.992188 139.464844 L 40.984375 139.339844 L 40.96875 139.222656 L 40.933594 139.113281 L 40.890625 139.011719 L 40.832031 138.914062 L 40.761719 138.824219 L 40.679688 138.742188 L 40.582031 138.664062 L 40.476562 138.59375 L 40.355469 138.53125 L 40.21875 138.476562 L 40.070312 138.425781 L 39.910156 138.378906 L 39.734375 138.339844 L 39.546875 138.304688 L 39.34375 138.277344 L 39.128906 138.253906 L 38.902344 138.238281 L 38.660156 138.226562 L 38.402344 138.222656 Z M 36.640625 138.222656 "/>
<path style=" stroke:none;fill-rule:nonzero;fill:rgb(3.529412%,3.529412%,3.529412%);fill-opacity:1;" d="M 38.894531 117.355469 L 38.894531 116.40625 L 39.78125 116.40625 L 39.78125 117.355469 L 41.761719 117.355469 L 41.761719 118.390625 L 39.78125 118.390625 L 39.78125 121.613281 L 39.140625 121.613281 L 33.230469 118.445312 L 33.230469 117.355469 Z M 38.894531 120.464844 L 38.894531 118.390625 L 34.839844 118.390625 Z M 38.894531 120.464844 "/>
<path style=" stroke:none;fill-rule:nonzero;fill:rgb(3.529412%,3.529412%,3.529412%);fill-opacity:1;" d="M 38.121094 110.796875 L 38.488281 110.804688 L 38.839844 110.820312 L 39.167969 110.847656 L 39.480469 110.886719 L 39.769531 110.933594 L 40.042969 110.996094 L 40.296875 111.066406 L 40.53125 111.148438 L 40.75 111.242188 L 40.945312 111.347656 L 41.121094 111.464844 L 41.28125 111.59375 L 41.421875 111.734375 L 41.542969 111.890625 L 41.644531 112.054688 L 41.726562 112.234375 L 41.792969 112.425781 L 41.839844 112.632812 L 41.867188 112.847656 L 41.878906 113.078125 L 41.867188 113.300781 L 41.839844 113.511719 L 41.796875 113.710938 L 41.734375 113.898438 L 41.652344 114.074219 L 41.554688 114.238281 L 41.4375 114.390625 L 41.304688 114.535156 L 41.152344 114.664062 L 40.980469 114.78125 L 40.792969 114.890625 L 40.585938 114.984375 L 40.363281 115.070312 L 40.117188 115.144531 L 39.859375 115.210938 L 39.578125 115.261719 L 39.285156 115.304688 L 38.96875 115.335938 L 38.636719 115.359375 L 38.285156 115.367188 L 36.820312 115.367188 L 36.457031 115.363281 L 36.109375 115.347656 L 35.785156 115.320312 L 35.476562 115.28125 L 35.1875 115.230469 L 34.917969 115.167969 L 34.667969 115.097656 L 34.4375 115.015625 L 34.226562 114.921875 L 34.03125 114.816406 L 33.855469 114.699219 L 33.699219 114.570312 L 33.5625 114.429688 L 33.441406 114.273438 L 33.339844 114.105469 L 33.257812 113.929688 L 33.195312 113.738281 L 33.148438 113.53125 L 33.121094 113.316406 L 33.113281 113.089844 L 33.121094 112.863281 L 33.144531 112.652344 L 33.191406 112.449219 L 33.25 112.261719 L 33.328125 112.085938 L 33.425781 111.921875 L 33.539062 111.769531 L 33.671875 111.628906 L 33.820312 111.5 L 33.984375 111.382812 L 34.167969 111.277344 L 34.371094 111.183594 L 34.589844 111.097656 L 34.828125 111.023438 L 35.082031 110.957031 L 35.355469 110.90625 L 35.644531 110.863281 L 35.957031 110.832031 L 36.28125 110.808594 L 36.628906 110.796875 Z M 36.640625 111.835938 L 36.375 111.839844 L 36.125 111.847656 L 35.890625 111.863281 L 35.671875 111.882812 L 35.464844 111.910156 L 35.273438 111.941406 L 35.09375 111.980469 L 34.929688 112.027344 L 34.78125 112.078125 L 34.648438 112.132812 L 34.523438 112.195312 L 34.414062 112.269531 L 34.316406 112.34375 L 34.234375 112.429688 L 34.164062 112.523438 L 34.105469 112.621094 L 34.058594 112.726562 L 34.027344 112.839844 L 34.007812 112.960938 L 34.003906 113.089844 L 34.007812 113.214844 L 34.027344 113.332031 L 34.058594 113.441406 L 34.101562 113.546875 L 34.160156 113.640625 L 34.230469 113.734375 L 34.3125 113.816406 L 34.40625 113.894531 L 34.515625 113.964844 L 34.636719 114.027344 L 34.765625 114.082031 L 34.910156 114.132812 L 35.070312 114.179688 L 35.238281 114.21875 L 35.421875 114.253906 L 35.621094 114.28125 L 35.828125 114.304688 L 36.050781 114.320312 L 36.285156 114.332031 L 36.535156 114.335938 L 38.292969 114.335938 L 38.554688 114.332031 L 38.804688 114.324219 L 39.039062 114.308594 L 39.261719 114.289062 L 39.472656 114.257812 L 39.667969 114.226562 L 39.851562 114.183594 L 40.019531 114.136719 L 40.175781 114.085938 L 40.320312 114.027344 L 40.445312 113.960938 L 40.5625 113.890625 L 40.664062 113.808594 L 40.75 113.726562 L 40.824219 113.632812 L 40.882812 113.535156 L 40.933594 113.429688 L 40.964844 113.320312 L 40.984375 113.203125 L 40.992188 113.078125 L 40.984375 112.953125 L 40.96875 112.835938 L 40.933594 112.726562 L 40.890625 112.625 L 40.832031 112.527344 L 40.761719 112.4375 L 40.679688 112.355469 L 40.582031 112.277344 L 40.476562 112.207031 L 40.355469 112.144531 L 40.21875 112.089844 L 40.070312 112.039062 L 39.910156 111.992188 L 39.734375 111.953125 L 39.546875 111.917969 L 39.34375 111.890625 L 39.128906 111.867188 L 38.902344 111.851562 L 38.660156 111.839844 L 38.402344 111.835938 Z M 36.640625 111.835938 "/>
<path style=" stroke:none;fill-rule:nonzero;fill:rgb(3.529412%,3.529412%,3.529412%);fill-opacity:1;" d="M 38.121094 104.875 L 38.488281 104.878906 L 38.839844 104.894531 L 39.167969 104.921875 L 39.480469 104.960938 L 39.769531 105.011719 L 40.042969 105.074219 L 40.296875 105.144531 L 40.53125 105.226562 L 40.75 105.320312 L 40.945312 105.425781 L 41.121094 105.542969 L 41.28125 105.671875 L 41.421875 105.8125 L 41.542969 105.964844 L 41.644531 106.132812 L 41.726562 106.3125 L 41.792969 106.503906 L 41.839844 106.707031 L 41.867188 106.925781 L 41.878906 107.152344 L 41.867188 107.375 L 41.839844 107.585938 L 41.796875 107.785156 L 41.734375 107.972656 L 41.652344 108.152344 L 41.554688 108.316406 L 41.4375 108.46875 L 41.304688 108.609375 L 41.152344 108.738281 L 40.980469 108.859375 L 40.792969 108.964844 L 40.585938 109.0625 L 40.363281 109.148438 L 40.117188 109.222656 L 39.859375 109.285156 L 39.578125 109.339844 L 39.285156 109.382812 L 38.96875 109.414062 L 38.636719 109.433594 L 38.285156 109.445312 L 36.820312 109.445312 L 36.457031 109.4375 L 36.109375 109.421875 L 35.785156 109.394531 L 35.476562 109.355469 L 35.1875 109.304688 L 34.917969 109.246094 L 34.667969 109.175781 L 34.4375 109.09375 L 34.226562 109 L 34.03125 108.894531 L 33.855469 108.777344 L 33.699219 108.644531 L 33.5625 108.503906 L 33.441406 108.351562 L 33.339844 108.183594 L 33.257812 108.003906 L 33.195312 107.8125 L 33.148438 107.609375 L 33.121094 107.394531 L 33.113281 107.164062 L 33.121094 106.941406 L 33.144531 106.726562 L 33.191406 106.527344 L 33.25 106.339844 L 33.328125 106.160156 L 33.425781 105.996094 L 33.539062 105.84375 L 33.671875 105.703125 L 33.820312 105.574219 L 33.984375 105.460938 L 34.167969 105.355469 L 34.371094 105.257812 L 34.589844 105.171875 L 34.828125 105.097656 L 35.082031 105.035156 L 35.355469 104.980469 L 35.644531 104.9375 L 35.957031 104.90625 L 36.28125 104.886719 L 36.628906 104.875 Z M 36.640625 105.910156 L 36.375 105.914062 L 36.125 105.921875 L 35.890625 105.9375 L 35.671875 105.957031 L 35.464844 105.984375 L 35.273438 106.019531 L 35.09375 106.058594 L 34.929688 106.101562 L 34.78125 106.152344 L 34.648438 106.210938 L 34.523438 106.273438 L 34.414062 106.34375 L 34.316406 106.421875 L 34.234375 106.507812 L 34.164062 106.597656 L 34.105469 106.695312 L 34.058594 106.804688 L 34.027344 106.917969 L 34.007812 107.039062 L 34.003906 107.164062 L 34.007812 107.289062 L 34.027344 107.40625 L 34.058594 107.519531 L 34.101562 107.621094 L 34.160156 107.71875 L 34.230469 107.808594 L 34.3125 107.894531 L 34.40625 107.96875 L 34.515625 108.039062 L 34.636719 108.101562 L 34.765625 108.160156 L 34.910156 108.210938 L 35.070312 108.257812 L 35.238281 108.296875 L 35.421875 108.328125 L 35.621094 108.359375 L 35.828125 108.378906 L 36.050781 108.398438 L 36.285156 108.40625 L 36.535156 108.414062 L 38.292969 108.414062 L 38.554688 108.410156 L 38.804688 108.402344 L 39.039062 108.386719 L 39.261719 108.363281 L 39.472656 108.335938 L 39.667969 108.300781 L 39.851562 108.261719 L 40.019531 108.214844 L 40.175781 108.160156 L 40.320312 108.101562 L 40.445312 108.039062 L 40.5625 107.964844 L 40.664062 107.886719 L 40.75 107.800781 L 40.824219 107.710938 L 40.882812 107.613281 L 40.933594 107.507812 L 40.964844 107.394531 L 40.984375 107.277344 L 40.992188 107.152344 L 40.984375 107.03125 L 40.96875 106.914062 L 40.933594 106.804688 L 40.890625 106.699219 L 40.832031 106.605469 L 40.761719 106.515625 L 40.679688 106.429688 L 40.582031 106.355469 L 40.476562 106.285156 L 40.355469 106.222656 L 40.21875 106.164062 L 40.070312 106.113281 L 39.910156 106.066406 L 39.734375 106.027344 L 39.546875 105.996094 L 39.34375 105.964844 L 39.128906 105.945312 L 38.902344 105.925781 L 38.660156 105.917969 L 38.402344 105.910156 Z M 36.640625 105.910156 "/>
<path style=" stroke:none;fill-rule:nonzero;fill:rgb(3.529412%,3.529412%,3.529412%);fill-opacity:1;" d="M 38.121094 98.949219 L 38.488281 98.957031 L 38.839844 98.972656 L 39.167969 99 L 39.480469 99.039062 L 39.769531 99.085938 L 40.042969 99.148438 L 40.296875 99.21875 L 40.53125 99.300781 L 40.75 99.394531 L 40.945312 99.5 L 41.121094 99.617188 L 41.28125 99.746094 L 41.421875 99.886719 L 41.542969 100.042969 L 41.644531 100.207031 L 41.726562 100.386719 L 41.792969 100.578125 L 41.839844 100.785156 L 41.867188 101 L 41.878906 101.230469 L 41.867188 101.453125 L 41.839844 101.664062 L 41.796875 101.863281 L 41.734375 102.050781 L 41.652344 102.226562 L 41.554688 102.390625 L 41.4375 102.542969 L 41.304688 102.6875 L 41.152344 102.816406 L 40.980469 102.933594 L 40.792969 103.042969 L 40.585938 103.136719 L 40.363281 103.222656 L 40.117188 103.296875 L 39.859375 103.363281 L 39.578125 103.414062 L 39.285156 103.457031 L 38.96875 103.488281 L 38.636719 103.511719 L 38.285156 103.519531 L 36.820312 103.519531 L 36.457031 103.515625 L 36.109375 103.5 L 35.785156 103.472656 L 35.476562 103.433594 L 35.1875 103.382812 L 34.917969 103.320312 L 34.667969 103.25 L 34.4375 103.167969 L 34.226562 103.074219 L 34.03125 102.96875 L 33.855469 102.851562 L 33.699219 102.722656 L 33.5625 102.582031 L 33.441406 102.425781 L 33.339844 102.257812 L 33.257812 102.082031 L 33.195312 101.890625 L 33.148438 101.683594 L 33.121094 101.46875 L 33.113281 101.242188 L 33.121094 101.015625 L 33.144531 100.804688 L 33.191406 100.601562 L 33.25 100.414062 L 33.328125 100.238281 L 33.425781 100.074219 L 33.539062 99.921875 L 33.671875 99.78125 L 33.820312 99.652344 L 33.984375 99.535156 L 34.167969 99.429688 L 34.371094 99.335938 L 34.589844 99.25 L 34.828125 99.175781 L 35.082031 99.109375 L 35.355469 99.058594 L 35.644531 99.015625 L 35.957031 98.984375 L 36.28125 98.960938 L 36.628906 98.949219 Z M 36.640625 99.988281 L 36.375 99.992188 L 36.125 100 L 35.890625 100.015625 L 35.671875 100.035156 L 35.464844 100.0625 L 35.273438 100.09375 L 35.09375 100.132812 L 34.929688 100.179688 L 34.78125 100.230469 L 34.648438 100.285156 L 34.523438 100.347656 L 34.414062 100.421875 L 34.316406 100.496094 L 34.234375 100.582031 L 34.164062 100.675781 L 34.105469 100.773438 L 34.058594 100.878906 L 34.027344 100.992188 L 34.007812 101.113281 L 34.003906 101.242188 L 34.007812 101.367188 L 34.027344 101.484375 L 34.058594 101.59375 L 34.101562 101.699219 L 34.160156 101.792969 L 34.230469 101.886719 L 34.3125 101.96875 L 34.40625 102.046875 L 34.515625 102.117188 L 34.636719 102.179688 L 34.765625 102.234375 L 34.910156 102.285156 L 35.070312 102.332031 L 35.238281 102.371094 L 35.421875 102.40625 L 35.621094 102.433594 L 35.828125 102.457031 L 36.050781 102.472656 L 36.285156 102.484375 L 36.535156 102.488281 L 38.292969 102.488281 L 38.554688 102.484375 L 38.804688 102.476562 L 39.039062 102.460938 L 39.261719 102.441406 L 39.472656 102.410156 L 39.667969 102.378906 L 39.851562 102.335938 L 40.019531 102.289062 L 40.175781 102.238281 L 40.320312 102.179688 L 40.445312 102.113281 L 40.5625 102.042969 L 40.664062 101.960938 L 40.75 101.878906 L 40.824219 101.785156 L 40.882812 101.6875 L 40.933594 101.582031 L 40.964844 101.472656 L 40.984375 101.355469 L 40.992188 101.230469 L 40.984375 101.105469 L 40.96875 100.988281 L 40.933594 100.878906 L 40.890625 100.777344 L 40.832031 100.679688 L 40.761719 100.589844 L 40.679688 100.507812 L 40.582031 100.429688 L 40.476562 100.359375 L 40.355469 100.296875 L 40.21875 100.242188 L 40.070312 100.191406 L 39.910156 100.144531 L 39.734375 100.105469 L 39.546875 100.070312 L 39.34375 100.042969 L 39.128906 100.019531 L 38.902344 100.003906 L 38.660156 99.992188 L 38.402344 99.988281 Z M 36.640625 99.988281 "/>
<path style=" stroke:none;fill-rule:nonzero;fill:rgb(3.529412%,3.529412%,3.529412%);fill-opacity:1;" d="M 41.761719 77.132812 L 41.761719 78.175781 L 34.535156 78.175781 L 35.339844 79.96875 L 34.355469 79.96875 L 33.1875 77.296875 L 33.1875 77.132812 Z M 41.761719 77.132812 "/>
<path style=" stroke:none;fill-rule:nonzero;fill:rgb(3.529412%,3.529412%,3.529412%);fill-opacity:1;" d="M 38.121094 69.738281 L 38.488281 69.742188 L 38.839844 69.757812 L 39.167969 69.785156 L 39.480469 69.824219 L 39.769531 69.875 L 40.042969 69.933594 L 40.296875 70.007812 L 40.53125 70.089844 L 40.75 70.183594 L 40.945312 70.289062 L 41.121094 70.402344 L 41.28125 70.53125 L 41.421875 70.675781 L 41.542969 70.828125 L 41.644531 70.996094 L 41.726562 71.175781 L 41.792969 71.367188 L 41.839844 71.570312 L 41.867188 71.785156 L 41.878906 72.015625 L 41.867188 72.238281 L 41.839844 72.449219 L 41.796875 72.648438 L 41.734375 72.835938 L 41.652344 73.015625 L 41.554688 73.179688 L 41.4375 73.332031 L 41.304688 73.472656 L 41.152344 73.601562 L 40.980469 73.722656 L 40.792969 73.828125 L 40.585938 73.925781 L 40.363281 74.011719 L 40.117188 74.085938 L 39.859375 74.148438 L 39.578125 74.203125 L 39.285156 74.246094 L 38.96875 74.277344 L 38.636719 74.296875 L 38.285156 74.308594 L 36.820312 74.308594 L 36.457031 74.300781 L 36.109375 74.285156 L 35.785156 74.257812 L 35.476562 74.21875 L 35.1875 74.167969 L 34.917969 74.109375 L 34.667969 74.039062 L 34.4375 73.953125 L 34.226562 73.859375 L 34.03125 73.757812 L 33.855469 73.640625 L 33.699219 73.507812 L 33.5625 73.367188 L 33.441406 73.210938 L 33.339844 73.046875 L 33.257812 72.867188 L 33.195312 72.675781 L 33.148438 72.472656 L 33.121094 72.257812 L 33.113281 72.027344 L 33.121094 71.804688 L 33.144531 71.589844 L 33.191406 71.390625 L 33.25 71.199219 L 33.328125 71.023438 L 33.425781 70.859375 L 33.539062 70.707031 L 33.671875 70.566406 L 33.820312 70.4375 L 33.984375 70.324219 L 34.167969 70.21875 L 34.371094 70.121094 L 34.589844 70.035156 L 34.828125 69.960938 L 35.082031 69.898438 L 35.355469 69.84375 L 35.644531 69.800781 L 35.957031 69.769531 L 36.28125 69.75 L 36.628906 69.738281 Z M 36.640625 70.773438 L 36.375 70.777344 L 36.125 70.785156 L 35.890625 70.800781 L 35.671875 70.820312 L 35.464844 70.847656 L 35.273438 70.882812 L 35.09375 70.921875 L 34.929688 70.964844 L 34.78125 71.015625 L 34.648438 71.074219 L 34.523438 71.136719 L 34.414062 71.207031 L 34.316406 71.285156 L 34.234375 71.371094 L 34.164062 71.460938 L 34.105469 71.558594 L 34.058594 71.667969 L 34.027344 71.78125 L 34.007812 71.898438 L 34.003906 72.027344 L 34.007812 72.152344 L 34.027344 72.269531 L 34.058594 72.378906 L 34.101562 72.484375 L 34.160156 72.582031 L 34.230469 72.671875 L 34.3125 72.753906 L 34.40625 72.832031 L 34.515625 72.902344 L 34.636719 72.964844 L 34.765625 73.023438 L 34.910156 73.074219 L 35.070312 73.117188 L 35.238281 73.160156 L 35.421875 73.191406 L 35.621094 73.222656 L 35.828125 73.242188 L 36.050781 73.261719 L 36.285156 73.269531 L 36.535156 73.277344 L 38.292969 73.277344 L 38.554688 73.273438 L 38.804688 73.261719 L 39.039062 73.25 L 39.261719 73.226562 L 39.472656 73.199219 L 39.667969 73.164062 L 39.851562 73.125 L 40.019531 73.078125 L 40.175781 73.023438 L 40.320312 72.964844 L 40.445312 72.898438 L 40.5625 72.828125 L 40.664062 72.75 L 40.75 72.664062 L 40.824219 72.574219 L 40.882812 72.476562 L 40.933594 72.371094 L 40.964844 72.257812 L 40.984375 72.140625 L 40.992188 72.015625 L 40.984375 71.894531 L 40.96875 71.777344 L 40.933594 71.667969 L 40.890625 71.5625 L 40.832031 71.46875 L 40.761719 71.378906 L 40.679688 71.292969 L 40.582031 71.21875 L 40.476562 71.148438 L 40.355469 71.085938 L 40.21875 71.027344 L 40.070312 70.976562 L 39.910156 70.929688 L 39.734375 70.890625 L 39.546875 70.859375 L 39.34375 70.828125 L 39.128906 70.808594 L 38.902344 70.789062 L 38.660156 70.78125 L 38.402344 70.773438 Z M 36.640625 70.773438 "/>
<path style=" stroke:none;fill-rule:nonzero;fill:rgb(3.529412%,3.529412%,3.529412%);fill-opacity:1;" d="M 38.121094 63.8125 L 38.488281 63.820312 L 38.839844 63.835938 L 39.167969 63.863281 L 39.480469 63.902344 L 39.769531 63.949219 L 40.042969 64.011719 L 40.296875 64.082031 L 40.53125 64.164062 L 40.75 64.257812 L 40.945312 64.363281 L 41.121094 64.480469 L 41.28125 64.609375 L 41.421875 64.75 L 41.542969 64.90625 L 41.644531 65.070312 L 41.726562 65.25 L 41.792969 65.441406 L 41.839844 65.644531 L 41.867188 65.863281 L 41.878906 66.09375 L 41.867188 66.316406 L 41.839844 66.527344 L 41.796875 66.726562 L 41.734375 66.914062 L 41.652344 67.089844 L 41.554688 67.253906 L 41.4375 67.40625 L 41.304688 67.550781 L 41.152344 67.679688 L 40.980469 67.796875 L 40.792969 67.90625 L 40.585938 68 L 40.363281 68.085938 L 40.117188 68.160156 L 39.859375 68.226562 L 39.578125 68.277344 L 39.285156 68.320312 L 38.96875 68.351562 L 38.636719 68.375 L 38.285156 68.382812 L 36.820312 68.382812 L 36.457031 68.378906 L 36.109375 68.363281 L 35.785156 68.332031 L 35.476562 68.296875 L 35.1875 68.246094 L 34.917969 68.183594 L 34.667969 68.113281 L 34.4375 68.03125 L 34.226562 67.9375 L 34.03125 67.832031 L 33.855469 67.714844 L 33.699219 67.585938 L 33.5625 67.441406 L 33.441406 67.289062 L 33.339844 67.121094 L 33.257812 66.941406 L 33.195312 66.75 L 33.148438 66.546875 L 33.121094 66.332031 L 33.113281 66.105469 L 33.121094 65.878906 L 33.144531 65.667969 L 33.191406 65.464844 L 33.25 65.277344 L 33.328125 65.101562 L 33.425781 64.9375 L 33.539062 64.785156 L 33.671875 64.644531 L 33.820312 64.515625 L 33.984375 64.398438 L 34.167969 64.292969 L 34.371094 64.199219 L 34.589844 64.113281 L 34.828125 64.039062 L 35.082031 63.972656 L 35.355469 63.921875 L 35.644531 63.878906 L 35.957031 63.847656 L 36.28125 63.824219 L 36.628906 63.8125 Z M 36.640625 64.851562 L 36.375 64.851562 L 36.125 64.863281 L 35.890625 64.878906 L 35.671875 64.898438 L 35.464844 64.925781 L 35.273438 64.957031 L 35.09375 64.996094 L 34.929688 65.042969 L 34.78125 65.09375 L 34.648438 65.148438 L 34.523438 65.210938 L 34.414062 65.28125 L 34.316406 65.359375 L 34.234375 65.445312 L 34.164062 65.539062 L 34.105469 65.636719 L 34.058594 65.742188 L 34.027344 65.855469 L 34.007812 65.976562 L 34.003906 66.105469 L 34.007812 66.226562 L 34.027344 66.347656 L 34.058594 66.457031 L 34.101562 66.5625 L 34.160156 66.65625 L 34.230469 66.75 L 34.3125 66.832031 L 34.40625 66.910156 L 34.515625 66.976562 L 34.636719 67.042969 L 34.765625 67.097656 L 34.910156 67.148438 L 35.070312 67.195312 L 35.238281 67.234375 L 35.421875 67.269531 L 35.621094 67.296875 L 35.828125 67.320312 L 36.050781 67.335938 L 36.285156 67.347656 L 36.535156 67.351562 L 38.292969 67.351562 L 38.554688 67.347656 L 38.804688 67.339844 L 39.039062 67.324219 L 39.261719 67.300781 L 39.472656 67.273438 L 39.667969 67.242188 L 39.851562 67.199219 L 40.019531 67.152344 L 40.175781 67.101562 L 40.320312 67.042969 L 40.445312 66.976562 L 40.5625 66.90625 L 40.664062 66.824219 L 40.75 66.742188 L 40.824219 66.648438 L 40.882812 66.550781 L 40.933594 66.445312 L 40.964844 66.335938 L 40.984375 66.21875 L 40.992188 66.09375 L 40.984375 65.96875 L 40.96875 65.851562 L 40.933594 65.742188 L 40.890625 65.640625 L 40.832031 65.542969 L 40.761719 65.453125 L 40.679688 65.371094 L 40.582031 65.292969 L 40.476562 65.222656 L 40.355469 65.160156 L 40.21875 65.105469 L 40.070312 65.054688 L 39.910156 65.007812 L 39.734375 64.96875 L 39.546875 64.933594 L 39.34375 64.90625 L 39.128906 64.882812 L 38.902344 64.867188 L 38.660156 64.855469 L 38.402344 64.851562 Z M 36.640625 64.851562 "/>
<path style=" stroke:none;fill-rule:nonzero;fill:rgb(3.529412%,3.529412%,3.529412%);fill-opacity:1;" d="M 38.121094 57.890625 L 38.488281 57.894531 L 38.839844 57.910156 L 39.167969 57.9375 L 39.480469 57.976562 L 39.769531 58.027344 L 40.042969 58.085938 L 40.296875 58.160156 L 40.53125 58.242188 L 40.75 58.335938 L 40.945312 58.441406 L 41.121094 58.554688 L 41.28125 58.683594 L 41.421875 58.828125 L 41.542969 58.980469 L 41.644531 59.148438 L 41.726562 59.328125 L 41.792969 59.519531 L 41.839844 59.722656 L 41.867188 59.9375 L 41.878906 60.167969 L 41.867188 60.390625 L 41.839844 60.601562 L 41.796875 60.800781 L 41.734375 60.988281 L 41.652344 61.167969 L 41.554688 61.332031 L 41.4375 61.484375 L 41.304688 61.625 L 41.152344 61.753906 L 40.980469 61.875 L 40.792969 61.980469 L 40.585938 62.078125 L 40.363281 62.164062 L 40.117188 62.238281 L 39.859375 62.300781 L 39.578125 62.355469 L 39.285156 62.398438 L 38.96875 62.429688 L 38.636719 62.449219 L 38.285156 62.460938 L 36.820312 62.460938 L 36.457031 62.453125 L 36.109375 62.4375 L 35.785156 62.410156 L 35.476562 62.371094 L 35.1875 62.320312 L 34.917969 62.261719 L 34.667969 62.191406 L 34.4375 62.105469 L 34.226562 62.011719 L 34.03125 61.910156 L 33.855469 61.792969 L 33.699219 61.660156 L 33.5625 61.519531 L 33.441406 61.363281 L 33.339844 61.199219 L 33.257812 61.019531 L 33.195312 60.828125 L 33.148438 60.625 L 33.121094 60.410156 L 33.113281 60.179688 L 33.121094 59.957031 L 33.144531 59.742188 L 33.191406 59.542969 L 33.25 59.351562 L 33.328125 59.175781 L 33.425781 59.011719 L 33.539062 58.859375 L 33.671875 58.71875 L 33.820312 58.589844 L 33.984375 58.476562 L 34.167969 58.371094 L 34.371094 58.273438 L 34.589844 58.1875 L 34.828125 58.113281 L 35.082031 58.050781 L 35.355469 57.996094 L 35.644531 57.953125 L 35.957031 57.921875 L 36.28125 57.902344 L 36.628906 57.890625 Z M 36.640625 58.925781 L 36.375 58.929688 L 36.125 58.9375 L 35.890625 58.953125 L 35.671875 58.972656 L 35.464844 59 L 35.273438 59.035156 L 35.09375 59.074219 L 34.929688 59.117188 L 34.78125 59.167969 L 34.648438 59.226562 L 34.523438 59.289062 L 34.414062 59.359375 L 34.316406 59.4375 L 34.234375 59.523438 L 34.164062 59.613281 L 34.105469 59.710938 L 34.058594 59.820312 L 34.027344 59.933594 L 34.007812 60.050781 L 34.003906 60.179688 L 34.007812 60.304688 L 34.027344 60.421875 L 34.058594 60.53125 L 34.101562 60.636719 L 34.160156 60.734375 L 34.230469 60.824219 L 34.3125 60.90625 L 34.40625 60.984375 L 34.515625 61.054688 L 34.636719 61.117188 L 34.765625 61.175781 L 34.910156 61.226562 L 35.070312 61.269531 L 35.238281 61.3125 L 35.421875 61.34375 L 35.621094 61.375 L 35.828125 61.394531 L 36.050781 61.414062 L 36.285156 61.421875 L 36.535156 61.429688 L 38.292969 61.429688 L 38.554688 61.425781 L 38.804688 61.414062 L 39.039062 61.402344 L 39.261719 61.378906 L 39.472656 61.351562 L 39.667969 61.316406 L 39.851562 61.277344 L 40.019531 61.230469 L 40.175781 61.175781 L 40.320312 61.117188 L 40.445312 61.050781 L 40.5625 60.980469 L 40.664062 60.902344 L 40.75 60.816406 L 40.824219 60.726562 L 40.882812 60.628906 L 40.933594 60.523438 L 40.964844 60.410156 L 40.984375 60.292969 L 40.992188 60.167969 L 40.984375 60.046875 L 40.96875 59.929688 L 40.933594 59.820312 L 40.890625 59.714844 L 40.832031 59.621094 L 40.761719 59.53125 L 40.679688 59.445312 L 40.582031 59.371094 L 40.476562 59.300781 L 40.355469 59.238281 L 40.21875 59.179688 L 40.070312 59.128906 L 39.910156 59.082031 L 39.734375 59.042969 L 39.546875 59.011719 L 39.34375 58.980469 L 39.128906 58.960938 L 38.902344 58.941406 L 38.660156 58.933594 L 38.402344 58.925781 Z M 36.640625 58.925781 "/>
<path style=" stroke:none;fill-rule:nonzero;fill:rgb(3.529412%,3.529412%,3.529412%);fill-opacity:1;" d="M 38.121094 51.964844 L 38.488281 51.972656 L 38.839844 51.988281 L 39.167969 52.015625 L 39.480469 52.054688 L 39.769531 52.101562 L 40.042969 52.164062 L 40.296875 52.234375 L 40.53125 52.316406 L 40.75 52.410156 L 40.945312 52.515625 L 41.121094 52.632812 L 41.28125 52.761719 L 41.421875 52.902344 L 41.542969 53.058594 L 41.644531 53.222656 L 41.726562 53.402344 L 41.792969 53.59375 L 41.839844 53.796875 L 41.867188 54.015625 L 41.878906 54.246094 L 41.867188 54.46875 L 41.839844 54.679688 L 41.796875 54.878906 L 41.734375 55.066406 L 41.652344 55.242188 L 41.554688 55.40625 L 41.4375 55.558594 L 41.304688 55.703125 L 41.152344 55.832031 L 40.980469 55.949219 L 40.792969 56.058594 L 40.585938 56.152344 L 40.363281 56.238281 L 40.117188 56.3125 L 39.859375 56.378906 L 39.578125 56.429688 L 39.285156 56.472656 L 38.96875 56.503906 L 38.636719 56.527344 L 38.285156 56.535156 L 36.820312 56.535156 L 36.457031 56.53125 L 36.109375 56.515625 L 35.785156 56.484375 L 35.476562 56.449219 L 35.1875 56.398438 L 34.917969 56.335938 L 34.667969 56.265625 L 34.4375 56.183594 L 34.226562 56.089844 L 34.03125 55.984375 L 33.855469 55.867188 L 33.699219 55.738281 L 33.5625 55.59375 L 33.441406 55.441406 L 33.339844 55.273438 L 33.257812 55.09375 L 33.195312 54.902344 L 33.148438 54.699219 L 33.121094 54.484375 L 33.113281 54.257812 L 33.121094 54.03125 L 33.144531 53.820312 L 33.191406 53.617188 L 33.25 53.429688 L 33.328125 53.253906 L 33.425781 53.089844 L 33.539062 52.9375 L 33.671875 52.796875 L 33.820312 52.667969 L 33.984375 52.550781 L 34.167969 52.445312 L 34.371094 52.351562 L 34.589844 52.265625 L 34.828125 52.191406 L 35.082031 52.125 L 35.355469 52.074219 L 35.644531 52.03125 L 35.957031 52 L 36.28125 51.976562 L 36.628906 51.964844 Z M 36.640625 53.003906 L 36.375 53.003906 L 36.125 53.015625 L 35.890625 53.03125 L 35.671875 53.050781 L 35.464844 53.078125 L 35.273438 53.109375 L 35.09375 53.148438 L 34.929688 53.195312 L 34.78125 53.246094 L 34.648438 53.300781 L 34.523438 53.363281 L 34.414062 53.433594 L 34.316406 53.511719 L 34.234375 53.597656 L 34.164062 53.691406 L 34.105469 53.789062 L 34.058594 53.894531 L 34.027344 54.007812 L 34.007812 54.128906 L 34.003906 54.257812 L 34.007812 54.378906 L 34.027344 54.5 L 34.058594 54.609375 L 34.101562 54.714844 L 34.160156 54.808594 L 34.230469 54.902344 L 34.3125 54.984375 L 34.40625 55.0625 L 34.515625 55.128906 L 34.636719 55.195312 L 34.765625 55.25 L 34.910156 55.300781 L 35.070312 55.347656 L 35.238281 55.386719 L 35.421875 55.421875 L 35.621094 55.449219 L 35.828125 55.472656 L 36.050781 55.488281 L 36.285156 55.5 L 36.535156 55.503906 L 38.292969 55.503906 L 38.554688 55.5 L 38.804688 55.492188 L 39.039062 55.476562 L 39.261719 55.453125 L 39.472656 55.425781 L 39.667969 55.394531 L 39.851562 55.351562 L 40.019531 55.304688 L 40.175781 55.253906 L 40.320312 55.195312 L 40.445312 55.128906 L 40.5625 55.058594 L 40.664062 54.976562 L 40.75 54.894531 L 40.824219 54.800781 L 40.882812 54.703125 L 40.933594 54.597656 L 40.964844 54.488281 L 40.984375 54.371094 L 40.992188 54.246094 L 40.984375 54.121094 L 40.96875 54.003906 L 40.933594 53.894531 L 40.890625 53.792969 L 40.832031 53.695312 L 40.761719 53.605469 L 40.679688 53.523438 L 40.582031 53.445312 L 40.476562 53.375 L 40.355469 53.3125 L 40.21875 53.257812 L 40.070312 53.207031 L 39.910156 53.160156 L 39.734375 53.121094 L 39.546875 53.085938 L 39.34375 53.058594 L 39.128906 53.035156 L 38.902344 53.019531 L 38.660156 53.007812 L 38.402344 53.003906 Z M 36.640625 53.003906 "/>
<path style="fill-rule:nonzero;fill:rgb(59.607843%,47.45098%,43.529412%);fill-opacity:0.8;stroke-width:0.75;stroke-linecap:round;stroke-linejoin:round;stroke:rgb(97.647059%,97.647059%,97.647059%);stroke-opacity:1;stroke-miterlimit:10;" d="M 74.398438 139.464844 L 112.796875 139.464844 L 112.796875 139.457031 L 74.398438 139.457031 Z M 74.398438 139.464844 "/>
<path style="fill:none;stroke-width:0.75;stroke-linecap:round;stroke-linejoin:round;stroke:rgb(97.647059%,97.647059%,97.647059%);stroke-opacity:1;stroke-miterlimit:10;" d="M 112.800781 139.464844 L 151.199219 139.464844 Z M 112.800781 139.464844 "/>
<path style="fill-rule:nonzero;fill:rgb(59.607843%,47.45098%,43.529412%);fill-opacity:0.8;stroke-width:0.75;stroke-linecap:round;stroke-linejoin:round;stroke:rgb(97.647059%,97.647059%,97.647059%);stroke-opacity:1;stroke-miterlimit:10;" d="M 151.199219 139.464844 L 189.597656 139.464844 L 189.597656 139.105469 L 151.199219 139.105469 Z M 151.199219 139.464844 "/>
<path style="fill-rule:nonzero;fill:rgb(59.607843%,47.45098%,43.529412%);fill-opacity:0.8;stroke-width:0.75;stroke-linecap:round;stroke-linejoin:round;stroke:rgb(97.647059%,97.647059%,97.647059%);stroke-opacity:1;stroke-miterlimit:10;" d="M 189.601562 139.464844 L 228 139.464844 L 228 126.023438 L 189.601562 126.023438 Z M 189.601562 139.464844 "/>
<path style="fill-rule:nonzero;fill:rgb(59.607843%,47.45098%,43.529412%);fill-opacity:0.8;stroke-width:0.75;stroke-linecap:round;stroke-linejoin:round;stroke:rgb(97.647059%,97.647059%,97.647059%);stroke-opacity:1;stroke-miterlimit:10;" d="M 228 139.464844 L 266.398438 139.464844 L 266.398438 88.515625 L 228 88.515625 Z M 228 139.464844 "/>
<path style="fill-rule:nonzero;fill:rgb(59.607843%,47.45098%,43.529412%);fill-opacity:0.8;stroke-width:0.75;stroke-linecap:round;stroke-linejoin:round;stroke:rgb(97.647059%,97.647059%,97.647059%);stroke-opacity:1;stroke-miterlimit:10;" d="M 266.398438 139.464844 L 304.796875 139.464844 L 304.796875 62.132812 L 266.398438 62.132812 Z M 266.398438 139.464844 "/>
<path style="fill-rule:nonzero;fill:rgb(59.607843%,47.45098%,43.529412%);fill-opacity:0.8;stroke-width:0.75;stroke-linecap:round;stroke-linejoin:round;stroke:rgb(97.647059%,97.647059%,97.647059%);stroke-opacity:1;stroke-miterlimit:10;" d="M 304.800781 139.464844 L 343.199219 139.464844 L 343.199219 71.664062 L 304.800781 71.664062 Z M 304.800781 139.464844 "/>
<path style="fill-rule:nonzero;fill:rgb(59.607843%,47.45098%,43.529412%);fill-opacity:0.8;stroke-width:0.75;stroke-linecap:round;stroke-linejoin:round;stroke:rgb(97.647059%,97.647059%,97.647059%);stroke-opacity:1;stroke-miterlimit:10;" d="M 343.199219 139.464844 L 381.597656 139.464844 L 381.597656 86.136719 L 343.199219 86.136719 Z M 343.199219 139.464844 "/>
<path style="fill-rule:nonzero;fill:rgb(59.607843%,47.45098%,43.529412%);fill-opacity:0.8;stroke-width:0.75;stroke-linecap:round;stroke-linejoin:round;stroke:rgb(97.647059%,97.647059%,97.647059%);stroke-opacity:1;stroke-miterlimit:10;" d="M 381.601562 139.464844 L 420 139.464844 L 420 119.617188 L 381.601562 119.617188 Z M 381.601562 139.464844 "/>
<path style="fill-rule:nonzero;fill:rgb(59.607843%,47.45098%,43.529412%);fill-opacity:0.8;stroke-width:0.75;stroke-linecap:round;stroke-linejoin:round;stroke:rgb(97.647059%,97.647059%,97.647059%);stroke-opacity:1;stroke-miterlimit:10;" d="M 420 139.464844 L 458.398438 139.464844 L 458.398438 137.542969 L 420 137.542969 Z M 420 139.464844 "/>
</g>
</svg>
